<svg xmlns="http://www.w3.org/2000/svg" width="80" height="80" viewBox="0 0 80 80">
  <g id="グループ_55" data-name="グループ 55" transform="translate(-73 -149)">
    <rect id="長方形_30" data-name="長方形 30" width="80" height="80" transform="translate(73 149)" fill="#fff"/>
    <g id="グループ_26" data-name="グループ 26" transform="translate(-810.994 -3038.848)">
      <path id="長方形_12" data-name="長方形 12" d="M5.275-1.344h59.45a6.626,6.626,0,0,1,6.619,6.619V30.627a6.626,6.626,0,0,1-6.619,6.619H5.275a6.626,6.626,0,0,1-6.619-6.619V5.275A6.626,6.626,0,0,1,5.275-1.344Zm59.45,35.9a3.936,3.936,0,0,0,3.931-3.931V5.275a3.936,3.936,0,0,0-3.931-3.931H5.275A3.936,3.936,0,0,0,1.344,5.275V30.627a3.936,3.936,0,0,0,3.931,3.931Z" transform="translate(888.601 3210.397)" fill="#767777"/>
      <path id="線_30" data-name="線 30" d="M0,35.63a1.344,1.344,0,0,1-1.344-1.344V33.95A1.344,1.344,0,0,1,0,32.606,1.344,1.344,0,0,1,1.344,33.95v.336A1.344,1.344,0,0,1,0,35.63Zm0-4.244a1.344,1.344,0,0,1-1.344-1.344v-.336A1.344,1.344,0,0,1,0,28.363a1.344,1.344,0,0,1,1.344,1.344v.336A1.344,1.344,0,0,1,0,31.386Zm0-4.244A1.344,1.344,0,0,1-1.344,25.8v-.336A1.344,1.344,0,0,1,0,24.119a1.344,1.344,0,0,1,1.344,1.344V25.8A1.344,1.344,0,0,1,0,27.142ZM0,22.9a1.344,1.344,0,0,1-1.344-1.344v-.336A1.344,1.344,0,0,1,0,19.875a1.344,1.344,0,0,1,1.344,1.344v.336A1.344,1.344,0,0,1,0,22.9Zm0-4.244a1.344,1.344,0,0,1-1.344-1.344v-.336A1.344,1.344,0,0,1,0,15.631a1.344,1.344,0,0,1,1.344,1.344v.336A1.344,1.344,0,0,1,0,18.655Zm0-4.244a1.344,1.344,0,0,1-1.344-1.344v-.336A1.344,1.344,0,0,1,0,11.387a1.344,1.344,0,0,1,1.344,1.344v.336A1.344,1.344,0,0,1,0,14.411Zm0-4.244A1.344,1.344,0,0,1-1.344,8.823V8.488A1.344,1.344,0,0,1,0,7.144,1.344,1.344,0,0,1,1.344,8.488v.336A1.344,1.344,0,0,1,0,10.167ZM0,5.923A1.344,1.344,0,0,1-1.344,4.58V4.244A1.344,1.344,0,0,1,0,2.9,1.344,1.344,0,0,1,1.344,4.244V4.58A1.344,1.344,0,0,1,0,5.923ZM0,1.68A1.344,1.344,0,0,1-1.344.336V0A1.344,1.344,0,0,1,0-1.344,1.344,1.344,0,0,1,1.344,0V.336A1.344,1.344,0,0,1,0,1.68Z" transform="translate(938.481 3210.925)" fill="#767777"/>
      <g id="グループ_25" data-name="グループ 25">
        <path id="線_31" data-name="線 31" d="M18.862,1.344H0A1.344,1.344,0,0,1-1.344,0,1.344,1.344,0,0,1,0-1.344H18.862A1.344,1.344,0,0,1,20.206,0,1.344,1.344,0,0,1,18.862,1.344Z" transform="translate(897.511 3219.126)" fill="#767777"/>
        <path id="線_32" data-name="線 32" d="M13.413,1.344H0A1.344,1.344,0,0,1-1.344,0,1.344,1.344,0,0,1,0-1.344H13.413A1.344,1.344,0,0,1,14.757,0,1.344,1.344,0,0,1,13.413,1.344Z" transform="translate(897.511 3225.134)" fill="#767777"/>
        <path id="線_33" data-name="線 33" d="M13.413,1.344H0A1.344,1.344,0,0,1-1.344,0,1.344,1.344,0,0,1,0-1.344H13.413A1.344,1.344,0,0,1,14.757,0,1.344,1.344,0,0,1,13.413,1.344Z" transform="translate(897.511 3237.15)" fill="#767777"/>
        <path id="線_34" data-name="線 34" d="M24.731,1.344H0A1.344,1.344,0,0,1-1.344,0,1.344,1.344,0,0,1,0-1.344H24.731A1.344,1.344,0,0,1,26.074,0,1.344,1.344,0,0,1,24.731,1.344Z" transform="translate(897.511 3231.142)" fill="#767777"/>
      </g>
      <path id="線_35" data-name="線 35" d="M0,35.715a1.344,1.344,0,0,1-1.344-1.344V0A1.344,1.344,0,0,1,0-1.344,1.344,1.344,0,0,1,1.344,0V34.371A1.344,1.344,0,0,1,0,35.715Z" transform="translate(953.152 3211.372)" fill="#767777"/>
      <path id="線_36" data-name="線 36" d="M0,35.715a1.344,1.344,0,0,1-1.344-1.344V0A1.344,1.344,0,0,1,0-1.344,1.344,1.344,0,0,1,1.344,0V34.371A1.344,1.344,0,0,1,0,35.715Z" transform="translate(948.541 3211.372)" fill="#767777"/>
    </g>
  </g>
</svg>
