<svg xmlns="http://www.w3.org/2000/svg" width="80" height="80" viewBox="0 0 80 80">
  <g id="グループ_28" data-name="グループ 28" transform="translate(-324 -511.707)">
    <rect id="長方形_23" data-name="長方形 23" width="80" height="80" transform="translate(324 511.707)" fill="#fff"/>
    <path id="長方形_24" data-name="長方形 24" d="M5.275-1.4h59.45A6.683,6.683,0,0,1,71.4,5.275V30.627A6.683,6.683,0,0,1,64.725,37.3H5.275A6.683,6.683,0,0,1-1.4,30.627V5.275A6.683,6.683,0,0,1,5.275-1.4Zm59.45,35.9A3.879,3.879,0,0,0,68.6,30.627V5.275A3.879,3.879,0,0,0,64.725,1.4H5.275A3.879,3.879,0,0,0,1.4,5.275V30.627A3.879,3.879,0,0,0,5.275,34.5Z" transform="translate(329 533.756)" fill="#626464"/>
    <path id="線_36" data-name="線 36" d="M0,35.688a1.4,1.4,0,0,1-1.4-1.4v-.336a1.4,1.4,0,0,1,1.4-1.4,1.4,1.4,0,0,1,1.4,1.4v.336A1.4,1.4,0,0,1,0,35.688Zm0-4.244a1.4,1.4,0,0,1-1.4-1.4v-.336a1.4,1.4,0,0,1,1.4-1.4,1.4,1.4,0,0,1,1.4,1.4v.336A1.4,1.4,0,0,1,0,31.444ZM0,27.2a1.4,1.4,0,0,1-1.4-1.4v-.336a1.4,1.4,0,0,1,1.4-1.4,1.4,1.4,0,0,1,1.4,1.4V25.8A1.4,1.4,0,0,1,0,27.2Zm0-4.244a1.4,1.4,0,0,1-1.4-1.4V21.22A1.4,1.4,0,0,1,0,19.82a1.4,1.4,0,0,1,1.4,1.4v.336A1.4,1.4,0,0,1,0,22.956Zm0-4.244a1.4,1.4,0,0,1-1.4-1.4v-.336a1.4,1.4,0,0,1,1.4-1.4,1.4,1.4,0,0,1,1.4,1.4v.336A1.4,1.4,0,0,1,0,18.712Zm0-4.244a1.4,1.4,0,0,1-1.4-1.4v-.336a1.4,1.4,0,0,1,1.4-1.4,1.4,1.4,0,0,1,1.4,1.4v.336A1.4,1.4,0,0,1,0,14.468Zm0-4.244a1.4,1.4,0,0,1-1.4-1.4V8.488A1.4,1.4,0,0,1,0,7.088a1.4,1.4,0,0,1,1.4,1.4v.336A1.4,1.4,0,0,1,0,10.224ZM0,5.98a1.4,1.4,0,0,1-1.4-1.4V4.244A1.4,1.4,0,0,1,0,2.844a1.4,1.4,0,0,1,1.4,1.4V4.58A1.4,1.4,0,0,1,0,5.98ZM0,1.736A1.4,1.4,0,0,1-1.4.336V0A1.4,1.4,0,0,1,0-1.4,1.4,1.4,0,0,1,1.4,0V.336A1.4,1.4,0,0,1,0,1.736Z" transform="translate(378.88 534.284)" fill="#626464"/>
    <path id="線_37" data-name="線 37" d="M0,35.771a1.4,1.4,0,0,1-1.4-1.4V0A1.4,1.4,0,0,1,0-1.4,1.4,1.4,0,0,1,1.4,0V34.371A1.4,1.4,0,0,1,0,35.771Z" transform="translate(386.635 534.731)" fill="#626464"/>
    <path id="パス_124" data-name="パス 124" d="M14.578,275.355a.744.744,0,0,1-.745-.745v-2.127a.744.744,0,0,1,.338-.623l11.322-7.389a.744.744,0,0,1,.814,1.247l-10.984,7.169v.689l10.7-3.587A.744.744,0,1,1,26.5,271.4l-11.684,3.916A.744.744,0,0,1,14.578,275.355Z" transform="translate(324 282)" fill="#626464"/>
    <path id="パス_125" data-name="パス 125" d="M14.578,275.355a.744.744,0,0,1-.745-.745v-2.127a.744.744,0,0,1,.338-.623l11.322-7.389a.744.744,0,0,1,.814,1.247l-10.984,7.169v.689l10.7-3.587A.744.744,0,1,1,26.5,271.4l-11.684,3.916A.744.744,0,0,1,14.578,275.355Z" transform="translate(324 282)" fill="#626464"/>
    <path id="パス_126" data-name="パス 126" d="M21.036,269.014a.744.744,0,0,1-.745-.745v-2.736A1.707,1.707,0,0,1,22,263.827h.8a1.707,1.707,0,0,1,1.706,1.706v.887a.745.745,0,1,1-1.489,0v-.887a.217.217,0,0,0-.217-.216H22a.217.217,0,0,0-.217.216v2.736A.744.744,0,0,1,21.036,269.014Z" transform="translate(324 282)" fill="#626464"/>
    <path id="パス_127" data-name="パス 127" d="M21.036,269.014a.744.744,0,0,1-.745-.745v-2.736A1.707,1.707,0,0,1,22,263.827h.8a1.707,1.707,0,0,1,1.706,1.706v.887a.745.745,0,1,1-1.489,0v-.887a.217.217,0,0,0-.217-.216H22a.217.217,0,0,0-.217.216v2.736A.744.744,0,0,1,21.036,269.014Z" transform="translate(324 282)" fill="#626464"/>
    <path id="パス_128" data-name="パス 128" d="M24.393,283.487a.745.745,0,0,1-.745-.745v-1.456a.745.745,0,0,1,.283-.584l2.547-2.012a.744.744,0,1,1,.923,1.168l-2.264,1.788v.1l2.038-.6a.745.745,0,0,1,.423,1.428l-2.994.886A.744.744,0,0,1,24.393,283.487Z" transform="translate(324 282)" fill="#626464"/>
    <path id="パス_129" data-name="パス 129" d="M24.393,283.487a.745.745,0,0,1-.745-.745v-1.456a.745.745,0,0,1,.283-.584l2.547-2.012a.744.744,0,1,1,.923,1.168l-2.264,1.788v.1l2.038-.6a.745.745,0,0,1,.423,1.428l-2.994.886A.744.744,0,0,1,24.393,283.487Z" transform="translate(324 282)" fill="#626464"/>
    <path id="パス_130" data-name="パス 130" d="M28.468,255.625a1.7,1.7,0,0,1,1.336.646,8.844,8.844,0,0,1,1.912,4.487c.34,3.066-.8,18.213-1.27,20.187a4.166,4.166,0,0,1-1.6,2.744.745.745,0,0,1-.747,0,4.166,4.166,0,0,1-1.6-2.744c-.468-1.974-1.609-17.121-1.27-20.187a8.845,8.845,0,0,1,1.913-4.488A1.7,1.7,0,0,1,28.468,255.625Zm0,26.321A4.444,4.444,0,0,0,29,280.6c.195-.821.588-4.942.894-9.381a90.04,90.04,0,0,0,.344-10.3,7.359,7.359,0,0,0-1.6-3.724.216.216,0,0,0-.341,0,7.36,7.36,0,0,0-1.6,3.725,90.04,90.04,0,0,0,.344,10.3c.306,4.439.7,8.559.894,9.381A4.444,4.444,0,0,0,28.468,281.946Z" transform="translate(324 282)" fill="#626464"/>
    <path id="パス_131" data-name="パス 131" d="M28.468,255.625a1.7,1.7,0,0,1,1.336.646,8.844,8.844,0,0,1,1.912,4.487c.34,3.066-.8,18.213-1.27,20.187a4.166,4.166,0,0,1-1.6,2.744.745.745,0,0,1-.747,0,4.166,4.166,0,0,1-1.6-2.744c-.468-1.974-1.609-17.121-1.27-20.187a8.845,8.845,0,0,1,1.913-4.488A1.7,1.7,0,0,1,28.468,255.625Zm0,26.321A4.444,4.444,0,0,0,29,280.6c.195-.821.588-4.942.894-9.381a90.04,90.04,0,0,0,.344-10.3,7.359,7.359,0,0,0-1.6-3.724.216.216,0,0,0-.341,0,7.36,7.36,0,0,0-1.6,3.725,90.04,90.04,0,0,0,.344,10.3c.306,4.439.7,8.559.894,9.381A4.444,4.444,0,0,0,28.468,281.946Z" transform="translate(324 282)" fill="#626464"/>
    <path id="パス_132" data-name="パス 132" d="M42.358,275.355a.743.743,0,0,1-.237-.039L30.437,271.4a.744.744,0,1,1,.473-1.412l10.7,3.587v-.689l-10.984-7.169a.744.744,0,0,1,.814-1.247l11.322,7.389a.744.744,0,0,1,.338.623v2.127a.744.744,0,0,1-.745.745Z" transform="translate(324 282)" fill="#626464"/>
    <path id="パス_133" data-name="パス 133" d="M42.358,275.355a.743.743,0,0,1-.237-.039L30.437,271.4a.744.744,0,1,1,.473-1.412l10.7,3.587v-.689l-10.984-7.169a.744.744,0,0,1,.814-1.247l11.322,7.389a.744.744,0,0,1,.338.623v2.127a.744.744,0,0,1-.745.745Z" transform="translate(324 282)" fill="#626464"/>
    <path id="パス_134" data-name="パス 134" d="M35.9,269.014a.744.744,0,0,1-.744-.745v-2.736a.217.217,0,0,0-.217-.216h-.8a.217.217,0,0,0-.217.216v.887a.744.744,0,1,1-1.489,0v-.887a1.708,1.708,0,0,1,1.706-1.706h.8a1.708,1.708,0,0,1,1.706,1.706v2.736A.744.744,0,0,1,35.9,269.014Z" transform="translate(324 282)" fill="#626464"/>
    <path id="パス_135" data-name="パス 135" d="M35.9,269.014a.744.744,0,0,1-.744-.745v-2.736a.217.217,0,0,0-.217-.216h-.8a.217.217,0,0,0-.217.216v.887a.744.744,0,1,1-1.489,0v-.887a1.708,1.708,0,0,1,1.706-1.706h.8a1.708,1.708,0,0,1,1.706,1.706v2.736A.744.744,0,0,1,35.9,269.014Z" transform="translate(324 282)" fill="#626464"/>
    <path id="パス_136" data-name="パス 136" d="M32.543,283.487a.744.744,0,0,1-.211-.031l-2.994-.886a.745.745,0,0,1,.423-1.428l2.038.6v-.1l-2.264-1.788a.744.744,0,1,1,.923-1.168L33,280.7a.745.745,0,0,1,.283.584v1.456a.745.745,0,0,1-.745.745Z" transform="translate(324 282)" fill="#626464"/>
    <path id="パス_137" data-name="パス 137" d="M32.543,283.487a.744.744,0,0,1-.211-.031l-2.994-.886a.745.745,0,0,1,.423-1.428l2.038.6v-.1l-2.264-1.788a.744.744,0,1,1,.923-1.168L33,280.7a.745.745,0,0,1,.283.584v1.456a.745.745,0,0,1-.745.745Z" transform="translate(324 282)" fill="#626464"/>
  </g>
</svg>
