<svg xmlns="http://www.w3.org/2000/svg" width="80" height="80" viewBox="0 0 80 80">
  <g id="グループ_51" data-name="グループ 51" transform="translate(-473 -149)">
    <rect id="長方形_26" data-name="長方形 26" width="80" height="80" transform="translate(473 149)" fill="#fff"/>
    <g id="グループ_27" data-name="グループ 27" transform="translate(-538.649 -3040.246)">
      <path id="パス_70" data-name="パス 70" d="M1051.255,3264.141h-19.394a1.4,1.4,0,0,1-1.395-1.395v-7.517h-7.817a1.394,1.394,0,0,1-1.395-1.395v-2.643a1.395,1.395,0,1,1,2.789,0v1.249h7.818a1.4,1.4,0,0,1,1.395,1.395v7.517h16.6v-52.588l-7.613-8.415-1.446,2.314a1.4,1.4,0,0,1-.491.472,71.015,71.015,0,0,1-10.4,4.465c-5.6,2-5.852,5.275-5.863,5.493v33.315a1.395,1.395,0,1,1-2.789,0v-33.333a6.613,6.613,0,0,1,1.052-3.21,9.8,9.8,0,0,1,2.345-2.591,15.281,15.281,0,0,1,4.317-2.3,75.541,75.541,0,0,0,9.663-4.1l2.23-3.568a1.394,1.394,0,0,1,2.217-.2l9.212,10.182a1.394,1.394,0,0,1,.36.936v54.52A1.4,1.4,0,0,1,1051.255,3264.141Z" fill="#767777"/>
      <path id="パス_71" data-name="パス 71" d="M1046.407,3213.984c-.041,0-.082,0-.124-.005a1.4,1.4,0,0,1-.978-.533l-7.79-10.023a1.394,1.394,0,1,1,2.2-1.711l6.871,8.84,3.734-3.361a1.395,1.395,0,0,1,1.866,2.073l-4.849,4.364A1.394,1.394,0,0,1,1046.407,3213.984Z" fill="#767777"/>
      <path id="パス_72" data-name="パス 72" d="M1031.861,3254.931a1.4,1.4,0,0,1-1.395-1.395v-35.58l-3.66-2.861a1.395,1.395,0,1,1,1.718-2.2l4.2,3.28a1.394,1.394,0,0,1,.536,1.1v36.26A1.4,1.4,0,0,1,1031.861,3254.931Z" fill="#767777"/>
      <path id="パス_73" data-name="パス 73" d="M1070.649,3264.141h-19.394a1.4,1.4,0,0,1-1.395-1.395v-54.52a1.4,1.4,0,0,1,.36-.936l9.212-10.182a1.394,1.394,0,0,1,2.217.2l2.23,3.568a75.529,75.529,0,0,0,9.663,4.1,15.282,15.282,0,0,1,4.317,2.3,9.8,9.8,0,0,1,2.345,2.591,6.613,6.613,0,0,1,1.052,3.21v40.761a1.4,1.4,0,0,1-1.395,1.395h-7.817v7.517A1.4,1.4,0,0,1,1070.649,3264.141Zm-18-2.789h16.6v-7.517a1.4,1.4,0,0,1,1.395-1.395h7.817v-39.349c-.01-.217-.263-3.492-5.863-5.493a71.017,71.017,0,0,1-10.4-4.465,1.4,1.4,0,0,1-.491-.472l-1.446-2.314-7.613,8.415Z" fill="#767777"/>
      <path id="パス_74" data-name="パス 74" d="M1056.1,3213.984a1.394,1.394,0,0,1-.933-.358l-4.848-4.364a1.395,1.395,0,0,1,1.866-2.073l3.734,3.361,6.871-8.84a1.394,1.394,0,1,1,2.2,1.711l-7.79,10.023a1.4,1.4,0,0,1-.978.533C1056.186,3213.982,1056.145,3213.984,1056.1,3213.984Z" fill="#767777"/>
      <path id="パス_75" data-name="パス 75" d="M1070.649,3254.931a1.4,1.4,0,0,1-1.395-1.395v-36.26a1.4,1.4,0,0,1,.48-1.053l4.123-3.578a1.395,1.395,0,0,1,1.828,2.106l-3.642,3.161v35.624A1.4,1.4,0,0,1,1070.649,3254.931Z" fill="#767777"/>
      <path id="線_37" data-name="線 37" d="M13.5,1.395H0A1.4,1.4,0,0,1-1.395,0,1.4,1.4,0,0,1,0-1.395H13.5A1.4,1.4,0,0,1,14.9,0,1.4,1.4,0,0,1,13.5,1.395Z" transform="translate(1042.043 3197.746)" fill="#767777"/>
      <circle id="楕円形_7" data-name="楕円形 7" cx="1.765" cy="1.765" r="1.765" transform="translate(1053.627 3217.287)" fill="#767777"/>
      <circle id="楕円形_8" data-name="楕円形 8" cx="1.765" cy="1.765" r="1.765" transform="translate(1053.627 3224.347)" fill="#767777"/>
      <circle id="楕円形_9" data-name="楕円形 9" cx="1.765" cy="1.765" r="1.765" transform="translate(1053.627 3231.408)" fill="#767777"/>
      <circle id="楕円形_10" data-name="楕円形 10" cx="1.765" cy="1.765" r="1.765" transform="translate(1053.627 3238.469)" fill="#767777"/>
      <circle id="楕円形_11" data-name="楕円形 11" cx="1.765" cy="1.765" r="1.765" transform="translate(1053.627 3245.529)" fill="#767777"/>
    </g>
  </g>
</svg>
