<svg xmlns="http://www.w3.org/2000/svg" width="80" height="80" viewBox="0 0 80 80">
  <g id="グループ_27" data-name="グループ 27" transform="translate(-424 -511.707)">
    <rect id="長方形_26" data-name="長方形 26" width="80" height="80" transform="translate(424 511.707)" fill="#fff"/>
    <path id="長方形_27" data-name="長方形 27" d="M5.275-1.4h59.45A6.683,6.683,0,0,1,71.4,5.275V30.627A6.683,6.683,0,0,1,64.725,37.3H5.275A6.683,6.683,0,0,1-1.4,30.627V5.275A6.683,6.683,0,0,1,5.275-1.4Zm59.45,35.9A3.879,3.879,0,0,0,68.6,30.627V5.275A3.879,3.879,0,0,0,64.725,1.4H5.275A3.879,3.879,0,0,0,1.4,5.275V30.627A3.879,3.879,0,0,0,5.275,34.5Z" transform="translate(429.031 533.756)" fill="#626464"/>
    <path id="線_46" data-name="線 46" d="M0,35.688a1.4,1.4,0,0,1-1.4-1.4v-.336a1.4,1.4,0,0,1,1.4-1.4,1.4,1.4,0,0,1,1.4,1.4v.336A1.4,1.4,0,0,1,0,35.688Zm0-4.244a1.4,1.4,0,0,1-1.4-1.4v-.336a1.4,1.4,0,0,1,1.4-1.4,1.4,1.4,0,0,1,1.4,1.4v.336A1.4,1.4,0,0,1,0,31.444ZM0,27.2a1.4,1.4,0,0,1-1.4-1.4v-.336a1.4,1.4,0,0,1,1.4-1.4,1.4,1.4,0,0,1,1.4,1.4V25.8A1.4,1.4,0,0,1,0,27.2Zm0-4.244a1.4,1.4,0,0,1-1.4-1.4V21.22A1.4,1.4,0,0,1,0,19.82a1.4,1.4,0,0,1,1.4,1.4v.336A1.4,1.4,0,0,1,0,22.956Zm0-4.244a1.4,1.4,0,0,1-1.4-1.4v-.336a1.4,1.4,0,0,1,1.4-1.4,1.4,1.4,0,0,1,1.4,1.4v.336A1.4,1.4,0,0,1,0,18.712Zm0-4.244a1.4,1.4,0,0,1-1.4-1.4v-.336a1.4,1.4,0,0,1,1.4-1.4,1.4,1.4,0,0,1,1.4,1.4v.336A1.4,1.4,0,0,1,0,14.468Zm0-4.244a1.4,1.4,0,0,1-1.4-1.4V8.488A1.4,1.4,0,0,1,0,7.088a1.4,1.4,0,0,1,1.4,1.4v.336A1.4,1.4,0,0,1,0,10.224ZM0,5.98a1.4,1.4,0,0,1-1.4-1.4V4.244A1.4,1.4,0,0,1,0,2.844a1.4,1.4,0,0,1,1.4,1.4V4.58A1.4,1.4,0,0,1,0,5.98ZM0,1.736A1.4,1.4,0,0,1-1.4.336V0A1.4,1.4,0,0,1,0-1.4,1.4,1.4,0,0,1,1.4,0V.336A1.4,1.4,0,0,1,0,1.736Z" transform="translate(478.912 534.284)" fill="#626464"/>
    <path id="線_47" data-name="線 47" d="M0,35.771a1.4,1.4,0,0,1-1.4-1.4V0A1.4,1.4,0,0,1,0-1.4,1.4,1.4,0,0,1,1.4,0V34.371A1.4,1.4,0,0,1,0,35.771Z" transform="translate(486.666 534.731)" fill="#626464"/>
    <path id="パス_141" data-name="パス 141" d="M113.823,260.18h1.72a2.2,2.2,0,0,1,2.2,2.19c.007.3.111,4.615.044,6.7H142.2v-2.4a2.2,2.2,0,0,1,2.2-2.2h1.72a2.2,2.2,0,0,1,2.2,2.2v10.61a2.2,2.2,0,0,1-2.2,2.2H144.4a2.2,2.2,0,0,1-2.2-2.2v-1.151H117.743v1.151a2.2,2.2,0,0,1-2.2,2.2h-1.72a2.2,2.2,0,0,1-2.2-2.2V262.381A2.2,2.2,0,0,1,113.823,260.18Zm29.122,10.378H117a.745.745,0,0,1-.74-.828c.119-1.053.037-5.649,0-7.331,0-.006,0-.012,0-.018a.712.712,0,0,0-.711-.712h-1.72a.712.712,0,0,0-.712.712v14.895a.713.713,0,0,0,.712.712h1.72a.713.713,0,0,0,.711-.712v-1.9a.745.745,0,0,1,.745-.745h25.946a.745.745,0,0,1,.745.745v1.9a.713.713,0,0,0,.711.712h1.72a.713.713,0,0,0,.711-.712v-10.61a.712.712,0,0,0-.711-.711H144.4a.712.712,0,0,0-.711.711v3.148A.744.744,0,0,1,142.945,270.559Z" transform="translate(324 282)" fill="#626464"/>
    <path id="パス_142" data-name="パス 142" d="M126.742,269.022c-.645-1.058-2.215-1.775-4.308-1.966-2.344-.214-4.227.325-4.634.779l-1.11-.993c.98-1.1,3.7-1.468,5.879-1.269a10.087,10.087,0,0,1,3.092.749,5.014,5.014,0,0,1,2.351,1.925Z" transform="translate(324 282)" fill="#626464"/>
    <rect id="長方形_28" data-name="長方形 28" width="18.064" height="6.253" transform="translate(450.337 547.21)" fill="#fff"/>
    <path id="長方形_29" data-name="長方形 29" d="M0-.744H18.064A.744.744,0,0,1,18.808,0V6.253A.744.744,0,0,1,18.064,7H0a.744.744,0,0,1-.745-.744V0A.744.744,0,0,1,0-.744ZM17.319.745H.744V5.509H17.319Z" transform="translate(450.337 547.21)" fill="#626464"/>
  </g>
</svg>
