<svg xmlns="http://www.w3.org/2000/svg" width="80" height="80" viewBox="0 0 80 80">
  <g id="グループ_53" data-name="グループ 53" transform="translate(-273 -149)">
    <rect id="長方形_25" data-name="長方形 25" width="80" height="80" transform="translate(273 149)" fill="#fff"/>
    <g id="グループ_1" data-name="グループ 1" transform="translate(-1014.814 -2895.228)">
      <path id="パス_1" data-name="パス 1" d="M1334.773,3120.885a23.906,23.906,0,0,1-6.7-1.011,2.146,2.146,0,0,0-1.206,0,21.454,21.454,0,0,1-8.756.8,18.425,18.425,0,0,1-7.583-2.755,26.454,26.454,0,0,1-9.064-10.493,52.015,52.015,0,0,1-4.9-15.8,29.171,29.171,0,0,1,.34-11.444,21.777,21.777,0,0,1,3.356-7.516,18.2,18.2,0,0,1,5.79-5.3,18.609,18.609,0,0,1,7.724-2.382,24.533,24.533,0,0,1,9.127,1.034,1.657,1.657,0,1,1-.944,3.176c-5.366-1.594-10.295-1.233-14.255,1.044a14.906,14.906,0,0,0-4.739,4.347,18.484,18.484,0,0,0-2.838,6.379,25.883,25.883,0,0,0-.287,10.148,48.729,48.729,0,0,0,4.571,14.789,23.218,23.218,0,0,0,7.9,9.217c3.982,2.525,8.57,3.055,13.636,1.575a5.449,5.449,0,0,1,3.064,0,17.962,17.962,0,0,0,10.509.171,17.077,17.077,0,0,0,7.878-5.413,1.657,1.657,0,0,1,2.519,2.153,20.333,20.333,0,0,1-9.408,6.422A19.1,19.1,0,0,1,1334.773,3120.885Z" fill="#767777"/>
      <path id="パス_2" data-name="パス 2" d="M1352.777,3107.672a1.657,1.657,0,0,1-1.5-2.364,45.835,45.835,0,0,0,3.816-14.123,26.22,26.22,0,0,0-1.168-11.7,18.1,18.1,0,0,0-5.594-8.14c-4.308-3.453-9.973-4.212-15.951-2.137a1.657,1.657,0,1,1-1.087-3.13,21.721,21.721,0,0,1,10.472-1.114,18,18,0,0,1,8.638,3.8,21.4,21.4,0,0,1,6.644,9.616,29.545,29.545,0,0,1,1.338,13.189,49.169,49.169,0,0,1-4.112,15.158A1.657,1.657,0,0,1,1352.777,3107.672Z" fill="#767777"/>
      <path id="線_1" data-name="線 1" d="M0,15.35a1.657,1.657,0,0,1-1.657-1.657V0A1.657,1.657,0,0,1,0-1.657,1.657,1.657,0,0,1,1.657,0V13.694A1.657,1.657,0,0,1,0,15.35Z" transform="translate(1327.383 3059.562)" fill="#767777"/>
      <path id="パス_3" data-name="パス 3" d="M1341.481,3047.571a11.526,11.526,0,0,1,6.468,2.064,2.576,2.576,0,0,1,1.111,2.215,11.969,11.969,0,0,1-1.041,4.43,10.967,10.967,0,0,1-9.856,6.362,12.494,12.494,0,0,1-6.568-2.011,2.552,2.552,0,0,1-1.163-2.144,11.122,11.122,0,0,1,.953-4.436,10.751,10.751,0,0,1,5.178-5.283A10.9,10.9,0,0,1,1341.481,3047.571Zm4.243,4.566a8.246,8.246,0,0,0-4.243-1.253,7.614,7.614,0,0,0-3.433.845,7.521,7.521,0,0,0-3.639,3.673,7.767,7.767,0,0,0-.652,2.671,8.98,8.98,0,0,0,4.405,1.256,7.3,7.3,0,0,0,3.3-.795,7.428,7.428,0,0,0,3.54-3.624A8.587,8.587,0,0,0,1345.724,3052.137Z" fill="#767777"/>
      <path id="パス_4" data-name="パス 4" d="M1316.994,3110.669a1.649,1.649,0,0,1-.8-.206c-2.3-1.268-4.175-3.818-5.342-5.733a29.447,29.447,0,0,1-3.065-6.841,1.657,1.657,0,1,1,3.188-.9,25.953,25.953,0,0,0,2.706,6.019,12.885,12.885,0,0,0,4.111,4.555,1.657,1.657,0,0,1-.8,3.108Z" fill="#767777"/>
    </g>
  </g>
</svg>
