<svg xmlns="http://www.w3.org/2000/svg" width="80" height="80" viewBox="0 0 80 80">
  <g id="グループ_48" data-name="グループ 48" transform="translate(-1073 -47)">
    <rect id="長方形_18" data-name="長方形 18" width="80" height="80" transform="translate(1073 47)" fill="#fff"/>
    <g id="グループ_16" data-name="グループ 16" transform="translate(-534.38 -2999.34)">
      <g id="グループ_13" data-name="グループ 13">
        <path id="パス_43" data-name="パス 43" d="M1649.085,3104.7c-.155,0-.31,0-.467,0a28.1,28.1,0,0,1-9.819-1.983,1.037,1.037,0,1,1,.78-1.922,25.977,25.977,0,0,0,9.076,1.832q.218,0,.434,0a15.247,15.247,0,0,0,7.714-1.767,15.452,15.452,0,0,0,4.744-4.076,7.927,7.927,0,0,0,1.494-3.628,7.575,7.575,0,0,0-.764-4.33c-.031-.063-.053-.108-.073-.156a1.037,1.037,0,0,1,.676-1.4c3.159-.882,7.139-2.328,8.16-4.21l.006-.011c.485-.867,1.025-1.975,1.606-3.292a1.037,1.037,0,0,1,1.9.837c-.606,1.374-1.175,2.538-1.69,3.461-1.047,1.925-3.692,3.488-8.284,4.882a9.515,9.515,0,0,1,.522,4.488,9.975,9.975,0,0,1-1.869,4.575,17.481,17.481,0,0,1-5.37,4.648A17.3,17.3,0,0,1,1649.085,3104.7Zm-13.127-4.372a1.074,1.074,0,0,1-.746-.318l-.119-.114c-.066-.063-.2-.19-.334-.331a1.037,1.037,0,0,1,1.457-1.476c.175.167.293.281.368.354a1.086,1.086,0,0,1,.384,1.1,1.037,1.037,0,0,1-.735.745A1.055,1.055,0,0,1,1635.958,3100.326Zm-2.685-10.9a1.03,1.03,0,0,1-.187-.016,1.047,1.047,0,0,1-.57-.308c-4.947-1.437-7.771-3.054-8.866-5.068a57.816,57.816,0,0,1-2.946-6.536c-1.675-1.869-2.354-5.827-1.65-9.761a15.134,15.134,0,0,1,3.728-7.734,14.967,14.967,0,0,1,7.358-4.294,2.4,2.4,0,0,1,2.876,3.053,73.478,73.478,0,0,0-1.4,8.26,1.037,1.037,0,0,1,.511-.344l.071-.084c1.647-1.956,2.3-2.475,3.054-2.417a1.24,1.24,0,0,1,1.024.716,12.078,12.078,0,0,1,1.326,8.013,9.883,9.883,0,0,1-3.813,5.871c.033,1.005.065,1.965.1,2.861l2.382.042a10.462,10.462,0,0,1,3.93-2.2,4.52,4.52,0,0,1-2.007-2.8,4.632,4.632,0,0,1,.522-3.472,4.584,4.584,0,0,1,2.827-2.164,4.531,4.531,0,0,1,3.59.622,4.7,4.7,0,0,1,2.043,2.722,4.643,4.643,0,0,1-.744,3.935,4.248,4.248,0,0,1-.646.681c1.4-.035,3.555-.035,4.954,0a4.256,4.256,0,0,1-.609-.635,4.713,4.713,0,0,1-.8-3.925l.005-.023c0-.017.011-.046.023-.083a4.748,4.748,0,0,1,2.18-2.765,4.508,4.508,0,0,1,3.449-.527,4.757,4.757,0,0,1,3.37,5.606l-.006.025-.008.031a4.54,4.54,0,0,1-2.071,2.816,10.209,10.209,0,0,1,4.678,2.965,1.037,1.037,0,0,1-.8,1.7h-.019l-22.915-.408a1.037,1.037,0,0,1-.246.23l-2.022,1.352a1.035,1.035,0,0,1-.9.123c.047.967.091,1.706.133,2.15a1.037,1.037,0,0,1,.137,1.042A1.1,1.1,0,0,1,1633.273,3089.424Zm-2.541-31.718a.328.328,0,0,0-.08.01,12.726,12.726,0,0,0-6.345,3.689,13.094,13.094,0,0,0-3.212,6.695c-.512,2.862-.19,6.675,1.236,8.1a1.035,1.035,0,0,1,.235.362,58.1,58.1,0,0,0,2.9,6.464l.007.012a5.961,5.961,0,0,0,2.492,2.1,24.428,24.428,0,0,0,4.079,1.647c-.031-.5-.062-1.117-.1-1.86q-.005-.115-.01-.234l-3.061-1.132a1.037,1.037,0,0,1,.36-2.01h.019l2.561.046q-.029-.807-.06-1.721a6.552,6.552,0,0,1-1.682.379,6.209,6.209,0,0,1-5.428-2.431,1.037,1.037,0,0,1-.046-1.285c1.886-2.572,3.477-4.7,4.794-6.417a1.035,1.035,0,0,1-.1-.573c.009-.072.023-.243.041-.459a75.749,75.749,0,0,1,1.667-10.843,1.083,1.083,0,0,1,.032-.11.323.323,0,0,0-.064-.326A.327.327,0,0,0,1630.732,3057.707Zm9.294,24.039,17.021.3a7.247,7.247,0,0,0-1.715-.63,1.037,1.037,0,0,1-.671-.489,6.613,6.613,0,0,1-.35-.707,2.2,2.2,0,0,1-.169-1.691,1.037,1.037,0,0,1,.626-.6,2.423,2.423,0,0,0,1.566-1.757l0-.014,0-.009a2.686,2.686,0,0,0-1.87-3.108h-.006a2.453,2.453,0,0,0-1.874.306,2.665,2.665,0,0,0-1.238,1.541c0,.015-.008.03-.013.045a2.617,2.617,0,0,0,.428,2.15,2.3,2.3,0,0,0,.907.692,1.037,1.037,0,0,1,.552,1.321c-.144.376-.348.912-.5,1.328a1.037,1.037,0,0,1-1.06.682c-1.082-.089-5.731-.089-6.814,0a1.034,1.034,0,0,1-1.06-.681l-.019-.051c-.126-.347-.3-.823-.473-1.28a1.037,1.037,0,0,1,.55-1.321,2.311,2.311,0,0,0,.927-.717,2.554,2.554,0,0,0,.388-2.166,2.646,2.646,0,0,0-1.152-1.491,2.42,2.42,0,0,0-3.508.842,2.546,2.546,0,0,0-.3,1.906l0,.013a2.4,2.4,0,0,0,1.558,1.768,1.037,1.037,0,0,1,.624.594,3.269,3.269,0,0,1-.17,2.112,1.037,1.037,0,0,1-.792.665A7.013,7.013,0,0,0,1640.026,3081.745Zm-13.24-4.678a3.969,3.969,0,0,0,3.1,1.125,4.447,4.447,0,0,0,1.738-.531l.053-.031c-.062-1.97-.13-4.238-.2-6.814C1630.21,3072.455,1628.656,3074.526,1626.786,3077.067Zm6.7-8.772c.071,2.578.147,5.251.224,7.767a7.58,7.58,0,0,0,1.869-3.586,9.606,9.606,0,0,0-.724-5.748C1634.552,3067.041,1634.115,3067.53,1633.484,3068.294Zm30.8,11.211a1.693,1.693,0,0,1-.968-.308,9.993,9.993,0,0,1-4.385-6.278,12.161,12.161,0,0,1,1.3-8.013,2.394,2.394,0,0,1,2.129-1.314h.066a2.414,2.414,0,0,1,2.129,1.416l.046.1q-.091-1.285-.214-2.688a1.037,1.037,0,0,1,.822-1.106l.011,0q-.215-.423-.395-.786a16.367,16.367,0,0,1-1.094-2.548,1.57,1.57,0,0,1,.279-1.563,2.382,2.382,0,0,1,2.366-.71,14.964,14.964,0,0,1,7.348,4.282,15.142,15.142,0,0,1,3.736,7.717c.739,4.07.005,8.165-1.785,9.959a1.037,1.037,0,0,1-1.639-.225c-3.064-5.465-5.357-9.614-6.982-12.637a23.923,23.923,0,0,1,.189,4.17c-.006.238-.014.508-.007.587a1.038,1.038,0,0,1-.311.864c.105,6.692-.865,8.308-1.816,8.857A1.655,1.655,0,0,1,1664.283,3079.505Zm-1.923-13.839a.309.309,0,0,0-.276.175,10.128,10.128,0,0,0-1.125,6.649,7.888,7.888,0,0,0,3.229,4.788,8.621,8.621,0,0,0,.558-2.827,44.408,44.408,0,0,0,.089-4.732,18.273,18.273,0,0,1-2.171-3.862.324.324,0,0,0-.289-.19Zm3.46-7.957a38.4,38.4,0,0,0,1.737,3.613c1.45,2.787,3.89,7.243,7.444,13.6a13.733,13.733,0,0,0,.42-6.839,13.1,13.1,0,0,0-3.22-6.681,12.724,12.724,0,0,0-6.338-3.68Z" fill="#767777"/>
      </g>
      <g id="グループ_14" data-name="グループ 14">
        <path id="パス_44" data-name="パス 44" d="M1669.075,3092.828a1.037,1.037,0,0,1-.221-2.05c2.975-.652,3.762-1.1,3.966-1.31a1.023,1.023,0,0,1,.123-.108c3.068-2.289,7.048-5.89,8.166-8.5a.32.32,0,0,0,0-.246.324.324,0,0,0-.417-.179.322.322,0,0,0-.177.172c-1.462,3.417-7.993,8.267-8.059,8.315a1.037,1.037,0,1,1-1.232-1.668c2.369-1.749,6.468-5.322,7.385-7.464a2.4,2.4,0,0,1,4.4,1.885,19.3,19.3,0,0,1-4.669,5.87,52.6,52.6,0,0,1-4.1,3.437c-.6.58-1.719,1.119-4.944,1.826A1.042,1.042,0,0,1,1669.075,3092.828Z" fill="#767777"/>
        <path id="パス_45" data-name="パス 45" d="M1664.737,3090.892a1.037,1.037,0,0,1-.174-2.059,33.735,33.735,0,0,0,6.6-1.516,1.037,1.037,0,0,1,1.078,1.772c-.768.469-3.438,1.12-7.326,1.788A1.037,1.037,0,0,1,1664.737,3090.892Z" fill="#767777"/>
      </g>
      <path id="パス_46" data-name="パス 46" d="M1670.976,3098.214c-.629,0-1.286-.053-2.055-.116-.475-.039-1.013-.082-1.623-.12a1.037,1.037,0,1,1,.129-2.07c.63.039,1.178.084,1.662.123a8.263,8.263,0,0,0,4.514-.421l.05-.022c.293-.163,4.343-2.492,7.652-8.709a.322.322,0,0,0-.132-.434.323.323,0,0,0-.437.133c-3,5.642-6.6,7.976-7.291,8.386a1.039,1.039,0,0,1-.175.083c-2.027.737-5.787.5-8.807.312a1.037,1.037,0,0,1,.064-2.072l.066,0c2.482.155,6.209.389,7.878-.16a19.919,19.919,0,0,0,6.435-7.526,2.4,2.4,0,0,1,4.231,2.25c-3.589,6.742-8.008,9.292-8.5,9.561l-.016.009c-.082.043-.156.074-.224.1l-.023.01A8.694,8.694,0,0,1,1670.976,3098.214Z" fill="#767777"/>
      <path id="パス_47" data-name="パス 47" d="M1674.582,3112.232a2.4,2.4,0,0,1-2.255-1.577l0-.011a36.919,36.919,0,0,0-3.746-7.461l-.17-.061a31.555,31.555,0,0,0-5.894-1.6,1.037,1.037,0,1,1,.321-2.049,33.375,33.375,0,0,1,6.272,1.692l.452.16a1.038,1.038,0,0,1,.479.345,37.006,37.006,0,0,1,4.239,8.272h0a.324.324,0,0,0,.6.027.314.314,0,0,0,.011-.245v0c-.217-.592-2.188-5.866-4.6-8.773a.331.331,0,0,0-.139-.1l-.01,0a58.638,58.638,0,0,0-7.086-2.044,1.037,1.037,0,1,1,.423-2.03,60.842,60.842,0,0,1,7.366,2.124l.015.005.011,0a2.411,2.411,0,0,1,1.018.721c2.631,3.175,4.719,8.757,4.949,9.383l0,.005a2.4,2.4,0,0,1-2.25,3.215Z" fill="#767777"/>
      <g id="グループ_15" data-name="グループ 15">
        <path id="パス_48" data-name="パス 48" d="M1664.551,3117.011a2.4,2.4,0,0,1-2.389-2.237,29.927,29.927,0,0,0-1.187-5.819l-.177-.2a15.619,15.619,0,0,0-3.651-3.3,1.037,1.037,0,0,1,1.023-1.8,17.4,17.4,0,0,1,4.2,3.751c.122.141.228.264.295.336a1.035,1.035,0,0,1,.231.4,33.067,33.067,0,0,1,1.339,6.5.321.321,0,0,0,.313.3h.025a.322.322,0,0,0,.3-.344,34.443,34.443,0,0,0-1.452-6.931l0-.006a1.037,1.037,0,1,1,1.976-.631l0,.005a35.882,35.882,0,0,1,1.546,7.424,2.4,2.4,0,0,1-2.232,2.552C1664.672,3117.007,1664.615,3117.011,1664.551,3117.011Z" fill="#767777"/>
        <path id="パス_49" data-name="パス 49" d="M1663.32,3106.26a1.037,1.037,0,0,1-.986-.719.3.3,0,0,0-.056-.1,12.926,12.926,0,0,0-3.161-2.519,1.037,1.037,0,1,1,1.087-1.766,14.672,14.672,0,0,1,3.675,2.967,2.366,2.366,0,0,1,.428.781,1.038,1.038,0,0,1-.987,1.356Z" fill="#767777"/>
      </g>
      <path id="パス_50" data-name="パス 50" d="M1661.137,3086.368a1.037,1.037,0,0,1-.382-2l6.006-2.379.548-.822a1.037,1.037,0,0,1,1.726,1.15l-.728,1.092a1.036,1.036,0,0,1-.481.389l-6.307,2.5A1.036,1.036,0,0,1,1661.137,3086.368Z" fill="#767777"/>
      <path id="パス_51" data-name="パス 51" d="M1654.056,3077.424h-.05a2.216,2.216,0,0,1-1.73-.728,1.978,1.978,0,0,1-.311-1.6c.006-.031.015-.063.024-.094a2.036,2.036,0,0,1,.922-1.089,1.954,1.954,0,0,1,1-.29,1.59,1.59,0,0,1,.4.049,2.045,2.045,0,0,1,1.423,2.29c0,.022-.01.044-.016.066a1.765,1.765,0,0,1-1.481,1.384A1.026,1.026,0,0,1,1654.056,3077.424Z" fill="#767777"/>
      <path id="パス_52" data-name="パス 52" d="M1642.466,3077.424a1.049,1.049,0,0,1-.183-.016,1.734,1.734,0,0,1-1.444-1.375l0-.006-.01-.037a1.914,1.914,0,0,1,.238-1.418,1.88,1.88,0,0,1,1.149-.9,1.612,1.612,0,0,1,.406-.051,2.1,2.1,0,0,1,1.926,1.433l0,.011a1.95,1.95,0,0,1-.283,1.612,2.214,2.214,0,0,1-1.751.747Z" fill="#767777"/>
      <path id="パス_53" data-name="パス 53" d="M1619.834,3110.29a2.4,2.4,0,0,1-2.255-3.212c.087-.243,2.193-6.065,4.985-9.4a2.4,2.4,0,0,1,1.011-.711,59.054,59.054,0,0,1,7.366-2.135,1.037,1.037,0,1,1,.423,2.03,57.857,57.857,0,0,0-7.068,2.049l-.008,0a.321.321,0,0,0-.135.1c-2.556,3.054-4.6,8.714-4.623,8.771a.323.323,0,0,0,.01.25.308.308,0,0,0,.178.162l.005,0a.314.314,0,0,0,.244-.011.321.321,0,0,0,.166-.181l0-.013,0-.01a35.952,35.952,0,0,1,4.258-8.253,1.038,1.038,0,0,1,.473-.339,17.933,17.933,0,0,1,1.737-.484c.756-.185,1.7-.415,3.084-.848a1.037,1.037,0,1,1,.618,1.979c-1.449.453-2.426.691-3.21.883-.48.117-.88.215-1.256.332a35.928,35.928,0,0,0-3.76,7.451l-.005.014a2.4,2.4,0,0,1-2.248,1.575Z" fill="#767777"/>
      <path id="パス_54" data-name="パス 54" d="M1630.007,3112.858q-.084,0-.169-.006a2.4,2.4,0,0,1-2.226-2.551,35.423,35.423,0,0,1,1.572-7.43l0-.011,0-.013a2.443,2.443,0,0,1,.4-.733l.006-.007a14.34,14.34,0,0,1,3.667-2.987,1.037,1.037,0,0,1,1.091,1.764,12.624,12.624,0,0,0-3.137,2.517.366.366,0,0,0-.057.105l0,.005a33.978,33.978,0,0,0-1.476,6.928.321.321,0,0,0,.3.343.305.305,0,0,0,.234-.077.321.321,0,0,0,.109-.222,32.461,32.461,0,0,1,1.366-6.515,1.038,1.038,0,0,1,.22-.386c.073-.081.127-.151.19-.232a6.507,6.507,0,0,1,2.407-1.812,1.037,1.037,0,0,1,1.023,1.8c-1.431.811-1.588,1.015-1.787,1.273-.039.051-.083.108-.135.172a29.682,29.682,0,0,0-1.214,5.834,2.392,2.392,0,0,1-2.384,2.235Z" fill="#767777"/>
      <path id="パス_55" data-name="パス 55" d="M1631.136,3089.085a1.042,1.042,0,0,1-.177-.015c-3.855-.663-6.51-1.31-7.285-1.775a1.037,1.037,0,0,1,1.065-1.78,33.685,33.685,0,0,0,6.572,1.511,1.037,1.037,0,0,1-.175,2.059Z" fill="#767777"/>
      <path id="パス_56" data-name="パス 56" d="M1627.132,3095.962a14.387,14.387,0,0,1-5.446-.728l-.007,0c-.041-.016-.09-.037-.145-.062l-.05-.014a16.026,16.026,0,0,1-9.864-8.24,2.4,2.4,0,0,1,4.238-2.241,11.888,11.888,0,0,0,7.134,5.932,5.267,5.267,0,0,1,.564.211c1.652.563,5.423.327,7.928.171h.009a1.037,1.037,0,1,1,.129,2.07h-.008c-3.028.189-6.8.425-8.823-.312a1.051,1.051,0,0,1-.138-.062c-.057-.023-.2-.073-.324-.114a14.949,14.949,0,0,1-3.707-1.768,13.931,13.931,0,0,1-4.6-5.16.321.321,0,0,0-.434-.134.326.326,0,0,0-.136.439,13.867,13.867,0,0,0,8.575,7.205,1.687,1.687,0,0,1,.371.13l.048.02c1.7.667,4.641.625,6.7.536h.046a1.037,1.037,0,0,1,.044,2.073C1628.462,3095.947,1627.762,3095.962,1627.132,3095.962Z" fill="#767777"/>
      <path id="パス_57" data-name="パス 57" d="M1626.285,3090.864a1.043,1.043,0,0,1-.252-.031,27.58,27.58,0,0,1-2.675-.8,5.053,5.053,0,0,1-1.7-.863,51.371,51.371,0,0,1-4.131-3.45,19.007,19.007,0,0,1-4.653-5.87,2.4,2.4,0,0,1,4.354-2,58.851,58.851,0,0,0,7.441,7.586l.028.021a2.853,2.853,0,0,1,.236.206,1.037,1.037,0,1,1-1.453,1.479c-.01-.01-.029-.026-.055-.047a59.539,59.539,0,0,1-7.911-8.072,1.038,1.038,0,0,1-.133-.229.321.321,0,0,0-.424-.173.325.325,0,0,0-.17.424c1.1,2.607,5.083,6.208,8.162,8.5a1.008,1.008,0,0,1,.105.09,14.377,14.377,0,0,0,3.48,1.184,1.037,1.037,0,0,1-.251,2.043Z" fill="#767777"/>
    </g>
  </g>
</svg>
