<svg xmlns="http://www.w3.org/2000/svg" width="80" height="80" viewBox="0 0 80 80">
  <g id="グループ_54" data-name="グループ 54" transform="translate(-173 -149)">
    <rect id="長方形_20" data-name="長方形 20" width="80" height="80" transform="translate(173 149)" fill="#fff"/>
    <g id="グループ_2" data-name="グループ 2" transform="translate(-1000.96 -2908.729)">
      <path id="パス_5" data-name="パス 5" d="M1193.522,3134.479a43.227,43.227,0,0,1-6.833-.536c-3.05-.509-5.066-1.289-6.164-2.387l-.146-.146c-1.4-1.4-2.154-4.114-2.536-6.141a27.077,27.077,0,0,1-.373-7.642,52.267,52.267,0,0,1,2.983-13.466,38.3,38.3,0,0,1,8.844-13.131,44.948,44.948,0,0,1,8.92-7.387c2.507-1.427,4.723-1.872,6.773-1.359,6.054,1.513,10.752,6.211,14.527,9.986l.147.147c3.775,3.775,8.474,8.474,9.987,14.527.883,3.532-.618,7.457-4.459,11.667a1.613,1.613,0,1,1-2.383-2.174,16.194,16.194,0,0,0,3.446-5.28,5.937,5.937,0,0,0,.266-3.431c-1.3-5.186-5.645-9.534-9.139-13.029l-.146-.146c-3.495-3.494-7.843-7.842-13.03-9.139-.769-.192-2.062-.295-4.395,1.033a42.7,42.7,0,0,0-8.232,6.862,35.148,35.148,0,0,0-8.126,12.034,48.569,48.569,0,0,0-2.779,12.641,24.082,24.082,0,0,0,.337,6.688c.482,2.556,1.188,4,1.647,4.458l.146.146c.211.211,1.154.943,4.414,1.486a40.074,40.074,0,0,0,6.885.488,29.834,29.834,0,0,0,11.229-2.171,43.943,43.943,0,0,0,10.115-6.191,1.613,1.613,0,0,1,1.971,2.554,46.964,46.964,0,0,1-10.859,6.62,32.95,32.95,0,0,1-12.407,2.414C1193.946,3134.477,1193.734,3134.479,1193.522,3134.479Z" fill="#767777"/>
      <path id="線_2" data-name="線 2" d="M0,8.17A1.608,1.608,0,0,1-1.14,7.7a1.613,1.613,0,0,1,0-2.281L5.417-1.14a1.613,1.613,0,0,1,2.281,0,1.613,1.613,0,0,1,0,2.281L1.14,7.7A1.608,1.608,0,0,1,0,8.17Z" transform="translate(1218.29 3080.166)" fill="#767777"/>
      <path id="線_3" data-name="線 3" d="M0,8.17A1.608,1.608,0,0,1-1.14,7.7a1.613,1.613,0,0,1,0-2.281L5.417-1.14a1.613,1.613,0,0,1,2.281,0,1.613,1.613,0,0,1,0,2.281L1.14,7.7A1.608,1.608,0,0,1,0,8.17Z" transform="translate(1222.232 3084.108)" fill="#767777"/>
      <path id="線_4" data-name="線 4" d="M0,8.17A1.608,1.608,0,0,1-1.14,7.7a1.613,1.613,0,0,1,0-2.281L5.417-1.14a1.613,1.613,0,0,1,2.281,0,1.613,1.613,0,0,1,0,2.281L1.14,7.7A1.608,1.608,0,0,1,0,8.17Z" transform="translate(1226.174 3088.05)" fill="#767777"/>
      <path id="パス_6" data-name="パス 6" d="M1235.948,3102.615a8.191,8.191,0,0,1-5.831-2.416,1.613,1.613,0,1,1,2.281-2.28,5.02,5.02,0,0,0,7.1,0,5.04,5.04,0,0,0,1.16-5.289,1.613,1.613,0,0,1,.948-2.068,8.844,8.844,0,0,0-1.52-16.984,1.613,1.613,0,0,1-1.315-1.772,5.02,5.02,0,0,0-9.7-2.311,1.613,1.613,0,0,1-2.726.508c-.121-.138-.228-.253-.327-.352l0,0a7.553,7.553,0,0,0-5.376-2.228h0a7.6,7.6,0,0,0-5.376,12.981,1.613,1.613,0,0,1-2.281,2.281,10.83,10.83,0,0,1,7.657-18.488h0a10.749,10.749,0,0,1,6.493,2.16,8.253,8.253,0,0,1,12.486-.96,8.194,8.194,0,0,1,2.4,5.337,12.075,12.075,0,0,1,2.06,22.256,8.246,8.246,0,0,1-8.129,9.627Z" fill="#767777"/>
      <path id="線_5" data-name="線 5" d="M4.942,6.555A1.608,1.608,0,0,1,3.8,6.082L-1.14,1.14a1.613,1.613,0,0,1,0-2.281,1.613,1.613,0,0,1,2.281,0L6.082,3.8a1.613,1.613,0,0,1-1.14,2.753Z" transform="translate(1196.5 3097.386)" fill="#767777"/>
      <path id="線_6" data-name="線 6" d="M2.612,4.263a1.608,1.608,0,0,1-1.149-.481l-2.612-2.65a1.613,1.613,0,0,1,.016-2.281,1.613,1.613,0,0,1,2.281.016l2.612,2.65A1.613,1.613,0,0,1,2.612,4.263Z" transform="translate(1190.376 3103.51)" fill="#767777"/>
    </g>
  </g>
</svg>
