<svg xmlns="http://www.w3.org/2000/svg" width="80" height="80" viewBox="0 0 80 80">
  <g id="グループ_38" data-name="グループ 38" transform="translate(-73 -47)">
    <rect id="長方形_5" data-name="長方形 5" width="80" height="80" transform="translate(73 47)" fill="#fff"/>
    <g id="グループ_12" data-name="グループ 12" transform="translate(-1426.356 -3001.473)">
      <path id="パス_37" data-name="パス 37" d="M1567.425,3122.284h-55.362a5.248,5.248,0,0,1-5.243-5.242,1.312,1.312,0,0,1,2.623,0,2.622,2.622,0,0,0,2.62,2.619h55.362a2.622,2.622,0,0,0,2.619-2.619V3059.9a2.623,2.623,0,0,0-2.619-2.62h-55.362a2.623,2.623,0,0,0-2.62,2.62v48.17a1.312,1.312,0,0,1-2.623,0V3059.9a5.249,5.249,0,0,1,5.243-5.243h55.362a5.248,5.248,0,0,1,5.242,5.243v57.138A5.248,5.248,0,0,1,1567.425,3122.284Z" fill="#767777"/>
      <path id="パス_38" data-name="パス 38" d="M1539.744,3071.833a22.562,22.562,0,1,1-22.562,22.562A22.587,22.587,0,0,1,1539.744,3071.833Zm0,42.5a19.938,19.938,0,1,0-19.938-19.938A19.961,19.961,0,0,0,1539.744,3114.333Z" fill="#767777"/>
      <path id="パス_39" data-name="パス 39" d="M1539.744,3077.161a17.222,17.222,0,0,1,15.076,25.567,2.275,2.275,0,0,1-.192.335,17.377,17.377,0,0,1-6.156,6.183,17.223,17.223,0,0,1-24.461-21.872,2.352,2.352,0,0,1,.119-.263,17.253,17.253,0,0,1,15.614-9.951Zm12.708,24.435c.015-.032.03-.063.047-.093a14.6,14.6,0,1,0-26.009-13.246c-.011.023-.022.046-.035.069s-.022.056-.034.083a14.46,14.46,0,0,0-1.288,5.985,14.605,14.605,0,0,0,27.255,7.3Q1552.418,3101.645,1552.452,3101.6Z" fill="#767777"/>
      <path id="パス_40" data-name="パス 40" d="M1549.179,3102.852c-2.43,0-6.778-1.219-10.587-8.688a10.529,10.529,0,0,0-2.734-3.345,8.874,8.874,0,0,0-3.364-1.764,3.154,3.154,0,0,0-2.571.26,1.312,1.312,0,0,1-1.527-2.133,5.614,5.614,0,0,1,4.719-.676,11.375,11.375,0,0,1,4.4,2.278,13.175,13.175,0,0,1,3.416,4.188c1.774,3.478,3.872,5.822,6.068,6.777a4.9,4.9,0,0,0,3.044.39,1.312,1.312,0,0,1,.587,2.557A6.532,6.532,0,0,1,1549.179,3102.852Z" fill="#767777"/>
      <path id="パス_41" data-name="パス 41" d="M1515.973,3064.908a4.606,4.606,0,1,1-4.606,4.605A4.611,4.611,0,0,1,1515.973,3064.908Zm0,6.588a1.983,1.983,0,1,0-1.983-1.983A1.985,1.985,0,0,0,1515.973,3071.5Z" fill="#767777"/>
      <path id="パス_42" data-name="パス 42" d="M1524.948,3074.12a4.606,4.606,0,1,1,4.605-4.606A4.611,4.611,0,0,1,1524.948,3074.12Zm0-6.588a1.983,1.983,0,1,0,1.982,1.982A1.985,1.985,0,0,0,1524.948,3067.531Z" fill="#767777"/>
      <path id="線_21" data-name="線 21" d="M52.666,1.312H0A1.312,1.312,0,0,1-1.312,0,1.312,1.312,0,0,1,0-1.312H52.666A1.312,1.312,0,0,1,53.978,0,1.312,1.312,0,0,1,52.666,1.312Z" transform="translate(1508.297 3061.424)" fill="#767777"/>
    </g>
  </g>
</svg>
