<svg xmlns="http://www.w3.org/2000/svg" width="80" height="80" viewBox="0 0 80 80">
  <g id="グループ_50" data-name="グループ 50" transform="translate(-573 -149)">
    <rect id="長方形_22" data-name="長方形 22" width="80" height="80" transform="translate(573 149)" fill="#fff"/>
    <g id="グループ_30" data-name="グループ 30" transform="translate(-549.823 -3039.348)">
      <g id="グループ_28" data-name="グループ 28">
        <path id="パス_76" data-name="パス 76" d="M1189.165,3265.416h-52.509a1.567,1.567,0,0,1-1.564-1.468l-.11-1.729a1.568,1.568,0,0,1,1.465-1.664c.034,0,.067,0,.1,0a1.568,1.568,0,0,1,1.563,1.469l.017.261h49.566l2.635-41.53h-1.749a1.567,1.567,0,1,1,0-3.135H1192a1.567,1.567,0,0,1,1.564,1.667l-2.834,44.665A1.567,1.567,0,0,1,1189.165,3265.416Z" fill="#767777"/>
        <path id="パス_77" data-name="パス 77" d="M1136.266,3259.288a1.568,1.568,0,0,1-1.563-1.468l-2.445-38.537a1.567,1.567,0,0,1,1.564-1.667h48.891a1.567,1.567,0,1,1,0,3.135h-47.22l2.339,36.871a1.568,1.568,0,0,1-1.465,1.664C1136.333,3259.287,1136.3,3259.288,1136.266,3259.288Z" fill="#767777"/>
        <path id="線_38" data-name="線 38" d="M45.227,1.567H0A1.567,1.567,0,0,1-1.567,0,1.567,1.567,0,0,1,0-1.567H45.227A1.567,1.567,0,0,1,46.795,0,1.567,1.567,0,0,1,45.227,1.567Z" transform="translate(1140.297 3251.837)" fill="#767777"/>
        <path id="パス_78" data-name="パス 78" d="M1173.045,3249.28a1.567,1.567,0,0,1-1.568-1.567v-42.4a14.283,14.283,0,0,0-1.275-5.159,8.411,8.411,0,0,0-15.335,0,14.288,14.288,0,0,0-1.275,5.16v42.4a1.568,1.568,0,0,1-3.135,0V3205.3c0-.009,0-.017,0-.026a17.294,17.294,0,0,1,1.531-6.362,11.548,11.548,0,0,1,21.091,0,17.3,17.3,0,0,1,1.531,6.362c0,.009,0,.017,0,.026v42.417A1.567,1.567,0,0,1,1173.045,3249.28Z" fill="#767777"/>
        <path id="パス_79" data-name="パス 79" d="M1177.69,3220.677a1.567,1.567,0,0,1-1.568-1.567v-13.8a14.283,14.283,0,0,0-1.275-5.159,8.411,8.411,0,0,0-15.335,0,14.285,14.285,0,0,0-1.275,5.16v13.794a1.568,1.568,0,0,1-3.135,0V3205.3c0-.009,0-.017,0-.026a17.294,17.294,0,0,1,1.531-6.362,11.548,11.548,0,0,1,21.091,0,17.3,17.3,0,0,1,1.531,6.362c0,.009,0,.017,0,.026v13.814A1.567,1.567,0,0,1,1177.69,3220.677Z" fill="#767777"/>
        <path id="線_39" data-name="線 39" d="M11.735,1.567H0A1.567,1.567,0,0,1-1.567,0,1.567,1.567,0,0,1,0-1.567H11.735A1.567,1.567,0,0,1,13.3,0,1.567,1.567,0,0,1,11.735,1.567Z" transform="translate(1156.31 3236.073)" fill="#767777"/>
      </g>
      <g id="グループ_29" data-name="グループ 29">
        <path id="パス_80" data-name="パス 80" d="M1189.165,3265.38h-52.509a1.531,1.531,0,0,1-1.528-1.435l-.11-1.729a1.531,1.531,0,0,1,1.432-1.625c.033,0,.066,0,.1,0a1.532,1.532,0,0,1,1.527,1.435l.019.295h49.634l2.64-41.6h-1.787a1.531,1.531,0,0,1,0-3.063H1192a1.531,1.531,0,0,1,1.528,1.628l-2.834,44.665A1.532,1.532,0,0,1,1189.165,3265.38Z" fill="#767777"/>
        <path id="パス_81" data-name="パス 81" d="M1136.266,3259.252a1.531,1.531,0,0,1-1.527-1.435l-2.445-38.537a1.531,1.531,0,0,1,1.528-1.628h48.891a1.531,1.531,0,0,1,0,3.063h-47.259l2.342,36.909a1.532,1.532,0,0,1-1.432,1.625C1136.332,3259.251,1136.3,3259.252,1136.266,3259.252Z" fill="#767777"/>
        <path id="線_40" data-name="線 40" d="M45.227,1.531H0A1.531,1.531,0,0,1-1.531,0,1.531,1.531,0,0,1,0-1.531H45.227A1.531,1.531,0,0,1,46.758,0,1.531,1.531,0,0,1,45.227,1.531Z" transform="translate(1140.297 3251.837)" fill="#767777"/>
        <path id="パス_82" data-name="パス 82" d="M1173.045,3249.244a1.532,1.532,0,0,1-1.531-1.531v-42.4a14.323,14.323,0,0,0-1.277-5.172,8.447,8.447,0,0,0-15.4,0,14.321,14.321,0,0,0-1.277,5.173v42.4a1.531,1.531,0,1,1-3.063,0V3205.3c0-.008,0-.017,0-.025a17.253,17.253,0,0,1,1.528-6.347,11.512,11.512,0,0,1,21.026,0,17.254,17.254,0,0,1,1.528,6.347c0,.008,0,.017,0,.025v42.417A1.532,1.532,0,0,1,1173.045,3249.244Z" fill="#767777"/>
        <path id="パス_83" data-name="パス 83" d="M1177.69,3220.642a1.532,1.532,0,0,1-1.531-1.531v-13.8a14.323,14.323,0,0,0-1.277-5.172,8.447,8.447,0,0,0-15.4,0,14.321,14.321,0,0,0-1.277,5.173v13.795a1.531,1.531,0,1,1-3.063,0V3205.3c0-.008,0-.017,0-.025a17.253,17.253,0,0,1,1.528-6.347,11.512,11.512,0,0,1,21.026,0,17.254,17.254,0,0,1,1.528,6.347c0,.008,0,.017,0,.025v13.814A1.532,1.532,0,0,1,1177.69,3220.642Z" fill="#767777"/>
        <path id="線_41" data-name="線 41" d="M11.735,1.531H0A1.531,1.531,0,0,1-1.531,0,1.531,1.531,0,0,1,0-1.531H11.735A1.531,1.531,0,0,1,13.266,0,1.531,1.531,0,0,1,11.735,1.531Z" transform="translate(1156.31 3236.073)" fill="#767777"/>
      </g>
    </g>
  </g>
</svg>
