<svg xmlns="http://www.w3.org/2000/svg" width="80" height="80" viewBox="0 0 80 80">
  <g id="グループ_42" data-name="グループ 42" transform="translate(-473 -47)">
    <rect id="長方形_8" data-name="長方形 8" width="80" height="80" transform="translate(473 47)" fill="#fff"/>
    <g id="グループ_5" data-name="グループ 5" transform="translate(-711.88 -2903.793)">
      <path id="パス_13" data-name="パス 13" d="M1213.693,3018.827a32.187,32.187,0,0,1-9.572-1.374A23.919,23.919,0,0,1,1195.8,3013a20.829,20.829,0,0,1-7.444-15.533c0-.016,0-.032,0-.048l-.008-12.124a1.531,1.531,0,0,1,1.53-1.532h0a1.531,1.531,0,0,1,1.531,1.53l.008,12.1a18.38,18.38,0,0,0,1.758,7.37,17.481,17.481,0,0,0,4.591,5.89c4.005,3.354,9.49,5.112,15.918,5.112q.571,0,1.153-.019a31.42,31.42,0,0,0,8.172-1.576A50.1,50.1,0,0,0,1230.7,3011a6.653,6.653,0,0,1,3.925-.692,33.863,33.863,0,0,0,8.312.065,25.96,25.96,0,0,0,7.278-1.887,15.629,15.629,0,0,0,5.29-3.588,10,10,0,0,0,2.581-4.981c0-.023.008-.046.013-.069a3.754,3.754,0,0,1,.156-.593,1.588,1.588,0,0,1,3.094.319,3.96,3.96,0,0,1,.056.6,3.773,3.773,0,0,1-.027.568,1.69,1.69,0,0,1-.634,1.154,13.187,13.187,0,0,1-3,5.089,18.652,18.652,0,0,1-6.314,4.312,33.248,33.248,0,0,1-17.2,2.051,3.6,3.6,0,0,0-2.125.374c-4.514,2.34-11.4,4.906-17.177,5.09Q1214.311,3018.828,1213.693,3018.827Z" fill="#767777"/>
      <path id="パス_14" data-name="パス 14" d="M1213.677,3007.654a30.205,30.205,0,0,1-12.7-2.573,1.531,1.531,0,1,1,1.278-2.783,27.791,27.791,0,0,0,12.579,2.275,31.381,31.381,0,0,0,8.172-1.575,50.087,50.087,0,0,0,7.694-3.173,6.638,6.638,0,0,1,3.927-.691,31.576,31.576,0,0,0,13.92-1.18,18.674,18.674,0,0,0,5.263-2.708,11.588,11.588,0,0,0,3.357-3.855,1.531,1.531,0,1,1,2.716,1.415,14.617,14.617,0,0,1-4.225,4.882,21.716,21.716,0,0,1-6.123,3.165,34.7,34.7,0,0,1-15.3,1.318,3.6,3.6,0,0,0-2.125.372c-4.516,2.341-11.4,4.907-17.178,5.09Q1214.3,3007.654,1213.677,3007.654Z" fill="#767777"/>
      <path id="パス_15" data-name="パス 15" d="M1194.993,3000.571a1.53,1.53,0,0,1-1.276-.682c-1.727-2.592-3.18-4.767-3.195-4.789a1.522,1.522,0,0,1-.108-.19,21.441,21.441,0,0,1-2.057-8.616,17.141,17.141,0,0,1,2.112-8.8,22.614,22.614,0,0,1,6.151-7.056c5.2-4.033,12.368-6.643,20.185-7.35a87.752,87.752,0,0,1,13.353-.148l.748.036a1.531,1.531,0,0,1-.071,3.061l-.074,0-.751-.036a85.181,85.181,0,0,0-12.929.14c-7.241.655-13.841,3.041-18.584,6.72a19.583,19.583,0,0,0-5.334,6.092,14.116,14.116,0,0,0-1.745,7.241,18.415,18.415,0,0,0,1.713,7.3c.3.443,1.608,2.408,3.135,4.7a1.531,1.531,0,0,1-1.273,2.38Z" fill="#767777"/>
      <path id="パス_16" data-name="パス 16" d="M1258.528,2993.629a1.532,1.532,0,0,1-1.357-2.239,9.611,9.611,0,0,0,.926-2.68c.749-3.993-.968-8.678-4.712-12.856a28.063,28.063,0,0,0-14.911-8.588,1.531,1.531,0,1,1,.619-3,31.187,31.187,0,0,1,16.573,9.544c4.384,4.893,6.367,10.529,5.441,15.463a12.672,12.672,0,0,1-1.22,3.532A1.531,1.531,0,0,1,1258.528,2993.629Z" fill="#767777"/>
      <path id="パス_17" data-name="パス 17" d="M1217.088,3000.755a30.448,30.448,0,0,1-11.109-1.881,17.051,17.051,0,0,1-7.072-4.924,10.889,10.889,0,0,1-2.393-9.208,19.346,19.346,0,0,1,8.946-12.278,2.832,2.832,0,0,1,4.337,2.438v.025a3.75,3.75,0,0,0,1.818,2.869,9.078,9.078,0,0,0,5.117,1.44,9.206,9.206,0,0,0,5.117-1.44,3.751,3.751,0,0,0,1.818-2.869,2.967,2.967,0,0,0-.756-1.907,2.754,2.754,0,0,1-.368-2.957,2.811,2.811,0,0,1,2.563-1.635h.054a62.376,62.376,0,0,1,10.593.938,25.413,25.413,0,0,1,6.538,2.276,19.748,19.748,0,0,1,5.211,3.832,15.084,15.084,0,0,1,4.325,11.632,6.861,6.861,0,0,1-1.77,4.153,11.56,11.56,0,0,1-3.8,2.747,25,25,0,0,1-10.461,2.1c-.847,0-1.7-.036-2.526-.109a5.235,5.235,0,0,1-3.805-1.616,4.933,4.933,0,0,1-.706-3.893c.056-.488.15-1.3,0-1.475-.014-.016-.371-.393-2.134-.393a20.044,20.044,0,0,0-2.171.138c-2.613.29-4.286,1.005-4.588,1.962-.263.832.282,2.232,1.5,3.841a19.293,19.293,0,0,0,2.308,2.525,1.531,1.531,0,0,1-.523,2.6,18.907,18.907,0,0,1-6.015,1.069Zm-10.343-25.476a16.216,16.216,0,0,0-7.234,10.09,7.883,7.883,0,0,0,1.773,6.65,14.008,14.008,0,0,0,5.813,4,27.425,27.425,0,0,0,9.991,1.67h.033a13.944,13.944,0,0,0,2.616-.262c-.272-.315-.552-.659-.827-1.023-1.9-2.517-2.562-4.74-1.971-6.609a4.842,4.842,0,0,1,2.405-2.765,12.643,12.643,0,0,1,4.765-1.317,23.066,23.066,0,0,1,2.509-.157c2.153,0,3.557.45,4.42,1.417a4.661,4.661,0,0,1,.759,3.863c-.07.611-.157,1.371.035,1.607a2.807,2.807,0,0,0,1.7.5c.741.064,1.5.1,2.26.1a22.224,22.224,0,0,0,9.148-1.8c1.675-.794,3.7-2.188,3.831-4.323a12.094,12.094,0,0,0-3.478-9.323,16.69,16.69,0,0,0-4.407-3.232,22.351,22.351,0,0,0-5.751-2,57.738,57.738,0,0,0-9.532-.865,5.912,5.912,0,0,1,1.128,3.426,5.812,5.812,0,0,1-.891,3.073,7.777,7.777,0,0,1-2.25,2.316,12.851,12.851,0,0,1-13.712,0,7.776,7.776,0,0,1-2.25-2.316A5.853,5.853,0,0,1,1206.745,2975.28Z" fill="#767777"/>
    </g>
  </g>
</svg>
