<svg xmlns="http://www.w3.org/2000/svg" width="80" height="80" viewBox="0 0 80 80">
  <g id="グループ_39" data-name="グループ 39" transform="translate(-173 -47)">
    <rect id="長方形_6" data-name="長方形 6" width="80" height="80" transform="translate(173 47)" fill="#fff"/>
    <g id="グループ_18" data-name="グループ 18" transform="translate(-673.318 -2900.57)">
      <g id="グループ_17" data-name="グループ 17">
        <path id="パス_58" data-name="パス 58" d="M910.261,3013.637h-5.776a3.669,3.669,0,0,1-3.56-2.8H871.71a3.669,3.669,0,0,1-3.56,2.8h-5.776a3.669,3.669,0,0,1-3.564-2.816,9.45,9.45,0,0,1-8.885-9.423v-30.455a9.449,9.449,0,0,1,9.438-9.439h45.548a1.393,1.393,0,1,1,0,2.786H859.363a6.66,6.66,0,0,0-6.652,6.653V3001.4a6.66,6.66,0,0,0,6.652,6.653h.741a1.393,1.393,0,0,1,1.393,1.393v.53a.878.878,0,0,0,.877.877h5.776a.878.878,0,0,0,.877-.877v-.53a1.393,1.393,0,0,1,1.393-1.393h31.8a1.393,1.393,0,0,1,1.393,1.393v.53a.878.878,0,0,0,.877.877h5.776a.878.878,0,0,0,.877-.877v-.53a1.393,1.393,0,0,1,1.393-1.393h.74a6.661,6.661,0,0,0,6.654-6.653v-30.455a6.661,6.661,0,0,0-6.654-6.653h-1.653a1.393,1.393,0,1,1,0-2.786h1.653a9.45,9.45,0,0,1,9.44,9.439V3001.4a9.451,9.451,0,0,1-8.886,9.423A3.669,3.669,0,0,1,910.261,3013.637Z" fill="#767777"/>
        <path id="パス_59" data-name="パス 59" d="M863.214,2968.33h34.149a5.77,5.77,0,0,1,5.763,5.764v25.2a5.769,5.769,0,0,1-5.763,5.763H863.214a5.769,5.769,0,0,1-5.763-5.763v-25.2A5.77,5.77,0,0,1,863.214,2968.33Zm34.149,33.945a2.98,2.98,0,0,0,2.977-2.977v-25.2a2.981,2.981,0,0,0-2.977-2.978H863.214a2.981,2.981,0,0,0-2.977,2.978v25.2a2.98,2.98,0,0,0,2.977,2.977Z" fill="#767777"/>
        <path id="パス_60" data-name="パス 60" d="M911.04,2971.568a6.551,6.551,0,1,1-6.55,6.551A6.558,6.558,0,0,1,911.04,2971.568Zm0,10.316a3.765,3.765,0,1,0-3.764-3.765A3.77,3.77,0,0,0,911.04,2981.884Z" fill="#767777"/>
        <path id="パス_61" data-name="パス 61" d="M912.775,2997.69a1.393,1.393,0,0,1-.544-2.676,3.066,3.066,0,1,0-2.525-.067,1.393,1.393,0,1,1-1.22,2.5,5.849,5.849,0,1,1,4.833.127A1.389,1.389,0,0,1,912.775,2997.69Z" fill="#767777"/>
      </g>
      <path id="線_22" data-name="線 22" d="M52.491,1.393H0A1.393,1.393,0,0,1-1.393,0,1.393,1.393,0,0,1,0-1.393H52.491A1.393,1.393,0,0,1,53.884,0,1.393,1.393,0,0,1,52.491,1.393Z" transform="translate(860.104 3009.444)" fill="#767777"/>
      <path id="線_23" data-name="線 23" d="M6.354,8.073A1.389,1.389,0,0,1,5.345,7.64L-1.009.96A1.393,1.393,0,0,1-.96-1.009,1.393,1.393,0,0,1,1.009-.96L7.363,5.72A1.393,1.393,0,0,1,6.354,8.073Z" transform="translate(907.917 2975.023)" fill="#767777"/>
      <path id="長方形_10" data-name="長方形 10" d="M0-1.393H29A1.393,1.393,0,0,1,30.394,0V4.562A1.393,1.393,0,0,1,29,5.955H0A1.393,1.393,0,0,1-1.393,4.562V0A1.393,1.393,0,0,1,0-1.393ZM27.608,1.393H1.393V3.169H27.608Z" transform="translate(865.835 2969.723)" fill="#767777"/>
      <path id="線_24" data-name="線 24" d="M15.966,13.938a1.387,1.387,0,0,1-.86-.3L-.861,1.1A1.393,1.393,0,0,1-1.1-.861,1.393,1.393,0,0,1,.861-1.1L16.827,11.45a1.393,1.393,0,0,1-.861,2.488Z" transform="translate(859.644 2987.243)" fill="#767777"/>
      <path id="線_25" data-name="線 25" d="M13.023,11.626a1.387,1.387,0,0,1-.86-.3L-.861,1.1A1.393,1.393,0,0,1-1.1-.861,1.393,1.393,0,0,1,.861-1.1L13.884,9.138a1.393,1.393,0,0,1-.861,2.488Z" transform="translate(859.481 2981.215)" fill="#767777"/>
      <path id="線_26" data-name="線 26" d="M13.1,11.69a1.387,1.387,0,0,1-.86-.3L-.861,1.1A1.393,1.393,0,0,1-1.1-.861,1.393,1.393,0,0,1,.861-1.1L13.966,9.2A1.393,1.393,0,0,1,13.1,11.69Z" transform="translate(858.998 2993.362)" fill="#767777"/>
    </g>
  </g>
</svg>
