<svg xmlns="http://www.w3.org/2000/svg" width="80" height="80" viewBox="0 0 80 80">
  <g id="グループ_43" data-name="グループ 43" transform="translate(-573 -47)">
    <rect id="長方形_15" data-name="長方形 15" width="80" height="80" transform="translate(573 47)" fill="#fff"/>
    <g id="グループ_3" data-name="グループ 3" transform="translate(-715.745 -2892.873)">
      <path id="パス_7" data-name="パス 7" d="M1341.985,3016.205H1315.5a2.177,2.177,0,0,1-2.16-2l-3.906-52.642a1.355,1.355,0,0,1,.359-1.019,2.274,2.274,0,0,1,1.631-.55c.452-.042,1.092-.084,1.9-.126,1.353-.07,3.207-.141,5.513-.211,3.949-.119,7.955-.2,8.172-.2a1.332,1.332,0,0,1,0,2.665c-.181,0-3.754.067-7.611.18-4.114.121-6.18.225-7.217.3l3.78,50.94h25.567l3.815-51.419h-6.492a1.332,1.332,0,0,1,0-2.665h7.246a1.964,1.964,0,0,1,1.959,2.108l-3.905,52.629A2.183,2.183,0,0,1,1341.985,3016.205Z" fill="#767777"/>
      <path id="パス_8" data-name="パス 8" d="M1332.654,2972.937a1.332,1.332,0,0,1-1.332-1.332v-19.229a3.016,3.016,0,0,1,1.758-2.739l11.981-5.957a1.332,1.332,0,0,1,1.186,2.386l-12,5.968-.051.024a.349.349,0,0,0-.207.318V2971.6A1.332,1.332,0,0,1,1332.654,2972.937Z" fill="#767777"/>
      <path id="パス_9" data-name="パス 9" d="M1317.672,2975.506h22.146a2.245,2.245,0,0,1,1.651.722,2.43,2.43,0,0,1,.643,1.814l-2.048,32.18a1.94,1.94,0,0,1-1.911,1.835h-18.816a1.94,1.94,0,0,1-1.911-1.835l-2.049-32.181a2.433,2.433,0,0,1,.645-1.814A2.246,2.246,0,0,1,1317.672,2975.506Zm21.762,2.665h-21.38l1.988,31.223h17.405Z" fill="#767777"/>
    </g>
  </g>
</svg>
