<svg xmlns="http://www.w3.org/2000/svg" width="80" height="80" viewBox="0 0 80 80">
  <g id="グループ_40" data-name="グループ 40" transform="translate(-273 -47)">
    <rect id="長方形_7" data-name="長方形 7" width="80" height="80" transform="translate(273 47)" fill="#fff"/>
    <g id="グループ_24" data-name="グループ 24" transform="translate(-693.572 -2900.571)">
      <g id="グループ_23" data-name="グループ 23">
        <path id="合体_1" data-name="合体 1" d="M1007.292,3024.167a65.624,65.624,0,0,1-20.765-3,21.713,21.713,0,0,1-6.624-3.439,6.654,6.654,0,0,1-2.832-5.108v-31.363a1.6,1.6,0,0,1,1.6-1.6h57.25a1.6,1.6,0,0,1,1.6,1.6v31.363a6.654,6.654,0,0,1-2.832,5.108,21.713,21.713,0,0,1-6.624,3.439A65.628,65.628,0,0,1,1007.292,3024.167Zm-27.029-41.32v29.767a3.9,3.9,0,0,0,1.667,2.643,18.9,18.9,0,0,0,5.645,2.89,70.153,70.153,0,0,0,39.433,0,18.9,18.9,0,0,0,5.645-2.89,3.9,3.9,0,0,0,1.667-2.643v-29.767Z" fill="#767777"/>
        <path id="パス_62" data-name="パス 62" d="M987.1,2988.308c-5.209-1.8-8.433-4.3-8.433-7.057,0-2.732,3.165-5.208,8.288-7.007" fill="#fff"/>
        <path id="パス_62_-_アウトライン" data-name="パス 62 - アウトライン" d="M987.1,2989.9a1.588,1.588,0,0,1-.522-.088,21.822,21.822,0,0,1-6.659-3.444,6.02,6.02,0,0,1-.047-10.2,21.491,21.491,0,0,1,6.554-3.43,1.6,1.6,0,0,1,1.058,3.012,18.68,18.68,0,0,0-5.576,2.877,2.925,2.925,0,0,0,.034,5.276,19.018,19.018,0,0,0,5.68,2.9,1.6,1.6,0,0,1-.522,3.1Z" fill="#767777"/>
        <path id="パス_63" data-name="パス 63" d="M999.419,2971.676c2.5-.248,5.143-.381,7.873-.381,15.809,0,28.625,4.457,28.625,9.956s-12.816,9.957-28.625,9.957a77.1,77.1,0,0,1-11.11-.778" fill="#fff"/>
        <path id="パス_63_-_アウトライン" data-name="パス 63 - アウトライン" d="M1007.292,2992.8a78.485,78.485,0,0,1-11.342-.795,1.6,1.6,0,1,1,.463-3.158,75.293,75.293,0,0,0,10.878.761,62.4,62.4,0,0,0,19.717-2.828,18.907,18.907,0,0,0,5.645-2.89,2.928,2.928,0,0,0,0-5.286,18.9,18.9,0,0,0-5.645-2.89,62.407,62.407,0,0,0-19.717-2.827c-2.621,0-5.217.126-7.716.373-.054.005-.107.008-.159.008a1.6,1.6,0,0,1-.156-3.184c2.6-.258,5.3-.389,8.03-.389a65.625,65.625,0,0,1,20.765,3,21.706,21.706,0,0,1,6.624,3.439,6.023,6.023,0,0,1,0,10.217,21.712,21.712,0,0,1-6.624,3.44A65.62,65.62,0,0,1,1007.292,2992.8Z" fill="#767777"/>
        <path id="パス_64" data-name="パス 64" d="M1007.292,3015.206a65.62,65.62,0,0,1-20.765-3,21.713,21.713,0,0,1-6.624-3.44,6.654,6.654,0,0,1-2.832-5.108,1.6,1.6,0,0,1,3.192,0,3.9,3.9,0,0,0,1.667,2.643,18.906,18.906,0,0,0,5.645,2.89,70.148,70.148,0,0,0,39.433,0,18.907,18.907,0,0,0,5.645-2.89,3.9,3.9,0,0,0,1.667-2.643,1.6,1.6,0,0,1,3.192,0,6.654,6.654,0,0,1-2.832,5.108,21.712,21.712,0,0,1-6.624,3.44A65.62,65.62,0,0,1,1007.292,3015.206Z" fill="#767777"/>
        <path id="パス_65" data-name="パス 65" d="M1007.292,3002.262a65.626,65.626,0,0,1-20.765-3,21.707,21.707,0,0,1-6.624-3.439,6.653,6.653,0,0,1-2.832-5.108,1.6,1.6,0,0,1,3.192,0,3.9,3.9,0,0,0,1.667,2.643,18.9,18.9,0,0,0,5.645,2.89,70.16,70.16,0,0,0,39.433,0,18.9,18.9,0,0,0,5.645-2.89,3.9,3.9,0,0,0,1.667-2.643,1.6,1.6,0,0,1,3.192,0,6.653,6.653,0,0,1-2.832,5.108,21.706,21.706,0,0,1-6.624,3.439A65.626,65.626,0,0,1,1007.292,3002.262Z" fill="#767777"/>
        <path id="パス_66" data-name="パス 66" d="M996.34,2981.5c9.567-1.594,25.642-.595,33.159,4.644" fill="#fff"/>
        <path id="パス_66_-_アウトライン" data-name="パス 66 - アウトライン" d="M1029.5,2987.74a1.588,1.588,0,0,1-.911-.287c-3.189-2.222-8.544-3.859-15.08-4.608a64.7,64.7,0,0,0-16.9.229,1.6,1.6,0,1,1-.525-3.148,68.027,68.027,0,0,1,17.792-.252c9.038,1.036,13.984,3.378,16.542,5.161a1.6,1.6,0,0,1-.914,2.906Z" fill="#767777"/>
        <g id="グループ_22" data-name="グループ 22">
          <ellipse id="楕円形_4" data-name="楕円形 4" cx="21.955" cy="5.688" rx="21.955" ry="5.688" transform="matrix(0.967, -0.253, 0.253, 0.967, 977.228, 2975.749)" fill="#fff"/>
          <path id="楕円形_4_-_アウトライン" data-name="楕円形 4 - アウトライン" d="M21.955-1.6A66.4,66.4,0,0,1,37.88.121a19.336,19.336,0,0,1,5.138,1.992c1.651,1.011,2.488,2.214,2.488,3.575s-.837,2.564-2.488,3.575a19.336,19.336,0,0,1-5.138,1.992,66.4,66.4,0,0,1-15.925,1.717A66.4,66.4,0,0,1,6.03,11.255,19.336,19.336,0,0,1,.892,9.263C-.759,8.252-1.6,7.049-1.6,5.688S-.759,3.124.892,2.113A19.336,19.336,0,0,1,6.03.121,66.4,66.4,0,0,1,21.955-1.6ZM42.311,5.688c-.1-.3-1.27-1.508-5.648-2.582A64.585,64.585,0,0,0,21.955,1.6,64.585,64.585,0,0,0,7.247,3.106C2.868,4.179,1.694,5.391,1.6,5.688c.1.3,1.27,1.508,5.648,2.582a64.585,64.585,0,0,0,14.708,1.51A64.585,64.585,0,0,0,36.663,8.27C41.042,7.2,42.215,5.985,42.311,5.688Z" transform="matrix(0.967, -0.253, 0.253, 0.967, 977.228, 2975.749)" fill="#767777"/>
          <g id="グループ_21" data-name="グループ 21">
            <g id="グループ_19" data-name="グループ 19">
              <path id="パス_67" data-name="パス 67" d="M999.815,2955.726c2.187-2.8,4.284-4.812,8.856-1.238s6.505,8.74,4.318,11.537-7.666,2.168-12.238-1.406S997.627,2958.523,999.815,2955.726Z" fill="#fff"/>
              <path id="パス_67_-_アウトライン" data-name="パス 67 - アウトライン" d="M1004.365,2950.767a9.005,9.005,0,0,1,5.417,2.3,16.242,16.242,0,0,1,5.272,6.849,9.138,9.138,0,0,1,.627,3.735,6.207,6.207,0,0,1-1.271,3.485,6.9,6.9,0,0,1-5.615,2.44,15.487,15.487,0,0,1-9.155-3.536c-2.583-2.02-3.792-4.061-3.694-6.24.09-2.013,1.311-3.732,2.448-5.186a14.505,14.505,0,0,1,2.385-2.535A5.747,5.747,0,0,1,1004.365,2950.767Zm4.43,15.2a3.466,3.466,0,0,0,2.773-1.054c.647-.827.686-2.188.107-3.734a12.79,12.79,0,0,0-4.115-5.271,5.854,5.854,0,0,0-3.2-1.535c-1.007,0-1.91.9-3.129,2.462a6.5,6.5,0,0,0-1.686,3.125c-.041.916.737,2,2.312,3.236A12.031,12.031,0,0,0,1008.795,2965.968Z" fill="#767777"/>
              <path id="楕円形_5" data-name="楕円形 5" d="M1.608-1.8A3.134,3.134,0,0,1,4.384.27,7.905,7.905,0,0,1,5.02,3.5a7.905,7.905,0,0,1-.636,3.226A3.134,3.134,0,0,1,1.608,8.8,3.134,3.134,0,0,1-1.168,6.722,7.905,7.905,0,0,1-1.8,3.5,7.905,7.905,0,0,1-1.168.27,3.134,3.134,0,0,1,1.608-1.8Z" transform="matrix(0.616, -0.788, 0.788, 0.616, 1004.641, 2961.628)" fill="#767777"/>
            </g>
            <g id="グループ_20" data-name="グループ 20">
              <path id="パス_68" data-name="パス 68" d="M1004.365,2950.975a8.811,8.811,0,0,1,5.289,2.256,16.03,16.03,0,0,1,5.205,6.758,8.933,8.933,0,0,1,.614,3.65,5.92,5.92,0,0,1-1.227,3.369,6.694,6.694,0,0,1-5.452,2.36,15.277,15.277,0,0,1-9.027-3.492c-2.527-1.975-3.709-3.959-3.614-6.067.088-1.951,1.236-3.573,2.4-5.067a14.323,14.323,0,0,1,2.349-2.5A5.472,5.472,0,0,1,1004.365,2950.975Zm4.43,15.2a3.661,3.661,0,0,0,2.937-1.134c.407-.521.966-1.723.138-3.935a13,13,0,0,0-4.182-5.362,6.031,6.031,0,0,0-3.323-1.579c-1.1,0-2,.893-3.292,2.542a6.868,6.868,0,0,0-1.73,3.244c-.067,1.487,1.784,2.934,2.391,3.409A12.243,12.243,0,0,0,1008.795,2966.176Z" fill="#767777"/>
              <path id="楕円形_6" data-name="楕円形 6" d="M1.608-1.6A2.936,2.936,0,0,1,4.195.357,7.694,7.694,0,0,1,4.812,3.5a7.694,7.694,0,0,1-.617,3.139A2.936,2.936,0,0,1,1.608,8.588,2.936,2.936,0,0,1-.979,6.635,7.694,7.694,0,0,1-1.6,3.5,7.694,7.694,0,0,1-.979.357,2.936,2.936,0,0,1,1.608-1.6Zm0,5.478c.008-.123.012-.252.012-.387s0-.264-.012-.387C1.6,3.232,1.6,3.361,1.6,3.5S1.6,3.76,1.608,3.882Z" transform="matrix(0.616, -0.788, 0.788, 0.616, 1004.641, 2961.628)" fill="#767777"/>
            </g>
          </g>
          <path id="パス_69" data-name="パス 69" d="M1004.3,2980.5s11.6-2.7,4.86-15.433c-3.546-6.69,15.33-4.687,12.605,5.143C1020.052,2976.414,1004.3,2980.5,1004.3,2980.5Z" fill="#fff"/>
          <path id="パス_69_-_アウトライン" data-name="パス 69 - アウトライン" d="M1004.3,2982.1a1.6,1.6,0,0,1-.4-3.141l.18-.048c.662-.192,3.884-1.261,5.1-4.129.98-2.308.5-5.324-1.43-8.963a3.942,3.942,0,0,1-.142-4.078c.845-1.4,2.648-2.177,5.077-2.177,3.076,0,7.179,1.314,9.412,4.25a7.552,7.552,0,0,1,1.206,6.828,9.591,9.591,0,0,1-3.673,4.8,29.749,29.749,0,0,1-5.728,3.314,63.355,63.355,0,0,1-8.961,3.227c-.156.045-.253.068-.279.074A1.6,1.6,0,0,1,1004.3,2982.1Zm8.386-19.345c-1.429,0-2.2.387-2.342.631-.071.119-.029.454.227.938,2.4,4.531,2.921,8.469,1.548,11.705l-.016.038q.237-.105.474-.213c4.408-2.014,7.125-4.168,7.651-6.066a4.359,4.359,0,0,0-.671-4.043C1018.068,2963.783,1014.974,2962.756,1012.69,2962.756Z" fill="#767777"/>
        </g>
        <path id="線_27" data-name="線 27" d="M0,11.391a1.588,1.588,0,0,1-.891-.273A1.6,1.6,0,0,1-1.323,8.9L5.283-.892A1.6,1.6,0,0,1,7.5-1.323,1.6,1.6,0,0,1,7.929.892L1.323,10.687A1.594,1.594,0,0,1,0,11.391Z" transform="translate(1018.913 3002.089)" fill="#767777"/>
        <path id="線_28" data-name="線 28" d="M0,13.807a1.588,1.588,0,0,1-.891-.273,1.6,1.6,0,0,1-.431-2.216L6.912-.892a1.6,1.6,0,0,1,2.216-.431A1.6,1.6,0,0,1,9.558.892L1.323,13.1A1.594,1.594,0,0,1,0,13.807Z" transform="translate(1012.498 2999.948)" fill="#767777"/>
        <path id="線_29" data-name="線 29" d="M0,7.4a1.588,1.588,0,0,1-.891-.273,1.6,1.6,0,0,1-.431-2.216l3.912-5.8A1.6,1.6,0,0,1,4.8-1.323,1.6,1.6,0,0,1,5.235.892l-3.912,5.8A1.594,1.594,0,0,1,0,7.4Z" transform="translate(1026.256 3004.092)" fill="#767777"/>
      </g>
    </g>
  </g>
</svg>
