<svg xmlns="http://www.w3.org/2000/svg" width="80" height="80" viewBox="0 0 80 80">
  <g id="グループ_41" data-name="グループ 41" transform="translate(-373 -47)">
    <rect id="長方形_9" data-name="長方形 9" width="80" height="80" transform="translate(373 47)" fill="#fff"/>
    <g id="グループ_4" data-name="グループ 4" transform="translate(-707.67 -2899.57)">
      <path id="パス_10" data-name="パス 10" d="M1131.943,3016.256h-22.532a11.559,11.559,0,0,1-6.13-2,24.747,24.747,0,0,1-5.656-5.13,47.943,47.943,0,0,1-8.634-16.648,2.98,2.98,0,0,1,2.855-3.831H1149.5a2.981,2.981,0,0,1,2.852,3.839c-2.116,7.037-5.028,12.931-8.423,17.046C1140.3,3013.932,1136.155,3016.256,1131.943,3016.256Zm-39.76-24.376a44.5,44.5,0,0,0,7.921,15.178c3.167,3.792,6.559,5.968,9.307,5.968h22.532c6.643,0,13.224-8.092,17.216-21.146Z" fill="#767777"/>
      <path id="パス_11" data-name="パス 11" d="M1093.213,2985.465a1.616,1.616,0,0,1-1.548-2.08,6.587,6.587,0,0,1,.4-1.026,7.821,7.821,0,0,1-.671-3.151,7.909,7.909,0,0,1,1.724-4.909,9.157,9.157,0,0,1,2.9-2.42,10.462,10.462,0,0,1-.191-1.991,10.917,10.917,0,0,1,3.509-7.936,13.373,13.373,0,0,1,6.977-3.436,9.624,9.624,0,0,1,3.234-5.7,11.781,11.781,0,0,1,7.807-2.859,12.137,12.137,0,0,1,5.454,1.281,11.029,11.029,0,0,1,3.163,2.387,9.652,9.652,0,0,1,3.183-.54,9.309,9.309,0,0,1,6.068,2.183,7.72,7.72,0,0,1,2.613,4.371,12.763,12.763,0,0,1,5.349,3.741,10.719,10.719,0,0,1,2.576,6.941q0,.26-.014.523a6.4,6.4,0,0,1,2.419,1.2,6.944,6.944,0,0,1,2.116,4.06,5.839,5.839,0,0,1-.249,3.513,5.314,5.314,0,0,1-1.025,1.6,7.838,7.838,0,0,1,.538,2.582,1.615,1.615,0,0,1-1.557,1.671h-.058a1.615,1.615,0,0,1-1.613-1.558,4.6,4.6,0,0,0-.691-2.266,1.615,1.615,0,0,1,.5-2.2,2.3,2.3,0,0,0,1-2.653,4.1,4.1,0,0,0-1.043-2.276,5.014,5.014,0,0,0-1.858-.742c-.224-.061-.456-.124-.7-.2a1.615,1.615,0,0,1-1.132-1.859,7.325,7.325,0,0,0,.138-1.4,7.53,7.53,0,0,0-1.823-4.868,9.838,9.838,0,0,0-4.8-3.051,1.615,1.615,0,0,1-1.167-1.493,4.413,4.413,0,0,0-1.619-3.187,6.079,6.079,0,0,0-3.967-1.406,6.332,6.332,0,0,0-2.924.708,1.615,1.615,0,0,1-2.073-.508,7.576,7.576,0,0,0-2.806-2.4,8.889,8.889,0,0,0-4-.933c-4.361,0-7.917,3.041-7.928,6.778a1.615,1.615,0,0,1-1.5,1.606,10.293,10.293,0,0,0-6.365,2.722,7.718,7.718,0,0,0-2.506,5.6,7.267,7.267,0,0,0,.4,2.379,1.615,1.615,0,0,1-.987,2.05,5.359,5.359,0,0,0-3.848,4.891,4.6,4.6,0,0,0,.672,2.382,1.615,1.615,0,0,1-.077,1.77,3.2,3.2,0,0,0-.464.953A1.616,1.616,0,0,1,1093.213,2985.465Z" fill="#767777"/>
      <path id="線_7" data-name="線 7" d="M23.172,1.615H0A1.615,1.615,0,0,1-1.615,0,1.615,1.615,0,0,1,0-1.615H23.172A1.615,1.615,0,0,1,24.787,0,1.615,1.615,0,0,1,23.172,1.615Z" transform="translate(1109.091 3021.57)" fill="#767777"/>
      <path id="パス_12" data-name="パス 12" d="M1109.859,3009.019a1.609,1.609,0,0,1-.738-.18c-2.756-1.419-5.439-4.213-7.76-8.08a1.615,1.615,0,1,1,2.77-1.663c1.983,3.3,4.28,5.743,6.47,6.871a1.615,1.615,0,0,1-.741,3.051Z" fill="#767777"/>
    </g>
  </g>
</svg>
