<svg xmlns="http://www.w3.org/2000/svg" width="80" height="80" viewBox="0 0 80 80">
  <g id="グループ_8" data-name="グループ 8" transform="translate(-324 -718.65)">
    <rect id="長方形_68" data-name="長方形 68" width="80" height="80" transform="translate(324 718.65)" fill="#fff"/>
    <path id="パス_353" data-name="パス 353" d="M31.355,482.024H48.644a1.4,1.4,0,0,1,1.364,1.086l4.348,18.907a3.363,3.363,0,0,1-3.278,4.118H28.921a3.364,3.364,0,0,1-3.278-4.118l4.348-18.907A1.4,1.4,0,0,1,31.355,482.024Zm16.174,2.8H32.47l-4.1,17.821a.564.564,0,0,0,.55.69H51.078a.563.563,0,0,0,.55-.689Z" transform="translate(324 282)" fill="#626464"/>
    <path id="パス_354" data-name="パス 354" d="M54.65,510.55H25.35a4.15,4.15,0,0,1-4.037-5.116l10.812-45.2a1.4,1.4,0,0,1,1.362-1.074H46.513a1.4,1.4,0,0,1,1.362,1.074l10.812,45.2a4.15,4.15,0,0,1-4.037,5.116ZM34.592,461.96,24.037,506.086a1.35,1.35,0,0,0,1.313,1.664h29.3a1.35,1.35,0,0,0,1.313-1.664L45.408,461.96Z" transform="translate(324 282)" fill="#626464"/>
    <path id="パス_355" data-name="パス 355" d="M24.963,442.75H55.038a1.4,1.4,0,0,1,1.4,1.4v3.492a1.4,1.4,0,0,1-1.4,1.4H52.281l-4.4,8.839a1.4,1.4,0,0,1-1.253.776H33.376a1.4,1.4,0,0,1-1.253-.776l-4.4-8.839H24.963a1.4,1.4,0,0,1-1.4-1.4V444.15A1.4,1.4,0,0,1,24.963,442.75Zm28.675,2.8H26.363v.692h2.223a1.4,1.4,0,0,1,1.253.776l4.4,8.839H45.758l4.4-8.839a1.4,1.4,0,0,1,1.253-.776h2.223Z" transform="translate(324 282)" fill="#626464"/>
    <path id="線_121" data-name="線 121" d="M12.668,1.4H0A1.4,1.4,0,0,1-1.4,0,1.4,1.4,0,0,1,0-1.4H12.668a1.4,1.4,0,0,1,1.4,1.4A1.4,1.4,0,0,1,12.668,1.4Z" transform="translate(355.701 782.597)" fill="#626464"/>
    <path id="楕円形_1" data-name="楕円形 1" d="M.393-1.4A1.8,1.8,0,0,1,2.186.393,1.8,1.8,0,0,1,.393,2.186,1.8,1.8,0,0,1-1.4.393,1.8,1.8,0,0,1,.393-1.4Z" transform="translate(371.513 782.204)" fill="#626464"/>
  </g>
</svg>
