<svg xmlns="http://www.w3.org/2000/svg" width="80" height="80" viewBox="0 0 80 80">
  <g id="グループ_45" data-name="グループ 45" transform="translate(-773 -47)">
    <rect id="長方形_17" data-name="長方形 17" width="80" height="80" transform="translate(773 47)" fill="#fff"/>
    <g id="グループ_7" data-name="グループ 7" transform="translate(-718.527 -2895.681)">
      <path id="パス_21" data-name="パス 21" d="M1508.863,2966a1.455,1.455,0,0,1-.332-.039,17.847,17.847,0,0,1-6.053-3.2,28.03,28.03,0,0,1-4.368-4.054,1.446,1.446,0,0,1,2.232-1.838c1.538,1.867,5.811,5.562,8.851,6.278a1.446,1.446,0,0,1-.33,2.854Z" fill="#767777"/>
      <path id="パス_22" data-name="パス 22" d="M1505.794,2967.875a24.01,24.01,0,0,1-4.374-.437c-1.231-.232-4.258-.9-5.788-2.109a1.446,1.446,0,1,1,1.791-2.271,12.663,12.663,0,0,0,4.533,1.538,16.505,16.505,0,0,0,5.872.21,1.446,1.446,0,1,1,.6,2.83A12.97,12.97,0,0,1,1505.794,2967.875Z" fill="#767777"/>
      <path id="パス_23" data-name="パス 23" d="M1551.833,3005.252a1.446,1.446,0,0,1-.867-2.6,52.959,52.959,0,0,0,7.05-6.4c3.332-3.647,5.435-7.118,6.251-10.316a21.754,21.754,0,0,0,.527-9.319,20.491,20.491,0,0,0-4.958-9.885c-2.489-2.891-7.062-5.374-12.546-6.811a51.629,51.629,0,0,0-21.354-.668,43.994,43.994,0,0,0-9.37,2.71c-3.044,1.277-5.3,2.738-6.192,4.008a1.447,1.447,0,0,0-.373,1.15,13.379,13.379,0,0,0,1.935,4.982,11.345,11.345,0,0,0,3.254,3.249,14.19,14.19,0,0,0,10.782,1.768,67,67,0,0,1,12.1-1.964c4.688-.18,8.456.727,11.517,2.767a11.236,11.236,0,0,1,5.082,7.956c.5,3.569-.524,7.612-3.036,12.018a24.3,24.3,0,0,1-2.584,3.408,1.446,1.446,0,0,1-2.188-1.891,22.49,22.49,0,0,0,2.26-2.95c2.188-3.837,3.092-7.264,2.684-10.185a8.26,8.26,0,0,0-1.265-3.421,8.971,8.971,0,0,0-2.556-2.529c-2.537-1.691-5.745-2.439-9.8-2.284a64.715,64.715,0,0,0-11.568,1.893,17.878,17.878,0,0,1-6.619.239,15.892,15.892,0,0,1-6.4-2.41,14.974,14.974,0,0,1-6.444-10.124,4.326,4.326,0,0,1,.85-3.333c1.555-2.216,4.9-3.949,7.44-5.013a47.024,47.024,0,0,1,10.013-2.9,54.527,54.527,0,0,1,22.563.724c6.126,1.605,11.1,4.348,14,7.721a26.488,26.488,0,0,1,3.774,5.651,21.446,21.446,0,0,1,1.839,5.613,24.569,24.569,0,0,1-.571,10.541c-.934,3.664-3.262,7.551-6.918,11.552a56,56,0,0,1-7.453,6.765A1.439,1.439,0,0,1,1551.833,3005.252Z" fill="#767777"/>
      <path id="パス_24" data-name="パス 24" d="M1544.391,3002.36a1.445,1.445,0,0,1,1.067.469l3.761,4.106a1.446,1.446,0,0,1,.3,1.464l-2.229,6.228a2.573,2.573,0,0,1-4.886-.129l-.9-3-3.575-1.067a2.572,2.572,0,0,1-.425-4.76l6.239-3.157A1.444,1.444,0,0,1,1544.391,3002.36Zm2.106,5.886-2.431-2.655-4.546,2.3,3.555,1.061a1.446,1.446,0,0,1,.972.97l.843,2.815Z" fill="#767777"/>
      <path id="パス_25" data-name="パス 25" d="M1523.143,2987.888a1.446,1.446,0,0,1-1.43-1.242,12.25,12.25,0,0,1,.988-5.959,9.458,9.458,0,0,0,.447-1.42,1.446,1.446,0,1,1,2.863.409,10.6,10.6,0,0,1-.59,2,9.768,9.768,0,0,0-.845,4.566,1.446,1.446,0,0,1-1.227,1.636A1.48,1.48,0,0,1,1523.143,2987.888Z" fill="#767777"/>
      <path id="パス_26" data-name="パス 26" d="M1529.619,2986.328a1.446,1.446,0,0,1-1.43-1.242,12.251,12.251,0,0,1,.989-5.959,9.478,9.478,0,0,0,.447-1.421,1.446,1.446,0,1,1,2.863.409,10.6,10.6,0,0,1-.59,2,9.772,9.772,0,0,0-.845,4.567,1.446,1.446,0,0,1-1.227,1.636A1.48,1.48,0,0,1,1529.619,2986.328Z" fill="#767777"/>
      <path id="パス_27" data-name="パス 27" d="M1536.221,2985.474a1.446,1.446,0,0,1-1.429-1.241,12.24,12.24,0,0,1,.988-5.96,9.461,9.461,0,0,0,.447-1.421,1.446,1.446,0,0,1,2.863.409,10.6,10.6,0,0,1-.591,2,9.76,9.76,0,0,0-.844,4.566,1.446,1.446,0,0,1-1.226,1.636A1.484,1.484,0,0,1,1536.221,2985.474Z" fill="#767777"/>
      <path id="パス_28" data-name="パス 28" d="M1538.724,2969.129a1.446,1.446,0,0,1-1.443-1.381c-.123-2.745.911-5.787,1.953-6.906a1.446,1.446,0,1,1,2.116,1.971,8.951,8.951,0,0,0-1.181,4.806,1.446,1.446,0,0,1-1.38,1.509Z" fill="#767777"/>
      <path id="パス_29" data-name="パス 29" d="M1546.432,2970.244a1.446,1.446,0,0,1-1.443-1.379,12.2,12.2,0,0,1,1.752-6.26,1.446,1.446,0,0,1,2.433,1.563,9.506,9.506,0,0,0-1.3,4.564,1.446,1.446,0,0,1-1.378,1.511Z" fill="#767777"/>
      <circle id="楕円形_2" data-name="楕円形 2" cx="2.21" cy="2.21" r="2.21" transform="translate(1520.442 2963.721)" fill="#767777"/>
    </g>
  </g>
</svg>
