<svg xmlns="http://www.w3.org/2000/svg" width="80" height="80" viewBox="0 0 80 80">
  <g id="グループ_49" data-name="グループ 49" transform="translate(-673 -149)">
    <rect id="長方形_27" data-name="長方形 27" width="80" height="80" transform="translate(673 149)" fill="#fff"/>
    <g id="グループ_31" data-name="グループ 31" transform="translate(-563.268 -3041.234)">
      <path id="パス_84" data-name="パス 84" d="M1244.69,3224.7a1.437,1.437,0,0,1-1.345-.93,5.743,5.743,0,0,1,3.019-6.942,10.638,10.638,0,0,1,1.271-5.573,9.412,9.412,0,0,1,5.089-4.029,8.8,8.8,0,0,1,1.609-3.006,9.816,9.816,0,0,1,9.64-3.318,10.049,10.049,0,0,1,6.559-3.886,7.792,7.792,0,0,1,5.492,1.123,9.954,9.954,0,0,1,2.542-1.223,9.247,9.247,0,0,1,3.84-.367,11.307,11.307,0,0,1,6.684,3.428,9.379,9.379,0,0,1,7.472,2.794,12.175,12.175,0,0,1,2.084,2.776,10.1,10.1,0,0,1,2.947,1.342,11.125,11.125,0,0,1,4.717,7.655,1.437,1.437,0,0,1-2.829.5c-1.068-6-5.722-6.776-6-6.816a1.385,1.385,0,0,1-1.142-.871,9.027,9.027,0,0,0-1.866-2.609,6.551,6.551,0,0,0-5.734-1.848,1.434,1.434,0,0,1-1.266-.456,8.752,8.752,0,0,0-5.394-3.043,6.766,6.766,0,0,0-5.175,1.658,1.436,1.436,0,0,1-1.937-.087,4.665,4.665,0,0,0-4.029-1.115,7.011,7.011,0,0,0-5.106,3.449,1.438,1.438,0,0,1-1.847.624,6.4,6.4,0,0,0-5.273.382,6.292,6.292,0,0,0-3.386,4.306,1.437,1.437,0,0,1-.964,1.074,7.106,7.106,0,0,0-4.243,3,8.808,8.808,0,0,0-.851,5.055,1.437,1.437,0,0,1-1.115,1.489,2.736,2.736,0,0,0-1.856,1.4,2.781,2.781,0,0,0-.266,2.116,1.438,1.438,0,0,1-1.344,1.944Z" fill="#767777"/>
      <path id="パス_85" data-name="パス 85" d="M1276.929,3264.171q-.148,0-.292-.011c-2.453-.189-5.633-2.386-9.722-6.716-2.208-2.338-4.03-4.619-4.8-5.6a19.185,19.185,0,0,1-5.749-1.8,22.05,22.05,0,0,1-5.656-3.981,26.406,26.406,0,0,1-5.307-7.427,28.79,28.79,0,0,1-1.994-4.86,16.081,16.081,0,0,1-.579-4.778,1.437,1.437,0,0,1,1.436-1.417h.02a1.437,1.437,0,0,1,1.417,1.457c-.042,3.04.561,4.826,2.28,8.334a23.593,23.593,0,0,0,4.655,6.558,19.213,19.213,0,0,0,4.861,3.469,15.446,15.446,0,0,0,5.443,1.641,1.415,1.415,0,0,1,1.085.573c.022.029,2.228,2.955,4.991,5.879,3.37,3.566,6.227,5.682,7.836,5.806.023,0,.049,0,.078,0,.673,0,2.994-.588,8.571-6.79,3.289-3.658,6.026-7.421,6.053-7.459a1.4,1.4,0,0,1,1.018-.586,10.87,10.87,0,0,0,3.191-1.054,15.917,15.917,0,0,0,6.2-5.587l.019-.028a31.683,31.683,0,0,0,5.5-11.9,14.824,14.824,0,0,0-.438-8,1.437,1.437,0,1,1,2.69-1.012,17.673,17.673,0,0,1,.57,9.561,34.475,34.475,0,0,1-5.955,12.986,17.55,17.55,0,0,1-10.819,7.781c-.854,1.147-3.151,4.167-5.876,7.2a46.723,46.723,0,0,1-5.435,5.282C1280.127,3263.358,1278.392,3264.171,1276.929,3264.171Z" fill="#767777"/>
      <path id="パス_86" data-name="パス 86" d="M1281.692,3261.882a1.437,1.437,0,1,1,0-2.874c2.484,0,9.373-.127,11.4-.706.043-.012.066-.019.115-.113a4.552,4.552,0,0,0-.019-2.717,16.308,16.308,0,0,0-.565-2.106,1.437,1.437,0,0,1,2.7-.972,18.971,18.971,0,0,1,.673,2.487,7.164,7.164,0,0,1-.235,4.617,3.007,3.007,0,0,1-1.883,1.566C1291.1,3261.859,1282.647,3261.882,1281.692,3261.882Z" fill="#767777"/>
      <path id="パス_87" data-name="パス 87" d="M1267.3,3262.033a23.562,23.562,0,0,1-4.038-.3,6.259,6.259,0,0,1-4.1-2.06,4.23,4.23,0,0,1-.726-3.267,14.852,14.852,0,0,1,.8-2.843l.1-.288a1.437,1.437,0,1,1,2.71.957l-.1.294c-.484,1.362-.985,2.769-.5,3.406.383.5,2.075,1.616,9.495,1.076a1.437,1.437,0,1,1,.208,2.866C1269.725,3261.981,1268.446,3262.033,1267.3,3262.033Z" fill="#767777"/>
      <path id="パス_88" data-name="パス 88" d="M1276.019,3212.936h-.04a1.437,1.437,0,0,1-1.4-1.475c.013-.479.006-.718,0-.971-.009-.3-.018-.605,0-1.226a1.437,1.437,0,0,1,1.435-1.391h.047a1.437,1.437,0,0,1,1.39,1.482c-.017.532-.01.783,0,1.048s.017.573,0,1.135A1.437,1.437,0,0,1,1276.019,3212.936Z" fill="#767777"/>
      <path id="パス_89" data-name="パス 89" d="M1275.734,3223.287h-.018a1.437,1.437,0,0,1-1.419-1.454c.019-1.518.045-3.163.08-4.888a1.437,1.437,0,0,1,1.436-1.408h.029a1.437,1.437,0,0,1,1.408,1.465c-.035,1.718-.061,3.355-.08,4.866A1.437,1.437,0,0,1,1275.734,3223.287Z" fill="#767777"/>
      <path id="パス_90" data-name="パス 90" d="M1276.235,3250.815a1.437,1.437,0,0,1-1.416-1.2c-.026-.16-.643-4.095-.556-19.584a1.437,1.437,0,0,1,1.437-1.429h.008a1.437,1.437,0,0,1,1.429,1.445c-.085,15.248.512,19.065.518,19.1a1.437,1.437,0,0,1-1.42,1.67Z" fill="#767777"/>
      <path id="パス_91" data-name="パス 91" d="M1270.325,3248.406a1.438,1.438,0,0,1-1.37-1.006,166.544,166.544,0,0,1-4.932-20.907c-1.119-6.5-1.686-11.963-1.479-14.247a1.437,1.437,0,0,1,1.429-1.307c.044,0,.087,0,.132.006a1.437,1.437,0,0,1,1.3,1.561c-.15,1.656.239,6.473,1.448,13.5a166.385,166.385,0,0,0,4.841,20.533,1.438,1.438,0,0,1-1.371,1.868Z" fill="#767777"/>
      <path id="パス_92" data-name="パス 92" d="M1258.471,3240.189a1.436,1.436,0,0,1-1.225-.683,51.889,51.889,0,0,1-5.428-12.031,35.017,35.017,0,0,1-1.223-5.271,1.437,1.437,0,0,1,2.852-.355,33.189,33.189,0,0,0,1.145,4.871,49,49,0,0,0,5.1,11.281,1.437,1.437,0,0,1-1.222,2.191Z" fill="#767777"/>
      <path id="パス_93" data-name="パス 93" d="M1262.663,3246a1.434,1.434,0,0,1-1.1-.513,7.279,7.279,0,0,1-.757-1.021c-.084-.136-.171-.278-.4-.587a1.437,1.437,0,0,1,2.319-1.7c.295.4.429.62.526.779a4.64,4.64,0,0,0,.51.678,1.437,1.437,0,0,1-1.1,2.361Z" fill="#767777"/>
      <path id="パス_94" data-name="パス 94" d="M1282.237,3248.406a1.438,1.438,0,0,1-1.371-1.868,166.355,166.355,0,0,0,4.841-20.533c1.209-7.028,1.6-11.844,1.448-13.5a1.437,1.437,0,0,1,1.3-1.561c.044,0,.088-.006.132-.006a1.437,1.437,0,0,1,1.429,1.307c.208,2.284-.358,7.743-1.478,14.248a166.542,166.542,0,0,1-4.932,20.907A1.438,1.438,0,0,1,1282.237,3248.406Z" fill="#767777"/>
      <path id="パス_95" data-name="パス 95" d="M1294.09,3240.189a1.437,1.437,0,0,1-1.222-2.191,45.108,45.108,0,0,0,6.247-16.151,1.437,1.437,0,0,1,2.852.355,35.017,35.017,0,0,1-1.223,5.271,51.89,51.89,0,0,1-5.428,12.031A1.436,1.436,0,0,1,1294.09,3240.189Z" fill="#767777"/>
      <path id="パス_96" data-name="パス 96" d="M1289.9,3246a1.437,1.437,0,0,1-1.1-2.361,4.64,4.64,0,0,0,.51-.678c.1-.159.231-.376.526-.779a1.437,1.437,0,0,1,2.319,1.7c-.227.31-.313.451-.4.587a7.279,7.279,0,0,1-.757,1.021A1.434,1.434,0,0,1,1289.9,3246Z" fill="#767777"/>
    </g>
  </g>
</svg>
