<svg xmlns="http://www.w3.org/2000/svg" width="80" height="80" viewBox="0 0 80 80">
  <g id="グループ_46" data-name="グループ 46" transform="translate(-873 -47)">
    <rect id="長方形_16" data-name="長方形 16" width="80" height="80" transform="translate(873 47)" fill="#fff"/>
    <g id="グループ_9" data-name="グループ 9" transform="translate(-730.012 -2890.237)">
      <g id="グループ_8" data-name="グループ 8">
        <path id="パス_30" data-name="パス 30" d="M1649.847,3009.4H1619.23a5.2,5.2,0,0,1-5.2-5.2v-22.746a1.613,1.613,0,0,1,3.225,0V3004.2a1.975,1.975,0,0,0,1.972,1.972h30.617a1.975,1.975,0,0,0,1.972-1.972v-4.356a1.613,1.613,0,0,1,3.225,0v4.356A5.2,5.2,0,0,1,1649.847,3009.4Z" fill="#767777"/>
        <path id="パス_31" data-name="パス 31" d="M1653.432,3001.46a1.612,1.612,0,0,1-1.613-1.613v-23.893a2.974,2.974,0,0,1,1.622-2.652,7.308,7.308,0,0,0,2.965-2.26,5.03,5.03,0,0,0,.546-2.788,6.245,6.245,0,0,0-1.225-3.471,14.655,14.655,0,0,0-3.769-3.644c-4.483-3.114-10.833-4.9-17.42-4.9a35.112,35.112,0,0,0-9.089,1.17,27.8,27.8,0,0,0-7.2,3c-3.833,2.319-6.122,5.252-6.122,7.845,0,2.346.17,3.465,4.216,5.4a1.613,1.613,0,0,1-1.39,2.91c-2.489-1.189-3.937-2.251-4.844-3.552a7.9,7.9,0,0,1-1.206-4.755,9.789,9.789,0,0,1,2.16-5.811,19.591,19.591,0,0,1,5.517-4.793,35.13,35.13,0,0,1,17.961-4.635,38.034,38.034,0,0,1,10.8,1.528,29.824,29.824,0,0,1,8.456,3.948,17.637,17.637,0,0,1,4.6,4.481,9.383,9.383,0,0,1,1.782,5.282,8.123,8.123,0,0,1-1.037,4.5,9.966,9.966,0,0,1-4.1,3.352v23.743A1.612,1.612,0,0,1,1653.432,3001.46Z" fill="#767777"/>
        <path id="パス_32" data-name="パス 32" d="M1651.152,3009.154a1.613,1.613,0,0,1-.585-3.116l16.42-6.382a3.18,3.18,0,0,0,1.779-2.846v-29.644a1.612,1.612,0,0,1,.917-1.455c4.045-1.932,4.215-3.051,4.215-5.4,0-2.593-2.289-5.525-6.123-7.845a27.815,27.815,0,0,0-7.2-3,35.113,35.113,0,0,0-9.089-1.17,36.021,36.021,0,0,0-6.3.551,1.582,1.582,0,0,1-.254.025,53.878,53.878,0,0,0-14.381,4.246,56.426,56.426,0,0,0-11.933,7.129,1.613,1.613,0,1,1-2.007-2.525,59.7,59.7,0,0,1,12.624-7.549,57.055,57.055,0,0,1,15.363-4.511q.075-.01.15-.013a39.293,39.293,0,0,1,6.741-.578,35.131,35.131,0,0,1,17.961,4.635,19.6,19.6,0,0,1,5.518,4.793,9.787,9.787,0,0,1,2.161,5.811,7.9,7.9,0,0,1-1.206,4.756,10.334,10.334,0,0,1-3.927,3.095v28.646a6.417,6.417,0,0,1-3.679,5.787c-.033.015-.067.03-.1.043l-16.476,6.4A1.607,1.607,0,0,1,1651.152,3009.154Z" fill="#767777"/>
      </g>
      <path id="線_8" data-name="線 8" d="M0,12.176a1.609,1.609,0,0,1-1.214-.551,1.613,1.613,0,0,1,.152-2.275L11.01-1.214a1.613,1.613,0,0,1,2.275.152,1.613,1.613,0,0,1-.152,2.275L1.062,11.777A1.606,1.606,0,0,1,0,12.176Z" transform="translate(1633.164 2990.89)" fill="#767777"/>
      <path id="線_9" data-name="線 9" d="M0,21.229a1.609,1.609,0,0,1-1.252-.6,1.613,1.613,0,0,1,.235-2.268L23.127-1.252a1.613,1.613,0,0,1,2.268.235,1.613,1.613,0,0,1-.235,2.268L1.017,20.868A1.606,1.606,0,0,1,0,21.229Z" transform="translate(1623.355 2980.327)" fill="#767777"/>
      <path id="線_10" data-name="線 10" d="M0,7.8a1.612,1.612,0,0,1-1.419-.844A1.613,1.613,0,0,1-.768,4.773L10.652-1.418a1.613,1.613,0,0,1,2.186.649,1.613,1.613,0,0,1-.649,2.186L.768,7.608A1.606,1.606,0,0,1,0,7.8Z" transform="translate(1653.432 2969.764)" fill="#767777"/>
    </g>
  </g>
</svg>
