<svg xmlns="http://www.w3.org/2000/svg" width="80" height="80" viewBox="0 0 80 80">
  <g id="グループ_47" data-name="グループ 47" transform="translate(-973 -47)">
    <rect id="長方形_19" data-name="長方形 19" width="80" height="80" transform="translate(973 47)" fill="#fff"/>
    <g id="グループ_11" data-name="グループ 11" transform="translate(-95.316 -3011.747)">
      <g id="グループ_10" data-name="グループ 10">
        <path id="パス_33" data-name="パス 33" d="M1077.57,3102.929a1.561,1.561,0,0,1-.661-2.975l42.7-19.923.021-.01a5.532,5.532,0,0,1,5.8.793c.028.023.056.048.082.073l15.717,15.053a1.56,1.56,0,0,1-2.159,2.254l-15.672-15.01a2.4,2.4,0,0,0-2.481-.32l-42.692,19.917A1.557,1.557,0,0,1,1077.57,3102.929Z" fill="#767777"/>
        <path id="パス_34" data-name="パス 34" d="M1078.8,3132.513a4.544,4.544,0,0,1-4.546-4.544v-23.862a4.543,4.543,0,0,1,4.157-4.527l11.118-.95h.008l38.028-3.047a1.56,1.56,0,1,1,.249,3.111l-38.024,3.047-11.115.95a1.43,1.43,0,0,0-1.3,1.417v23.862a1.423,1.423,0,0,0,1.543,1.418l59.036-5.041a1.412,1.412,0,0,0,1.3-1.415v-25.038a1.561,1.561,0,0,1,3.121,0v25.038a4.542,4.542,0,0,1-4.155,4.525l-59.036,5.041C1079.057,3132.508,1078.929,3132.513,1078.8,3132.513Z" fill="#767777"/>
      </g>
      <path id="線_11" data-name="線 11" d="M0,6.6A1.561,1.561,0,0,1-1.554,5.184a1.561,1.561,0,0,1,1.411-1.7l54.7-5.041a1.561,1.561,0,0,1,1.7,1.411,1.561,1.561,0,0,1-1.411,1.7L.143,6.6C.095,6.6.046,6.6,0,6.6Z" transform="translate(1081.546 3108.377)" fill="#767777"/>
      <path id="線_12" data-name="線 12" d="M0,6.6A1.561,1.561,0,0,1-1.554,5.184a1.561,1.561,0,0,1,1.411-1.7l54.7-5.041a1.561,1.561,0,0,1,1.7,1.411,1.561,1.561,0,0,1-1.411,1.7L.143,6.6C.095,6.6.046,6.6,0,6.6Z" transform="translate(1081.546 3116.043)" fill="#767777"/>
      <path id="パス_35" data-name="パス 35" d="M1105.363,3079.255c2.057-5.527,7.63-8.555,12.449-6.762s7.059,7.727,5,13.255-11.471,8.92-13.157,7.894C1107.016,3093.586,1103.307,3084.783,1105.363,3079.255Z" fill="#fff"/>
      <path id="パス_35_-_アウトライン" data-name="パス 35 - アウトライン" d="M1114.937,3070.416a9.774,9.774,0,0,1,3.419.614,10.231,10.231,0,0,1,6,6.138,13.007,13.007,0,0,1-.075,9.124,10.77,10.77,0,0,1-2.635,3.884,18.352,18.352,0,0,1-3.758,2.789,16.859,16.859,0,0,1-7.314,2.419,3.67,3.67,0,0,1-1.331-.217,5.05,5.05,0,0,1-3.173-2.46,17.935,17.935,0,0,1-2.529-6.452,14.429,14.429,0,0,1,.363-7.545,13.225,13.225,0,0,1,4.441-6.013A10.982,10.982,0,0,1,1114.937,3070.416Zm-4.367,21.848a14.188,14.188,0,0,0,5.766-2.008c2.569-1.468,4.35-3.262,5.016-5.052a9.889,9.889,0,0,0,.08-6.933,7.156,7.156,0,0,0-4.164-4.315,6.661,6.661,0,0,0-2.331-.418,8,8,0,0,0-4.725,1.66,10.11,10.11,0,0,0-3.386,4.6,10.537,10.537,0,0,0-.363,5.024,16.585,16.585,0,0,0,1.531,5.006,5.1,5.1,0,0,0,1.735,2.254,1.561,1.561,0,0,1,.638.169A1.453,1.453,0,0,0,1110.57,3092.264Z" fill="#767777"/>
      <path id="線_13" data-name="線 13" transform="translate(1109.961 3077.214)" fill="#767777"/>
      <path id="線_14" data-name="線 14" transform="translate(1112.882 3080.317)" fill="#767777"/>
      <path id="線_15" data-name="線 15" transform="translate(1117.08 3081.96)" fill="#767777"/>
      <path id="線_16" data-name="線 16" transform="translate(1121.096 3082.325)" fill="#767777"/>
      <path id="線_17" data-name="線 17" transform="translate(1117.08 3076.849)" fill="#767777"/>
      <path id="線_18" data-name="線 18" transform="translate(1111.604 3086.888)" fill="#767777"/>
      <path id="線_19" data-name="線 19" transform="translate(1116.35 3087.618)" fill="#767777"/>
      <path id="線_20" data-name="線 20" transform="translate(1108.318 3083.603)" fill="#767777"/>
      <path id="パス_36" data-name="パス 36" d="M1122.8,3076.584a6.358,6.358,0,0,1-2.018-2.471l-.4-2-1.464,1.475a1.56,1.56,0,0,1-2.563-.537l-.515-1.333a1.561,1.561,0,0,1-1.1.708l-1.7.243a1.563,1.563,0,0,1-1.387-.508l-1.947-2.19a1.561,1.561,0,0,1,2.333-2.074l1.239,1.394.7-3.13a1.56,1.56,0,0,1,2.979-.224l1.447,3.743,1.831-1.845a1.561,1.561,0,0,1,2.638.793l.705,3.526,2.285-.152a1.561,1.561,0,0,1,.758,2.974l-3.164,1.46A1.556,1.556,0,0,1,1122.8,3076.584Z" fill="#767777"/>
    </g>
  </g>
</svg>
