<svg xmlns="http://www.w3.org/2000/svg" width="80" height="80" viewBox="0 0 80 80">
  <g id="グループ_52" data-name="グループ 52" transform="translate(-373 -149)">
    <rect id="長方形_21" data-name="長方形 21" width="80" height="80" transform="translate(373 149)" fill="#fff"/>
    <g id="グループ_37" data-name="グループ 37" transform="translate(-1003.105 -2895.326)">
      <g id="グループ_36" data-name="グループ 36">
        <path id="合体_2" data-name="合体 2" d="M1427.243,3121.671h-21.112a3.03,3.03,0,0,1-1.634-.471c-.086-.055-.206-.125-.345-.206a13.294,13.294,0,0,1-5.072-4.991c-2.227-3.655-3.656-8.969-4.249-15.795-.138-1.595-.208-3.217-.208-4.823a50.872,50.872,0,0,1,2.792-16.937,40.339,40.339,0,0,1,9.28-15.066v-7.2a27.317,27.317,0,0,1-2.586-4.453l-.064-.131a2,2,0,0,1,1.8-2.892h21.729a2.015,2.015,0,0,1,2.01,1.985,1.981,1.981,0,0,1-.166.817,21.267,21.267,0,0,1-2.942,4.867v7.515a47.28,47.28,0,0,1,9.687,18.276,65.328,65.328,0,0,1,2.384,17.912,31.137,31.137,0,0,1-2.166,12.031,19.343,19.343,0,0,1-7.5,9.088A3.036,3.036,0,0,1,1427.243,3121.671Zm-19.85-70a18.516,18.516,0,0,0,1.941,3.083,1.481,1.481,0,0,1,.324.925V3064a1.482,1.482,0,0,1-.443,1.056,37.307,37.307,0,0,0-9.006,14.38,47.923,47.923,0,0,0-2.623,15.953c0,1.52.066,3.057.2,4.567.553,6.367,1.84,11.249,3.827,14.51a10.439,10.439,0,0,0,4.034,3.973c.159.093.308.18.445.267a.11.11,0,0,0,.042.007h21.112a.111.111,0,0,0,.045-.008c6.858-4.362,8.3-12.534,8.3-18.621a62.372,62.372,0,0,0-2.27-17.1,44.193,44.193,0,0,0-9.424-17.542,1.481,1.481,0,0,1-.377-.987v-8.612a1.481,1.481,0,0,1,.36-.968,17.636,17.636,0,0,0,2.18-3.2Z" fill="#767777"/>
        <path id="パス_100" data-name="パス 100" d="M1408.37,3113.605a1.477,1.477,0,0,1-.826-.252,9.769,9.769,0,0,1-2.256-2.8,1.481,1.481,0,1,1,2.515-1.566h0a8.029,8.029,0,0,0,1.4,1.909,1.481,1.481,0,0,1-.829,2.709Z" fill="#767777"/>
        <path id="パス_101" data-name="パス 101" d="M1404.682,3106.967a1.482,1.482,0,0,1-1.433-1.113,31.048,31.048,0,0,1-.672-11.231,1.481,1.481,0,0,1,2.94.361,28.017,28.017,0,0,0,.6,10.133,1.482,1.482,0,0,1-1.436,1.85Z" fill="#767777"/>
      </g>
      <path id="線_42" data-name="線 42" d="M5.544,1.481H0A1.481,1.481,0,0,1-1.481,0,1.481,1.481,0,0,1,0-1.481H5.544A1.481,1.481,0,0,1,7.025,0,1.481,1.481,0,0,1,5.544,1.481Z" transform="translate(1412.132 3064.426)" fill="#767777"/>
    </g>
  </g>
</svg>
