<svg id="グループ_650" data-name="グループ 650" xmlns="http://www.w3.org/2000/svg" xmlns:xlink="http://www.w3.org/1999/xlink" width="135.086" height="150.991" viewBox="0 0 135.086 150.991">
  <defs>
    <clipPath id="clip-path">
      <rect id="長方形_1131" data-name="長方形 1131" width="135.086" height="150.991" fill="none"/>
    </clipPath>
  </defs>
  <g id="グループ_649" data-name="グループ 649" clip-path="url(#clip-path)">
    <path id="パス_589" data-name="パス 589" d="M142.479,188.228H124.622a2.094,2.094,0,0,1,0-4.189h17.857a2.463,2.463,0,0,0,2.46-2.46V121.661H46.117v37.992a2.094,2.094,0,1,1-4.189,0V119.566a2.094,2.094,0,0,1,2.094-2.094H147.034a2.094,2.094,0,0,1,2.094,2.094V181.58a6.656,6.656,0,0,1-6.649,6.649" transform="translate(-24.253 -67.95)" fill="#00b84c"/>
    <path id="パス_590" data-name="パス 590" d="M139.357,90.648H23.7a5.985,5.985,0,0,1-5.979-5.979V69.837A5.986,5.986,0,0,1,23.7,63.858H139.357a5.986,5.986,0,0,1,5.979,5.979V84.669a5.986,5.986,0,0,1-5.979,5.979M23.7,68.047a1.793,1.793,0,0,0-1.79,1.79V84.669a1.792,1.792,0,0,0,1.79,1.79H139.357a1.792,1.792,0,0,0,1.79-1.79V69.837a1.792,1.792,0,0,0-1.79-1.79Z" transform="translate(-10.25 -36.938)" fill="#00b84c"/>
    <path id="パス_591" data-name="パス 591" d="M189.773,90.648a2.094,2.094,0,0,1-2.094-2.094v-22.6a2.094,2.094,0,0,1,4.189,0v22.6a2.094,2.094,0,0,1-2.094,2.094" transform="translate(-108.56 -36.937)" fill="#00b84c"/>
    <path id="パス_592" data-name="パス 592" d="M142.633,90.648a2.094,2.094,0,0,1-2.094-2.094v-22.6a2.094,2.094,0,0,1,4.189,0v22.6a2.094,2.094,0,0,1-2.094,2.094" transform="translate(-81.292 -36.937)" fill="#00b84c"/>
    <path id="パス_593" data-name="パス 593" d="M195.185,272.036a2.094,2.094,0,0,1-.511-4.125l12.928-3.266a4.409,4.409,0,0,0,2.718-2.038,4.336,4.336,0,0,0,.5-3.361,4.457,4.457,0,0,0-4.135-3.369,2.094,2.094,0,1,1,.2-4.184,8.622,8.622,0,0,1,7.993,6.527,8.661,8.661,0,0,1-6.256,10.485L195.7,271.972a2.1,2.1,0,0,1-.514.064" transform="translate(-111.69 -145.586)" fill="#333"/>
    <path id="パス_594" data-name="パス 594" d="M136.243,246.638a2.094,2.094,0,0,1-.511-4.125l36.89-9.321a4.321,4.321,0,0,0,3.045-5.53,4.65,4.65,0,0,0-5.612-2.726l-36.439,9.206a2.094,2.094,0,0,1-1.026-4.061l36.439-9.206a8.779,8.779,0,0,1,10.622,5.494,8.51,8.51,0,0,1-6,10.884l-36.891,9.321a2.1,2.1,0,0,1-.515.064" transform="translate(-75.78 -127.594)" fill="#333"/>
    <path id="パス_595" data-name="パス 595" d="M161.09,308.881a2.094,2.094,0,0,1-.512-4.125l10.274-2.6a4.32,4.32,0,0,0,3.045-5.531,4.649,4.649,0,0,0-5.612-2.725L148.518,298.9a2.094,2.094,0,0,1-1.026-4.061l19.766-4.994a8.782,8.782,0,0,1,10.622,5.493,8.509,8.509,0,0,1-6,10.884l-10.274,2.6a2.1,2.1,0,0,1-.514.064" transform="translate(-84.399 -167.488)" fill="#333"/>
    <path id="パス_596" data-name="パス 596" d="M43.846,339.239c-3.977,0-8.033-1.254-11.459-2.313-.7-.218-1.389-.43-2.046-.622-1.819-.532-9.115.147-11.763.816l-.075.018-3.781.808a2.094,2.094,0,0,1-.875-4.1l3.746-.8c2.215-.546,10.742-1.7,13.925-.764.676.2,1.38.415,2.106.639,4.254,1.315,9.074,2.805,13.038,1.8l.078-.018,36.491-9.2a2.094,2.094,0,1,1,1.027,4.061L80.2,330.6l-32.486,8.186-.078.018a15.693,15.693,0,0,1-3.793.438" transform="translate(-7.052 -188.249)" fill="#333"/>
    <path id="パス_597" data-name="パス 597" d="M2.094,199.133a2.094,2.094,0,0,1-.512-4.125l1.185-.3a9.516,9.516,0,0,0,5.163-3.375L16,180.945a35.574,35.574,0,0,1,3.446-3.828,85.994,85.994,0,0,1,12.842-10.308c3.918-2.7,8.794-6.063,17.353-13.031.029-.024.058-.046.088-.068,3.033-2.212,6.534-1.913,8.917.763,2.971,3.336,3.5,9.839-.832,14.527-3.291,3.564-6.924,7.492-9.733,10.528l35.426-8.951A8.815,8.815,0,0,1,93.7,175.11a8.669,8.669,0,0,1-3.365,11.2A2.094,2.094,0,0,1,88.21,182.7a4.481,4.481,0,0,0,1.705-5.794,4.626,4.626,0,0,0-5.384-2.268L42.265,185.317a2.1,2.1,0,0,1-2.051-3.459s7.941-8.577,14.521-15.7c2.892-3.131,2.312-7.181.781-8.9-.93-1.044-2-1.108-3.28-.195-8.66,7.049-13.6,10.455-17.574,13.194a81.638,81.638,0,0,0-12.318,9.881,31.3,31.3,0,0,0-3.039,3.376L11.238,193.9a13.726,13.726,0,0,1-7.444,4.867l-1.185.3a2.1,2.1,0,0,1-.515.064" transform="translate(0 -88.058)" fill="#333"/>
    <path id="パス_598" data-name="パス 598" d="M166.2,33.276a2.094,2.094,0,0,1-1.8-3.166c1.124-1.889,11.183-18.569,18.116-22.449,8-4.477,16.542-1.819,19.5,3.472,3.166,5.657-.44,13.5-8.21,17.845-3.012,1.685-8.6,2.92-16.613,3.668-5.83.544-10.758.626-10.964.63H166.2m24.757-23.69a13.118,13.118,0,0,0-6.395,1.73c-4.144,2.319-10.7,11.674-14.518,17.638,6.784-.333,17.592-1.321,21.72-3.631,5.529-3.1,8.552-8.656,6.6-12.144-1.205-2.153-4.05-3.592-7.408-3.592m1.83,17.564h0Z" transform="translate(-94.924 -3.117)" fill="#00b84c"/>
    <path id="パス_599" data-name="パス 599" d="M116.367,30.168h-.033c-.917-.014-22.556-.4-30.236-4.7a21.181,21.181,0,0,1-8.721-8.8c-1.853-3.753-1.934-7.5-.228-10.545A12.5,12.5,0,0,1,86.081.258,18.554,18.554,0,0,1,98.316,2.5c7.707,4.313,19.355,23.678,19.848,24.5a2.094,2.094,0,0,1-1.8,3.17M88.143,21.812c4.654,2.6,16.925,3.691,24.376,4.04-4.176-6.521-11.58-17.086-16.249-19.7a14.374,14.374,0,0,0-9.457-1.771A8.366,8.366,0,0,0,80.8,8.168c-1.011,1.807-.895,4.167.329,6.645a16.973,16.973,0,0,0,7.011,7" transform="translate(-43.917 -0.001)" fill="#00b84c"/>
  </g>
</svg>
