<svg id="グループ_652" data-name="グループ 652" xmlns="http://www.w3.org/2000/svg" xmlns:xlink="http://www.w3.org/1999/xlink" width="160.553" height="147.795" viewBox="0 0 160.553 147.795">
  <defs>
    <clipPath id="clip-path">
      <rect id="長方形_1132" data-name="長方形 1132" width="160.553" height="147.795" fill="none"/>
    </clipPath>
  </defs>
  <g id="グループ_651" data-name="グループ 651" clip-path="url(#clip-path)">
    <path id="パス_600" data-name="パス 600" d="M37.432,274.015a2.054,2.054,0,0,1-1.155-3.753c.577-.392,1.167-.79,1.773-1.188a39.305,39.305,0,0,1,20.79-6.482c11.121-.255,21.659.314,30.958.816,22.325,1.207,39.966,2.159,53.693-7.884l30.079-27.028c.025-.022.05-.044.076-.065,3.124-2.544,4.295-5.276,3.056-7.13-1.589-2.379-6.624-3.012-12.294.048-6.662,3.59-16.585,12.137-21.907,16.913a18.066,18.066,0,0,1-11.829,4.608h-.024a2.054,2.054,0,0,1-.023-4.107,13.958,13.958,0,0,0,9.136-3.561c6.663-5.979,16.013-13.866,22.7-17.468,8.106-4.375,15.02-2.664,17.659,1.285,1.97,2.949,1.993,7.794-3.838,12.564L146.16,258.646q-.075.068-.156.127c-14.924,10.977-33.239,9.989-56.428,8.736-9.675-.522-19.678-1.063-30.642-.811A35.207,35.207,0,0,0,40.31,272.5c-.592.389-1.166.776-1.727,1.157a2.045,2.045,0,0,1-1.152.355" transform="translate(-20.753 -126.22)" fill="#333"/>
    <path id="パス_601" data-name="パス 601" d="M104.583,255.585l-.1,0L59.75,253.3a2.054,2.054,0,0,1,.21-4.1l44.391,2.27a4.694,4.694,0,0,0,3.493-3.964,2.947,2.947,0,0,0-.507-1.846c-4.072-5.887-13.453-7.631-26.286-8.438a20.381,20.381,0,0,1-6.99-1.723l-4.075-1.806a33.112,33.112,0,0,0-15.968-2.731c-12.65,1-22,6.3-32.816,12.432a203.232,203.232,0,0,1-18.317,9.536,2.054,2.054,0,0,1-1.665-3.754,200.014,200.014,0,0,0,17.957-9.355C29.956,233.7,40.136,227.935,53.7,226.861a37.246,37.246,0,0,1,17.957,3.07l4.072,1.805a16.3,16.3,0,0,0,5.585,1.38c14.426.907,24.378,2.929,29.407,10.2a7.023,7.023,0,0,1,1.23,4.408,8.783,8.783,0,0,1-6.85,7.8,2.061,2.061,0,0,1-.513.065" transform="translate(0 -133.02)" fill="#333"/>
    <path id="パス_602" data-name="パス 602" d="M207.525,133.864a31.109,31.109,0,1,1,31.109-31.109,31.145,31.145,0,0,1-31.109,31.109m0-58.112a27,27,0,1,0,27,27,27.033,27.033,0,0,0-27-27" transform="translate(-103.494 -42.03)" fill="#00b84c"/>
    <path id="パス_603" data-name="パス 603" d="M248.763,21.051A2.053,2.053,0,0,1,246.709,19V2.053a2.054,2.054,0,1,1,4.107,0V19a2.053,2.053,0,0,1-2.054,2.054" transform="translate(-144.731 0.001)" fill="#00b84c"/>
    <path id="パス_604" data-name="パス 604" d="M197.074,38.263a2.051,2.051,0,0,1-1.66-.842l-8.258-11.3a2.054,2.054,0,0,1,3.316-2.423L198.73,35a2.054,2.054,0,0,1-1.656,3.265" transform="translate(-109.563 -13.408)" fill="#00b84c"/>
    <path id="パス_605" data-name="パス 605" d="M288.734,38.263A2.054,2.054,0,0,1,287.077,35l8.257-11.3a2.054,2.054,0,1,1,3.316,2.423l-8.258,11.3a2.051,2.051,0,0,1-1.66.842" transform="translate(-168.18 -13.408)" fill="#00b84c"/>
  </g>
</svg>
