<svg xmlns="http://www.w3.org/2000/svg" width="743" height="282.205" viewBox="0 0 743 282.205">
  <g id="グループ_810" data-name="グループ 810" transform="translate(-116.5 -1305)">
    <rect id="長方形_124" data-name="長方形 124" width="302" height="121" rx="8" transform="translate(117 1305)" fill="#fff"/>
    <path id="長方形_124_-_アウトライン" data-name="長方形 124 - アウトライン" d="M8,1A7.008,7.008,0,0,0,1,8V113a7.008,7.008,0,0,0,7,7H294a7.008,7.008,0,0,0,7-7V8a7.008,7.008,0,0,0-7-7H8M8,0H294a8,8,0,0,1,8,8V113a8,8,0,0,1-8,8H8a8,8,0,0,1-8-8V8A8,8,0,0,1,8,0Z" transform="translate(117 1305)" fill="#878787"/>
    <rect id="長方形_482" data-name="長方形 482" width="637" height="78" rx="6" transform="translate(117 1450)" fill="#c8c8c8"/>
    <path id="長方形_485" data-name="長方形 485" d="M0,0H132a6,6,0,0,1,6,6V72a6,6,0,0,1-6,6H0a0,0,0,0,1,0,0V0A0,0,0,0,1,0,0Z" transform="translate(721 1450)" fill="#00b84c"/>
    <rect id="長方形_1133" data-name="長方形 1133" width="303" height="121" rx="6" transform="translate(556 1305)" fill="#00b84c"/>
    <path id="パス_781" data-name="パス 781" d="M-177.034-14.976V-17.03h15.912v2.054H-167.6v-1.482h-3.094v1.482ZM-157.56-4.108V-6.786h-10.27a8.827,8.827,0,0,0,.208-1.638h7.1v-2.5H-167.6v-1.56H-160V-14.2h2.08v-5.538h-9.516V-22h-3.172v2.262h-9.49V-14.2h2.314v1.716h7.1v1.56h-6.682v2.5h6.656a11.918,11.918,0,0,1-.26,1.638h-9.334v2.678h7.826c-1.43,1.534-3.926,2.886-8.294,3.874a12.618,12.618,0,0,1,1.924,2.5c5.3-1.43,8.19-3.484,9.724-5.8,2.054,3.224,5.148,5.07,10.088,5.85a12.029,12.029,0,0,1,1.82-2.7c-4.108-.442-7.02-1.638-8.866-3.718Zm9.022-1.014h11.284v1.144h-11.284Zm0-2.86h11.284v1.118h-11.284Zm0-2.886h11.284V-9.75h-11.284Zm14.43,8.762V-12.714h-8.476a6.909,6.909,0,0,0,2.548-3.2h2.626v2.73h2.756v-2.73h3.276v-2.236h-8.138c.026-.26.026-.52.026-.754v-.13a40.587,40.587,0,0,0,7.1-1.118L-134.264-22a40.129,40.129,0,0,1-5.824,1.066l-2.08-.494v2.366a4.707,4.707,0,0,1-.91,3.016v-2.106h-7.15c.026-.26.026-.546.026-.78v-.13a33.3,33.3,0,0,0,6.6-1.118L-145.5-22a31.757,31.757,0,0,1-5.408,1.04l-1.976-.494v2.366a7.057,7.057,0,0,1-2.21,5.564,8.914,8.914,0,0,1,2.028,1.924,8.688,8.688,0,0,0,2.5-4.316h2.288v2.7h2.756v-2.7h2.34a6.4,6.4,0,0,1-1.508,1.3,7.39,7.39,0,0,1,1.794,1.9h-8.632V-2.106h3.848A30.53,30.53,0,0,1-154.83.078a31.355,31.355,0,0,1,2.288,2.262,32.217,32.217,0,0,0,8.112-3.406l-2.366-1.04h7.592l-2.34,1.352a51.267,51.267,0,0,1,6.76,3.068L-131.2.936c-1.768-.858-4.758-2.106-7.41-3.042Zm11.024.182v-2.7h12.35v2.7Zm12.35-8.242v2.678h-12.35v-2.678Zm0-5.538v2.678h-12.35V-15.7Zm-5.616-2.964c.416-.936.832-1.95,1.222-2.99l-3.744-.416a29.426,29.426,0,0,1-.7,3.406h-6.656v20.9h3.146V.936h12.35V2.21h3.3V-18.668ZM-93.7-1.3c-2.782,0-3.25-.234-3.25-1.612V-9.178h11.6V-7.7h3.3V-20.54H-100.49v3.172h15.132v5.148h-14.82v9.36c0,3.718,1.586,4.654,6.448,4.654h8.424c4.654,0,5.8-1.352,6.37-6.318a11.809,11.809,0,0,1-3.146-1.17c-.338,3.744-.7,4.394-3.3,4.394Zm23.192-4.966h11.336v1.508H-70.512ZM-64.35-17.94a20.071,20.071,0,0,1-1.456,1.872h-5.148a19.247,19.247,0,0,0,1.716-1.872Zm5.174,5.746H-70.512v-1.482h11.336Zm0,3.692H-70.512V-9.958h11.336Zm3.224,6.162V-16.068h-6.162a24.41,24.41,0,0,0,2.106-2.99l-2.132-1.378-.494.13H-67.47c.234-.364.468-.7.676-1.066L-70.148-22a18.786,18.786,0,0,1-6.89,6.838,10.215,10.215,0,0,1,2.288,2.21c.416-.286.806-.546,1.17-.832V-2.34h3.9A30.222,30.222,0,0,1-76.856-.026a26.309,26.309,0,0,1,2.418,2.392A33.884,33.884,0,0,0-66.4-1.144l-2.652-1.2h8.112L-63.232-.858a50.42,50.42,0,0,1,6.526,3.12L-53.222.7c-1.69-.858-4.55-2.08-7.072-3.042ZM-31.668-13.7h-6.526v-3.8h6.526Zm0,6.812h-6.526v-3.926h6.526Zm3.094-13.468H-41.158V-4.03h12.584ZM-42.146-11.05l-2.548.65v-3.822h2.73v-2.86h-2.73V-22H-47.71v4.914h-3.224v2.86h3.224v4.55c-1.3.312-2.548.6-3.562.806l.806,2.964,2.756-.728v5.408c0,.364-.13.494-.494.494-.338,0-1.43,0-2.444-.026a10.273,10.273,0,0,1,.858,2.808,8.373,8.373,0,0,0,3.952-.572c.858-.442,1.144-1.2,1.144-2.7V-7.41c.988-.26,1.95-.546,2.912-.806Zm-.806,9.568V1.4h15.964V-1.482Zm38.22-11.232H-9.88V-14.3h5.148Zm0,3.718H-9.88v-1.586h5.148Zm0,3.8H-9.88V-6.812h5.148Zm-7.93-11.414v13.7H-1.82v-13.7h-4.6c.208-.546.416-1.144.624-1.768h4.5v-2.626H-13.442v2.626h4.368c-.1.572-.208,1.2-.312,1.768Zm-9.646-.858h6.214v1.794h2.574v-4.186h-4.238V-21.97h-2.886v2.106H-24.8v4.186h2.5Zm4.68,15.834h-3.146V-4.03h3.146Zm-3.094-4.784a18.9,18.9,0,0,0,2.184-1.69c.78.6,1.56,1.17,2.21,1.69Zm3.12-6.916a11.112,11.112,0,0,1-1.274,1.846l-1.794-1.17c.182-.234.364-.442.546-.676ZM-15-5.33l.052.052,1.742-2.158a40.844,40.844,0,0,0-3.536-2.6,15.129,15.129,0,0,0,2.574-4.68l-1.742-.806-.468.13H-18.8a10.262,10.262,0,0,0,.6-1.2l-2.522-.624a12.5,12.5,0,0,1-4.758,5.434,11.664,11.664,0,0,1,1.95,1.794,11.907,11.907,0,0,0,1.118-.884l1.716,1.2a15.42,15.42,0,0,1-4.784,2.73,8.925,8.925,0,0,1,1.56,2.21l.546-.234V1.768h2.6V.728H-15a18.339,18.339,0,0,1,1.43,1.482A18.488,18.488,0,0,0-8.034-1.248l-2.5-1.56A14.735,14.735,0,0,1-15,.052ZM-6.89-1.274A28.649,28.649,0,0,1-2.834,2.288L-.442.7a32.73,32.73,0,0,0-4.212-3.38Z" transform="translate(796 1348)" fill="#fff"/>
    <path id="パス_782" data-name="パス 782" d="M-155.642,0h29.264V-7.316h-9.558c-2.065,0-4.956.236-7.139.472,7.788-8.142,14.632-15.812,14.632-23.246,0-8.024-5.487-13.275-13.747-13.275-5.959,0-9.853,2.36-13.865,6.667l4.72,4.72c2.242-2.419,4.838-4.543,8.024-4.543,4.189,0,6.549,2.6,6.549,6.9,0,6.313-7.493,13.747-18.88,24.6Zm37.17,12.567c7.139-2.36,11.151-7.611,11.151-14.514,0-5.369-2.242-8.555-6.254-8.555-3.068,0-5.6,2.006-5.6,5.133,0,3.3,2.6,5.133,5.428,5.133h.531c.059,3.3-2.478,6.372-7.08,8.083ZM-86.848.826c8.968,0,14.75-7.847,14.75-22.3,0-14.337-5.782-21.889-14.75-21.889s-14.809,7.493-14.809,21.889C-101.657-7.021-95.816.826-86.848.826Zm0-6.785c-3.776,0-6.608-3.658-6.608-15.517,0-11.8,2.832-15.1,6.608-15.1s6.549,3.3,6.549,15.1C-80.3-9.617-83.072-5.959-86.848-5.959ZM-52.1.826c8.968,0,14.75-7.847,14.75-22.3,0-14.337-5.782-21.889-14.75-21.889s-14.809,7.493-14.809,21.889C-66.906-7.021-61.065.826-52.1.826Zm0-6.785c-3.776,0-6.608-3.658-6.608-15.517,0-11.8,2.832-15.1,6.608-15.1s6.549,3.3,6.549,15.1C-45.548-9.617-48.321-5.959-52.1-5.959ZM-17.346.826c8.968,0,14.75-7.847,14.75-22.3,0-14.337-5.782-21.889-14.75-21.889s-14.809,7.493-14.809,21.889C-32.155-7.021-26.314.826-17.346.826Zm0-6.785c-3.776,0-6.608-3.658-6.608-15.517,0-11.8,2.832-15.1,6.608-15.1s6.549,3.3,6.549,15.1C-10.8-9.617-13.57-5.959-17.346-5.959Z" transform="translate(772 1402)" fill="#fff"/>
    <text id="円" transform="translate(801 1401)" fill="#fff" font-size="24" font-family="NotoSansJP-Bold, Noto Sans JP" font-weight="700"><tspan x="-24" y="0">円</tspan></text>
    <path id="パス_783" data-name="パス 783" d="M-75.075-19.95h-11.05v2.7h11.05Zm-3.375,7.225V-9.55h-4.025v-3.175Zm2.85,5.85v-8.5h-9.725v6.35c0,2.875-.125,6.775-1.775,9.45A12.88,12.88,0,0,1-84.75,2.2c1.55-2.45,2.075-6.025,2.225-9.075Zm12.325-5.875H-71.3V-16a41.649,41.649,0,0,0,7.875-2.675l-2.625-2.25a28.047,28.047,0,0,1-6.1,2.45l-2.05-.475v6.9c0,3.7-.35,8.65-3.825,12.175a7.346,7.346,0,0,1,2.2,2c3.325-3.325,4.25-8.175,4.475-12h2.9V2.175h2.95V-9.875h2.225ZM-43-17.125h-6.5v-1.25H-43Zm0,3.25h-6.5v-1.3H-43Zm3-6.575H-52.375v8.65H-40Zm-16.675-.7a17.832,17.832,0,0,1-5.2,4.9A18.448,18.448,0,0,1-60.4-13.725,26.469,26.469,0,0,0-53.85-20Zm.65,5.45A22.441,22.441,0,0,1-62.15-9.275,22.185,22.185,0,0,1-60.725-6.2a23.486,23.486,0,0,0,2.25-2.025V2.15H-55.6V-11.425a26.4,26.4,0,0,0,2.175-3.15Zm17.35,8.85h-3.4V-8.275h2.9V-10.7H-53.65v2.425h8.55V-6.85h-9.15v2.525h3.5L-52.6-3.1A21.06,21.06,0,0,1-49.725.375L-47.5-1.2a26.285,26.285,0,0,0-2.85-3.125h5.25V-.85c0,.275-.1.375-.45.4-.325,0-1.5,0-2.55-.05a10.446,10.446,0,0,1,.925,2.65A9.9,9.9,0,0,0-43.3,1.725c.975-.425,1.225-1.125,1.225-2.5v-3.55h3.425ZM-26.75-7.4c-.475-.55-2.525-2.725-3.2-3.275V-11.4h2.675v-2.775H-29.95V-17.7a26.067,26.067,0,0,0,2.975-.95l-1.975-2.275A35.737,35.737,0,0,1-36.7-18.85a10.305,10.305,0,0,1,.825,2.275c.975-.125,2-.3,3.05-.5v2.9H-36.4V-11.4h3.175a24.43,24.43,0,0,1-3.7,6.7A14.758,14.758,0,0,1-35.55-1.875a22.217,22.217,0,0,0,2.725-4.95V2.15h2.875V-7.6a21.906,21.906,0,0,1,1.5,2.525Zm9.35-2.825h-6.175v-3.4H-17.4Zm.525,9.4c-.325,0-.375-.075-.375-.825V-7.625h2.825V-16.2h-2.3c.725-1.05,1.625-2.55,2.45-4l-3.05-.975a26.863,26.863,0,0,1-2.05,4.275l1.95.7H-23.3l1.6-.7a19.2,19.2,0,0,0-2.275-4.25l-2.45,1.075a22.507,22.507,0,0,1,1.95,3.875H-26.4v8.575h2c-.275,3.275-.975,5.95-4.7,7.475A8.629,8.629,0,0,1-27.375,2.2c4.5-2.025,5.55-5.525,5.9-9.825H-20.1v6c0,2.6.475,3.475,2.7,3.475h1.65c1.8,0,2.475-.95,2.725-4.525A7.718,7.718,0,0,1-15.55-3.8c-.05,2.6-.15,2.975-.525,2.975ZM10.675-8.8c0-5.45-3.9-9.75-10.1-9.75C-5.9-18.55-10.9-13.625-10.9-7.85c0,4.225,2.3,7.275,5.075,7.275C-3.1-.575-.95-3.675.55-8.725A50.559,50.559,0,0,0,2.05-15.5c3.375.575,5.25,3.15,5.25,6.6,0,3.65-2.5,5.95-5.7,6.7a19.228,19.228,0,0,1-2.325.4L1.15,1.175C7.45.2,10.675-3.525,10.675-8.8ZM-7.7-8.175a7.87,7.87,0,0,1,6.35-7.25,37.526,37.526,0,0,1-1.325,6.05c-1.025,3.375-2,4.95-3.05,4.95C-6.7-4.425-7.7-5.65-7.7-8.175Zm32-2.05h7.15v1.3H24.3Zm8.4,2.95A20.317,20.317,0,0,1,30.9-5.9a8.515,8.515,0,0,1-1.7-1.375Zm-3.65,5.8V-4.45a14.149,14.149,0,0,0,5.65,2.7,9.106,9.106,0,0,1,1.625-2.225,17.865,17.865,0,0,1-3.45-.925c.95-.575,2-1.275,3.025-1.975L34.4-7.9v-3.975H21.55v4.6h3.825a19,19,0,0,1-5.675,2.9A13.514,13.514,0,0,1,21.4-2.2a23.545,23.545,0,0,0,4.825-2.675v3.4ZM19.575-12.65H36.3V-14.7H19.575Zm12.95-4.475h-1.6V-18.85h1.6Zm-3.825,0H27.1V-18.85h1.6Zm-3.85,0H23.325V-18.85H24.85Zm10.325-3.4H20.825v5.05h14.35Zm-15.35,3.95A21.725,21.725,0,0,0,15.9-20.55l-2.275,1.7a19.481,19.481,0,0,1,3.75,4.15Zm-.675,5.1H13.525V-8.75h2.8V-3.3a29.96,29.96,0,0,1-3.1,2.3l1.4,2.95c1.275-1.075,2.3-2.025,3.3-3,1.5,1.925,3.5,2.65,6.475,2.775,3.05.125,8.35.075,11.45-.075a13.555,13.555,0,0,1,.925-2.9c-3.45.275-9.35.35-12.35.225-2.55-.1-4.3-.8-5.275-2.475ZM44.175-21.05A26.17,26.17,0,0,1,38.2-11.5a24.276,24.276,0,0,1,1.75,3.1c.575-.6,1.175-1.275,1.75-2V2.125h3.05V-15.05a45.92,45.92,0,0,0,2.375-5.05ZM61.65-15.8H58.9v-5.1H55.8v5.1H46.275v3H55.8V-1.45c0,.55-.225.75-.85.75-.575.025-2.775.025-4.7-.05A11.841,11.841,0,0,1,51.4,2.2c2.75.025,4.625-.025,5.85-.5,1.2-.45,1.65-1.225,1.65-3.15V-12.8h2.75ZM53.475-5.225c-.75-1.5-2.3-3.95-3.425-5.775L47.4-9.775a64.728,64.728,0,0,1,3.25,6ZM75-12.7a3.222,3.222,0,0,0-3.2,3.2A3.222,3.222,0,0,0,75-6.3a3.222,3.222,0,0,0,3.2-3.2A3.222,3.222,0,0,0,75-12.7ZM-106.1,7.875a26.6,26.6,0,0,1-6.025,9.35,19.26,19.26,0,0,1,1.55,3.025A24.352,24.352,0,0,0-108.5,17.9V31.1h2.825V13.6a40.544,40.544,0,0,0,2.325-4.825Zm11.4,19.7V22.6h5.4V19.8h-5.4V15.45h6.075v-2.8H-94.35l1.1-1.25A34.994,34.994,0,0,0-98.9,7.775L-100.875,9.9A37.564,37.564,0,0,1-96.7,12.65h-7.1v2.8h6.075V19.8H-103v2.8h5.275v4.975h-6.65v2.8H-88.25v-2.8Zm14.075-7.925V17.175h5.45q.113,1.275.3,2.475Zm12-7.925v2.7h-12v-2.7Zm4.8,10.7V19.65h-7.95c-.15-.8-.25-1.625-.325-2.475h6.5V8.95H-83.675V27.375c-.95.125-1.85.2-2.625.275l.6,3.1c3.25-.425,7.675-1,11.8-1.575l-.1-2.95c-2.2.275-4.5.55-6.625.825V22.425h6.35C-72.9,27.475-70.25,31.175-67,31.2c2.25,0,3.3-.925,3.725-5.125A7.734,7.734,0,0,1-65.85,24.65c-.125,2.525-.4,3.575-.975,3.575-1.45.025-3.175-2.4-4.25-5.8ZM-51.75,21.6c-.475-.55-2.525-2.725-3.2-3.275V17.6h2.675V14.825H-54.95V11.3a26.067,26.067,0,0,0,2.975-.95L-53.95,8.075A35.737,35.737,0,0,1-61.7,10.15a10.305,10.305,0,0,1,.825,2.275c.975-.125,2-.3,3.05-.5v2.9H-61.4V17.6h3.175a24.43,24.43,0,0,1-3.7,6.7,14.758,14.758,0,0,1,1.375,2.825,22.216,22.216,0,0,0,2.725-4.95V31.15h2.875V21.4a21.906,21.906,0,0,1,1.5,2.525Zm9.35-2.825h-6.175v-3.4H-42.4Zm.525,9.4c-.325,0-.375-.075-.375-.825V21.375h2.825V12.8h-2.3c.725-1.05,1.625-2.55,2.45-4l-3.05-.975a26.863,26.863,0,0,1-2.05,4.275l1.95.7H-48.3l1.6-.7a19.2,19.2,0,0,0-2.275-4.25l-2.45,1.075a22.507,22.507,0,0,1,1.95,3.875H-51.4v8.575h2c-.275,3.275-.975,5.95-4.7,7.475a8.629,8.629,0,0,1,1.725,2.35c4.5-2.025,5.55-5.525,5.9-9.825H-45.1v6c0,2.6.475,3.475,2.7,3.475h1.65c1.8,0,2.475-.95,2.725-4.525A7.718,7.718,0,0,1-40.55,25.2c-.05,2.6-.15,2.975-.525,2.975Zm27.55-7.975c0-5.45-3.9-9.75-10.1-9.75-6.475,0-11.475,4.925-11.475,10.7,0,4.225,2.3,7.275,5.075,7.275,2.725,0,4.875-3.1,6.375-8.15a50.558,50.558,0,0,0,1.5-6.775c3.375.575,5.25,3.15,5.25,6.6,0,3.65-2.5,5.95-5.7,6.7a19.228,19.228,0,0,1-2.325.4l1.875,2.975C-17.55,29.2-14.325,25.475-14.325,20.2Zm-18.375.625a7.87,7.87,0,0,1,6.35-7.25,37.526,37.526,0,0,1-1.325,6.05c-1.025,3.375-2,4.95-3.05,4.95C-31.7,24.575-32.7,23.35-32.7,20.825Zm32-2.05H6.45v1.3H-.7Zm8.4,2.95A20.317,20.317,0,0,1,5.9,23.1a8.515,8.515,0,0,1-1.7-1.375Zm-3.65,5.8V24.55a14.149,14.149,0,0,0,5.65,2.7,9.105,9.105,0,0,1,1.625-2.225,17.865,17.865,0,0,1-3.45-.925c.95-.575,2-1.275,3.025-1.975L9.4,21.1V17.125H-3.45v4.6H.375a19,19,0,0,1-5.675,2.9A13.514,13.514,0,0,1-3.6,26.8a23.545,23.545,0,0,0,4.825-2.675v3.4ZM-5.425,16.35H11.3V14.3H-5.425Zm12.95-4.475h-1.6V10.15h1.6Zm-3.825,0H2.1V10.15H3.7Zm-3.85,0H-1.675V10.15H-.15Zm10.325-3.4H-4.175v5.05h14.35Zm-15.35,3.95A21.725,21.725,0,0,0-9.1,8.45l-2.275,1.7a19.481,19.481,0,0,1,3.75,4.15Zm-.675,5.1h-5.625V20.25h2.8V25.7a29.96,29.96,0,0,1-3.1,2.3l1.4,2.95c1.275-1.075,2.3-2.025,3.3-3,1.5,1.925,3.5,2.65,6.475,2.775,3.05.125,8.35.075,11.45-.075a13.555,13.555,0,0,1,.925-2.9c-3.45.275-9.35.35-12.35.225-2.55-.1-4.3-.8-5.275-2.475ZM19.175,7.95A26.17,26.17,0,0,1,13.2,17.5a24.276,24.276,0,0,1,1.75,3.1c.575-.6,1.175-1.275,1.75-2V31.125h3.05V13.95A45.92,45.92,0,0,0,22.125,8.9ZM36.65,13.2H33.9V8.1H30.8v5.1H21.275v3H30.8V27.55c0,.55-.225.75-.85.75-.575.025-2.775.025-4.7-.05A11.841,11.841,0,0,1,26.4,31.2c2.75.025,4.625-.025,5.85-.5,1.2-.45,1.65-1.225,1.65-3.15V16.2h2.75ZM28.475,23.775c-.75-1.5-2.3-3.95-3.425-5.775L22.4,19.225a64.728,64.728,0,0,1,3.25,6ZM50,16.3a3.2,3.2,0,1,0,3.2,3.2A3.222,3.222,0,0,0,50,16.3Zm29.35-3.85v4.1c0,2.275.5,3.05,2.775,3.05H84.05c1.7,0,2.35-.725,2.625-3.35a8,8,0,0,1-2.35-.975c-.075,1.7-.175,1.95-.6,1.95H82.6c-.45,0-.5-.075-.5-.7V12.45h1.625v2.2H86.45V10H80.2V7.825H77.3V10H71.175v4.725H73.75V12.45h1.5c-.1,3.2-.55,4.775-4.225,5.65A6.736,6.736,0,0,1,72.4,20.225c4.625-1.225,5.375-3.6,5.525-7.775ZM70.825,17.8l-2,.675v-3.2h2.1V12.55h-2.1V7.85h-2.7v4.7H63.5v2.725h2.625V19.4c-1.125.35-2.175.675-3.025.925l.7,2.825c.725-.25,1.5-.525,2.325-.8v5.675c0,.325-.125.425-.425.425a20.2,20.2,0,0,1-2.075-.025,11.059,11.059,0,0,1,.75,2.75,6.484,6.484,0,0,0,3.475-.55c.75-.475.975-1.225.975-2.6V21.35c.825-.3,1.675-.6,2.475-.925Zm9.325,5.875h5.2V21H72.225v2.675h5v4.1H70.8V30.45H86.625V27.775H80.15ZM95.2,8.775l-.425.125H89.35V31.175h2.575V11.55h1.95c-.4,1.7-.925,3.875-1.425,5.45a6.691,6.691,0,0,1,1.725,4.375c0,.7-.1,1.2-.375,1.4a1.3,1.3,0,0,1-.7.225c-.325,0-.65,0-1.1-.025a6.3,6.3,0,0,1,.65,2.525,10.688,10.688,0,0,0,1.6-.05,3.57,3.57,0,0,0,1.45-.525c.775-.55,1.1-1.6,1.1-3.2A7.7,7.7,0,0,0,94.975,16.7c.7-1.95,1.525-4.675,2.175-6.8ZM98.525,23.15a11.932,11.932,0,0,1-3.125,5,18.277,18.277,0,0,1,2.1,1.7,17.569,17.569,0,0,0,3.625-6.05Zm1.25-8.125A21.93,21.93,0,0,0,103.8,10.5a22.8,22.8,0,0,0,4.225,4.525Zm10.8,7.2v-2.5h-5.3V17.45h3.475V15.625c.575.425,1.15.825,1.7,1.175a14.541,14.541,0,0,1,1.575-2.55,19.589,19.589,0,0,1-7-6.4H102.4a18.591,18.591,0,0,1-6.6,6.625,10.989,10.989,0,0,1,1.45,2.375,14.282,14.282,0,0,0,1.8-1.225V17.45h3.4v2.275h-4.9v2.5h4.9v5.85c0,.275-.1.35-.375.375-.325,0-1.25,0-2.2-.025a10.265,10.265,0,0,1,.95,2.75,7.018,7.018,0,0,0,3.375-.525c.85-.45,1.075-1.225,1.075-2.55V22.225Zm-4.475,1.9a23.027,23.027,0,0,1,3,5.625l2.45-1.225a22.116,22.116,0,0,0-3.175-5.475Z" transform="translate(266 1361)" fill="#333"/>
    <path id="パス_784" data-name="パス 784" d="M-29.65-9.75a10.072,10.072,0,0,0,3.675-1.725,41.248,41.248,0,0,1,5.4,1.725Zm3.95,7.425h-4.65v-1.6h4.65ZM-13.925-9.75H-17.85l.85-1.175A40.055,40.055,0,0,0-24.325-13.3h7.05v-2.3h-6.5c.075-.425.125-.875.175-1.35h6.475v2.6h2.9v-5.125h-9.3v-1.7H-26.5v1.7h-9.275v5.125h2.75v-2.6h6.65a10.937,10.937,0,0,1-.2,1.35H-32.85v2.3h5.075c-1.025.975-2.775,1.6-5.875,2a6.944,6.944,0,0,1,1.025,1.55h-3.45v2.6H-20.15V-.9c0,.3-.125.375-.5.425-.325,0-1.275,0-2.275-.025V-6.125h-10.15v7.25h2.725V-.15h6.825a9.739,9.739,0,0,1,.725,2.3,12.444,12.444,0,0,0,4.275-.425C-17.475,1.3-17.2.6-17.2-.825V-7.15h3.275Zm8.1-11.3A26.17,26.17,0,0,1-11.8-11.5a24.276,24.276,0,0,1,1.75,3.1c.575-.6,1.175-1.275,1.75-2V2.125h3.05V-15.05A45.92,45.92,0,0,0-2.875-20.1ZM11.65-15.8H8.9v-5.1H5.8v5.1H-3.725v3H5.8V-1.45c0,.55-.225.75-.85.75-.575.025-2.775.025-4.7-.05A11.841,11.841,0,0,1,1.4,2.2c2.75.025,4.625-.025,5.85-.5C8.45,1.25,8.9.475,8.9-1.45V-12.8h2.75ZM3.475-5.225C2.725-6.725,1.175-9.175.05-11L-2.6-9.775a64.728,64.728,0,0,1,3.25,6Zm29.475-7H28V-13.75h4.95Zm0,3.575H28v-1.525h4.95Zm0,3.65H28V-6.55h4.95ZM25.325-15.975V-2.8H35.75V-15.975H31.325c.2-.525.4-1.1.6-1.7H36.25V-20.2H24.575v2.525h4.2c-.1.55-.2,1.15-.3,1.7ZM16.05-16.8h5.975v1.725H24.5V-19.1H20.425v-2.025H17.65V-19.1h-4v4.025h2.4Zm4.5,15.225H17.525v-2.3H20.55Zm-2.975-4.6a18.177,18.177,0,0,0,2.1-1.625c.75.575,1.5,1.125,2.125,1.625Zm3-6.65A10.685,10.685,0,0,1,19.35-11.05l-1.725-1.125c.175-.225.35-.425.525-.65Zm2.5,7.7.05.05L24.8-7.15a39.273,39.273,0,0,0-3.4-2.5,14.547,14.547,0,0,0,2.475-4.5L22.2-14.925l-.45.125H19.425A9.867,9.867,0,0,0,20-15.95l-2.425-.6A12.022,12.022,0,0,1,13-11.325,11.215,11.215,0,0,1,14.875-9.6a11.449,11.449,0,0,0,1.075-.85L17.6-9.3A14.827,14.827,0,0,1,13-6.675,8.581,8.581,0,0,1,14.5-4.55l.525-.225V1.7h2.5V.7h5.55A17.634,17.634,0,0,1,24.45,2.125,17.777,17.777,0,0,0,29.775-1.2l-2.4-1.5a14.169,14.169,0,0,1-4.3,2.75Zm7.8,3.9a27.548,27.548,0,0,1,3.9,3.425l2.3-1.525a31.472,31.472,0,0,0-4.05-3.25Z" transform="translate(481 1585)" fill="#333"/>
    <path id="多角形_1" data-name="多角形 1" d="M10.5,0,21,18H0Z" transform="translate(800 1443) rotate(180)" fill="#00b84c"/>
    <path id="多角形_2" data-name="多角形 2" d="M10.5,0,21,18H0Z" transform="translate(279 1443) rotate(180)" fill="#878787"/>
    <path id="パス_606" data-name="パス 606" d="M-1087.4,13102.985h-282.1v-30.246h1v29.246h281.1Z" transform="translate(1486 -11527.402)" fill="#878787"/>
    <path id="パス_607" data-name="パス 607" d="M-1086.9,13102.985H-1369v-1h281.1v-29.246h1Z" transform="translate(1946.403 -11527.402)" fill="#878787"/>
  </g>
</svg>
