<svg id="グループ_648" data-name="グループ 648" xmlns="http://www.w3.org/2000/svg" xmlns:xlink="http://www.w3.org/1999/xlink" width="159.862" height="128.442" viewBox="0 0 159.862 128.442">
  <defs>
    <clipPath id="clip-path">
      <rect id="長方形_1130" data-name="長方形 1130" width="159.862" height="128.442" fill="none"/>
    </clipPath>
  </defs>
  <g id="グループ_647" data-name="グループ 647" clip-path="url(#clip-path)">
    <path id="パス_576" data-name="パス 576" d="M183.36,30.317a14.105,14.105,0,1,1,14.1-14.105,14.12,14.12,0,0,1-14.1,14.105m0-24.346A10.241,10.241,0,1,0,193.6,16.212,10.253,10.253,0,0,0,183.36,5.971" transform="translate(-103.428 -1.288)" fill="#00b84c"/>
    <path id="パス_577" data-name="パス 577" d="M202.484,251.83a1.932,1.932,0,0,1-1.932-1.932V203.849a1.932,1.932,0,0,1,3.864,0V249.9a1.932,1.932,0,0,1-1.932,1.932" transform="translate(-122.553 -123.387)" fill="#00b84c"/>
    <path id="パス_578" data-name="パス 578" d="M180.82,143.536h-5.833a1.932,1.932,0,1,1,0-3.864h5.833a3.935,3.935,0,0,0,3.93-3.93V103.563a8.651,8.651,0,0,0-8.641-8.642H141.931a8.652,8.652,0,0,0-8.642,8.642v32.179a3.935,3.935,0,0,0,3.931,3.93h5.833a1.932,1.932,0,0,1,0,3.864H137.22a7.8,7.8,0,0,1-7.795-7.795V103.563a12.52,12.52,0,0,1,12.506-12.506h34.178a12.52,12.52,0,0,1,12.506,12.506v32.179a7.8,7.8,0,0,1-7.795,7.795" transform="translate(-79.089 -55.643)" fill="#00b84c"/>
    <path id="パス_579" data-name="パス 579" d="M161.4,212.989a1.932,1.932,0,0,1-1.932-1.927l-.2-70.769a1.932,1.932,0,0,1,1.927-1.937h.005a1.932,1.932,0,0,1,1.932,1.927l.2,70.769a1.932,1.932,0,0,1-1.927,1.937Z" transform="translate(-97.328 -84.546)" fill="#00b84c"/>
    <path id="パス_580" data-name="パス 580" d="M243.257,212.989h-.005a1.932,1.932,0,0,1-1.927-1.937l.2-70.769a1.932,1.932,0,0,1,1.932-1.927h.005a1.932,1.932,0,0,1,1.927,1.937l-.2,70.769a1.932,1.932,0,0,1-1.932,1.927" transform="translate(-147.469 -84.546)" fill="#00b84c"/>
    <path id="パス_581" data-name="パス 581" d="M315.289,250.146a1.932,1.932,0,0,1-1.932-1.932v-47.12a1.932,1.932,0,1,1,3.864,0v47.12a1.932,1.932,0,0,1-1.932,1.932" transform="translate(-191.486 -121.704)" fill="#333"/>
    <path id="パス_582" data-name="パス 582" d="M295.781,28.689a14.345,14.345,0,1,1,14.345-14.345,14.361,14.361,0,0,1-14.345,14.345m0-24.825a10.48,10.48,0,1,0,10.48,10.48,10.492,10.492,0,0,0-10.48-10.48" transform="translate(-171.98 0)" fill="#333"/>
    <path id="パス_583" data-name="パス 583" d="M273.611,272.7a1.932,1.932,0,0,1-1.932-1.932V238.007a1.932,1.932,0,1,1,3.864,0v32.763a1.932,1.932,0,0,1-1.932,1.932" transform="translate(-166.017 -144.26)" fill="#333"/>
    <path id="パス_584" data-name="パス 584" d="M315.5,128.483H315.5a1.932,1.932,0,0,1-1.927-1.937l.2-70.588a12.437,12.437,0,0,1,2.733-7.75c1.239-1.535,3.242-3.869,5.561-6.573,1.005-1.171,2.059-2.4,3.114-3.636a25.518,25.518,0,0,0,6.1-16.545V7.811a3.88,3.88,0,0,0-7.76,0V21.49a14.4,14.4,0,0,1-3.009,8.788l-.7.911c-2.416,2.879-6.459,4.888-9.426,6.066a29.556,29.556,0,0,1-10.888,2.067H288.764a1.932,1.932,0,1,1,0-3.864h10.725a25.7,25.7,0,0,0,9.466-1.8c2.077-.825,5.858-2.561,7.862-4.927l.631-.82a10.523,10.523,0,0,0,2.2-6.424V7.811a7.744,7.744,0,0,1,15.488,0V21.454a29.382,29.382,0,0,1-7.024,19.052c-1.056,1.239-2.113,2.471-3.121,3.646-2.3,2.68-4.285,4.994-5.483,6.478a8.561,8.561,0,0,0-1.879,5.334l-.2,70.593a1.932,1.932,0,0,1-1.932,1.927" transform="translate(-175.277 -0.041)" fill="#333"/>
    <path id="パス_585" data-name="パス 585" d="M89.679,250.146a1.932,1.932,0,0,1-1.932-1.932v-47.12a1.932,1.932,0,1,1,3.864,0v47.12a1.932,1.932,0,0,1-1.932,1.932" transform="translate(-53.62 -121.704)" fill="#333"/>
    <path id="パス_586" data-name="パス 586" d="M70.183,28.689A14.345,14.345,0,1,1,84.527,14.345,14.361,14.361,0,0,1,70.183,28.689m0-24.825a10.48,10.48,0,1,0,10.48,10.48,10.492,10.492,0,0,0-10.48-10.48" transform="translate(-34.121 0)" fill="#333"/>
    <path id="パス_587" data-name="パス 587" d="M131.358,272.7a1.932,1.932,0,0,1-1.932-1.932V238.007a1.932,1.932,0,1,1,3.864,0v32.763a1.932,1.932,0,0,1-1.932,1.932" transform="translate(-79.089 -144.26)" fill="#333"/>
    <path id="パス_588" data-name="パス 588" d="M19.637,128.483a1.932,1.932,0,0,1-1.932-1.927l-.2-70.588a8.564,8.564,0,0,0-1.883-5.343c-1.194-1.48-3.179-3.793-5.478-6.472-1.008-1.176-2.066-2.408-3.124-3.648A29.387,29.387,0,0,1,0,21.454V7.811a7.744,7.744,0,1,1,15.488,0V21.49a10.518,10.518,0,0,0,2.2,6.418l.635.825c2,2.366,5.786,4.1,7.867,4.929a25.7,25.7,0,0,0,9.462,1.794H46.375a1.932,1.932,0,1,1,0,3.864H35.65a29.561,29.561,0,0,1-10.884-2.065c-2.971-1.18-7.013-3.188-9.43-6.068l-.051-.063-.658-.854a14.4,14.4,0,0,1-3-8.782V7.811a3.88,3.88,0,0,0-7.76,0V21.454A25.519,25.519,0,0,0,9.965,38c1.055,1.237,2.11,2.467,3.116,3.639,2.319,2.7,4.321,5.036,5.555,6.565a12.445,12.445,0,0,1,2.737,7.761l.2,70.583a1.932,1.932,0,0,1-1.927,1.937Z" transform="translate(0 -0.041)" fill="#333"/>
  </g>
</svg>
