<svg xmlns="http://www.w3.org/2000/svg" width="65.053" height="65.053" viewBox="0 0 65.053 65.053">
  <g id="グループ_672" data-name="グループ 672" transform="translate(-261.974 -755.257)">
    <path id="線_4" data-name="線 4" d="M0,58a3,3,0,0,1-3-3V0A3,3,0,0,1,0-3,3,3,0,0,1,3,0V55A3,3,0,0,1,0,58Z" transform="translate(294.5 759.5)" fill="#333"/>
    <path id="パス_673" data-name="パス 673" d="M389.4,11663.778h-40a3,3,0,0,1,0-6h37v-37a3,3,0,0,1,6,0v40A3,3,0,0,1,389.4,11663.778Z" transform="translate(8264.569 -7704.693) rotate(45)" fill="#333"/>
  </g>
</svg>
