<svg xmlns="http://www.w3.org/2000/svg" width="19.055" height="16.701" viewBox="0 0 19.055 16.701">
  <g id="グループ_806" data-name="グループ 806" transform="translate(0.48 0.381)">
    <rect id="長方形_1091" data-name="長方形 1091" width="16" height="16" rx="3" transform="translate(-0.48 0.32)" fill="#fff"/>
    <path id="長方形_1091_-_アウトライン" data-name="長方形 1091 - アウトライン" d="M3,1A2,2,0,0,0,1,3V13a2,2,0,0,0,2,2H13a2,2,0,0,0,2-2V3a2,2,0,0,0-2-2H3M3,0H13a3,3,0,0,1,3,3V13a3,3,0,0,1-3,3H3a3,3,0,0,1-3-3V3A3,3,0,0,1,3,0Z" transform="translate(-0.48 0.32)" fill="#707070"/>
    <path id="パス_191" data-name="パス 191" d="M9893.994,1838.26l-5.119-5.807,2.25-1.984,2.963,3.361,8.919-9.291,2.164,2.078Z" transform="translate(-9886.597 -1824.92)" fill="#eb3353"/>
  </g>
</svg>
