<svg xmlns="http://www.w3.org/2000/svg" width="27.582" height="23.039" viewBox="0 0 27.582 23.039">
  <g id="グループ_676" data-name="グループ 676" transform="translate(-163 -2089.961)">
    <rect id="長方形_1091" data-name="長方形 1091" width="23" height="23" rx="6" transform="translate(163 2090)" fill="#fff"/>
    <path id="長方形_1091_-_アウトライン" data-name="長方形 1091 - アウトライン" d="M6,1A5.006,5.006,0,0,0,1,6V17a5.006,5.006,0,0,0,5,5H17a5.006,5.006,0,0,0,5-5V6a5.006,5.006,0,0,0-5-5H6M6,0H17a6,6,0,0,1,6,6V17a6,6,0,0,1-6,6H6a6,6,0,0,1-6-6V6A6,6,0,0,1,6,0Z" transform="translate(163 2090)" fill="#707070"/>
    <path id="パス_191" data-name="パス 191" d="M9896.281,1844.181l-7.406-8.4,2.25-1.984,5.25,5.954,14.6-15.212,2.164,2.077Z" transform="translate(-9722.558 265.422)" fill="#eb3353"/>
  </g>
</svg>
