<svg xmlns="http://www.w3.org/2000/svg" xmlns:xlink="http://www.w3.org/1999/xlink" width="172.042" height="157.543" viewBox="0 0 172.042 157.543">
  <defs>
    <clipPath id="clip-path">
      <rect id="長方形_1271" data-name="長方形 1271" width="72.678" height="83.666" fill="none" stroke="#000" stroke-width="5"/>
    </clipPath>
    <clipPath id="clip-path-2">
      <rect id="長方形_1273" data-name="長方形 1273" width="88.878" height="68.205" fill="none" stroke="#000" stroke-width="5"/>
    </clipPath>
    <clipPath id="clip-path-3">
      <rect id="長方形_1274" data-name="長方形 1274" width="76.804" height="76.584" fill="none" stroke="#000" stroke-width="5"/>
    </clipPath>
  </defs>
  <g id="グループ_817" data-name="グループ 817" transform="translate(-596.979 -499.333)">
    <g id="グループ_730" data-name="グループ 730" transform="translate(596.979 573.21)">
      <g id="グループ_729" data-name="グループ 729" transform="translate(0 0)" clip-path="url(#clip-path)">
        <path id="パス_711" data-name="パス 711" d="M54.594,210.574H28.85a13.844,13.844,0,0,1-7.353-2.383,28.921,28.921,0,0,1-6.616-6,55.439,55.439,0,0,1-9.989-19.252,4.017,4.017,0,0,1,.632-3.583,4.078,4.078,0,0,1,3.257-1.637H74.651a4.06,4.06,0,0,1,3.885,5.229C73.335,200.248,64.385,210.574,54.594,210.574Zm-44.533-27.85a49.738,49.738,0,0,0,8.659,16.267c3.493,4.184,7.186,6.583,10.131,6.583H54.594c2.421,0,6.181-1.058,10.34-6.1,3.322-4.027,6.228-9.8,8.439-16.751Z" transform="translate(-5.376 -134.17)"/>
        <path id="パス_712" data-name="パス 712" d="M18.78,46.6a2.5,2.5,0,0,1-2.4-3.219,8.193,8.193,0,0,1,.371-1,9.568,9.568,0,0,1-.7-3.585,9.685,9.685,0,0,1,2.108-6.012,11.051,11.051,0,0,1,3.106-2.705,12.6,12.6,0,0,1-.149-1.931,13.12,13.12,0,0,1,4.213-9.541,15.884,15.884,0,0,1,7.861-4.013,11.185,11.185,0,0,1,.886-2.607A12.1,12.1,0,0,1,37.015,8.15a14.112,14.112,0,0,1,9.351-3.429,14.526,14.526,0,0,1,6.528,1.534A13.312,13.312,0,0,1,56.4,8.814a11.688,11.688,0,0,1,3.446-.52,11.289,11.289,0,0,1,7.359,2.652,9.51,9.51,0,0,1,3.124,5.008A15.184,15.184,0,0,1,76.38,20.29a12.894,12.894,0,0,1,3.1,8.35q0,.06,0,.12a7.338,7.338,0,0,1,2.516,1.348,8.538,8.538,0,0,1,2.636,5,7.063,7.063,0,0,1-1.347,6.115A9.6,9.6,0,0,1,83.8,44.01a2.5,2.5,0,0,1-5,.178,4.619,4.619,0,0,0-.693-2.271,2.5,2.5,0,0,1,.776-3.406,1.986,1.986,0,0,0,.854-2.342,4.216,4.216,0,0,0-.974-2.238,5.454,5.454,0,0,0-1.874-.716c-.258-.07-.526-.143-.81-.226a2.5,2.5,0,0,1-1.752-2.88,7.669,7.669,0,0,0,.146-1.468,7.955,7.955,0,0,0-1.93-5.142,10.579,10.579,0,0,0-5.164-3.277,2.5,2.5,0,0,1-1.806-2.311,4.4,4.4,0,0,0-1.622-3.168,6.29,6.29,0,0,0-4.106-1.449,6.566,6.566,0,0,0-3.035.734,2.5,2.5,0,0,1-3.21-.785,8,8,0,0,0-2.965-2.527,9.5,9.5,0,0,0-4.271-1c-4.622,0-8.391,3.181-8.4,7.091A2.5,2.5,0,0,1,35.646,19.3a11.108,11.108,0,0,0-6.869,2.931,8.169,8.169,0,0,0-2.66,5.919,7.653,7.653,0,0,0,.423,2.505,2.5,2.5,0,0,1-1.528,3.173,5.478,5.478,0,0,0-3.96,4.97,4.61,4.61,0,0,0,.675,2.385,2.5,2.5,0,0,1-.118,2.74,3,3,0,0,0-.435.895A2.5,2.5,0,0,1,18.78,46.6Z" transform="translate(-13.811 -5.376)"/>
        <path id="線_21" data-name="線 21" d="M26.474,2.5H0A2.5,2.5,0,0,1-2.5,0,2.5,2.5,0,0,1,0-2.5H26.474a2.5,2.5,0,0,1,2.5,2.5A2.5,2.5,0,0,1,26.474,2.5Z" transform="translate(23.11 81.821)"/>
        <path id="パス_713" data-name="パス 713" d="M70.188,234.468a2.489,2.489,0,0,1-1.143-.278c-3.257-1.678-6.414-4.955-9.128-9.476A2.5,2.5,0,0,1,64.2,222.14c2.2,3.67,4.736,6.371,7.131,7.6a2.5,2.5,0,0,1-1.147,4.723Z" transform="translate(-46.202 -166.332)" fill="#52b459"/>
      </g>
    </g>
    <g id="グループ_734" data-name="グループ 734" transform="translate(627.708 499.333)">
      <g id="グループ_733" data-name="グループ 733" transform="translate(0 0)" clip-path="url(#clip-path-2)">
        <path id="パス_729" data-name="パス 729" d="M36.19,147.712a39.788,39.788,0,0,1-11.835-1.7,29.731,29.731,0,0,1-10.339-5.536A25.6,25.6,0,0,1,7.3,131.848a26.7,26.7,0,0,1-2.564-10.736q0-.039,0-.078l-.01-14.749a2.5,2.5,0,0,1,5,0l.01,14.708a21.721,21.721,0,0,0,2.076,8.7,20.63,20.63,0,0,0,5.419,6.952,24.764,24.764,0,0,0,8.615,4.6,35.617,35.617,0,0,0,11.722,1.452,37.553,37.553,0,0,0,9.768-1.887,60.232,60.232,0,0,0,9.257-3.818,8.719,8.719,0,0,1,5.152-.908,40.608,40.608,0,0,0,9.953.078,30.948,30.948,0,0,0,8.675-2.248,18.379,18.379,0,0,0,6.223-4.214,11.539,11.539,0,0,0,2.978-5.731q.009-.057.021-.112a5.153,5.153,0,0,1,.215-.808,2.569,2.569,0,0,1,2.642-1.755,2.608,2.608,0,0,1,2.346,2.25,5.458,5.458,0,0,1,.078.828,5.09,5.09,0,0,1-.039.791,2.7,2.7,0,0,1-.853,1.693,16.7,16.7,0,0,1-3.727,6.249,23.32,23.32,0,0,1-7.894,5.4,35.93,35.93,0,0,1-10.077,2.626,45.613,45.613,0,0,1-11.181-.084,3.793,3.793,0,0,0-2.211.387c-5.552,2.879-14.029,6.036-21.168,6.263Q36.951,147.712,36.19,147.712Z" transform="translate(-5.358 -78.869)"/>
        <path id="パス_730" data-name="パス 730" d="M77.261,157.929a37.375,37.375,0,0,1-15.71-3.189,2.5,2.5,0,1,1,2.087-4.544,33.2,33.2,0,0,0,15.016,2.71,37.553,37.553,0,0,0,9.768-1.887,60.232,60.232,0,0,0,9.257-3.818,8.72,8.72,0,0,1,5.152-.907,37.774,37.774,0,0,0,16.646-1.406,22.083,22.083,0,0,0,6.223-3.2,13.463,13.463,0,0,0,3.9-4.475,2.5,2.5,0,0,1,4.435,2.31,18.412,18.412,0,0,1-5.32,6.152,27.053,27.053,0,0,1-7.627,3.945,38.394,38.394,0,0,1-9.076,1.855,46.071,46.071,0,0,1-9.822-.223,3.742,3.742,0,0,0-2.211.387c-5.552,2.879-14.029,6.036-21.168,6.263Q78.031,157.929,77.261,157.929Z" transform="translate(-46.449 -102.679)"/>
        <path id="パス_731" data-name="パス 731" d="M13.442,51.993a2.5,2.5,0,0,1-2.082-1.114c-2.126-3.189-3.886-5.825-3.886-5.825a2.5,2.5,0,0,1-.176-.31A26.7,26.7,0,0,1,4.732,34.009,21.478,21.478,0,0,1,7.377,22.986,28.141,28.141,0,0,1,15.029,14.2C21.45,9.222,30.288,6,39.917,5.13a107.382,107.382,0,0,1,16.332-.182l.908.044a2.5,2.5,0,1,1-.237,4.994l-.914-.044a103.1,103.1,0,0,0-15.639.167c-8.688.786-16.6,3.642-22.273,8.043a23.191,23.191,0,0,0-6.318,7.21A16.541,16.541,0,0,0,9.73,33.849a21.759,21.759,0,0,0,2,8.581c.4.606,1.961,2.937,3.787,5.676a2.5,2.5,0,0,1-2.078,3.887Z" transform="translate(-5.359 -5.358)"/>
        <path id="パス_732" data-name="パス 732" d="M261.871,48.716a2.5,2.5,0,0,1-2.215-3.655,11.116,11.116,0,0,0,1.066-3.086c.874-4.659-1.16-10.161-5.581-15.095a33.482,33.482,0,0,0-17.793-10.248,2.5,2.5,0,1,1,1.01-4.9,38.587,38.587,0,0,1,20.507,11.809,29.524,29.524,0,0,1,5.735,9.244A18.831,18.831,0,0,1,265.637,42.9a16.112,16.112,0,0,1-1.546,4.473A2.5,2.5,0,0,1,261.871,48.716Z" transform="translate(-176.502 -10.525)"/>
        <path id="パス_733" data-name="パス 733" d="M68.111,72.063a37.671,37.671,0,0,1-13.748-2.332A21.377,21.377,0,0,1,45.5,63.549a13.871,13.871,0,0,1-3.039-11.734,22.313,22.313,0,0,1,3.9-8.643,26.331,26.331,0,0,1,7.267-6.7,4.083,4.083,0,0,1,6.252,3.511q0,.016,0,.032a3.964,3.964,0,0,0,1.936,2.959,11.308,11.308,0,0,0,11.725,0,3.959,3.959,0,0,0,1.936-2.965,2.993,2.993,0,0,0-.773-1.914,3.982,3.982,0,0,1-.534-4.274,4.051,4.051,0,0,1,3.695-2.355h.077a76.482,76.482,0,0,1,13,1.155,31.551,31.551,0,0,1,8.117,2.827,24.653,24.653,0,0,1,6.506,4.786,19.7,19.7,0,0,1,4.236,6.6,19,19,0,0,1,1.2,8.037,8.969,8.969,0,0,1-2.31,5.432,14.694,14.694,0,0,1-4.835,3.5,31.058,31.058,0,0,1-13,2.615h0c-1.048,0-2.1-.045-3.126-.135-2.371-.207-4.029-.925-5.068-2.2-1.4-1.714-1.168-3.736-1-5.212a9.092,9.092,0,0,0,.09-1.309A5.761,5.761,0,0,0,79.7,57.3a23.775,23.775,0,0,0-2.57.164c-3.384.376-4.824,1.252-5.044,1.946-.2.618.154,2.019,1.721,4.1a23.252,23.252,0,0,0,2.72,2.977,2.5,2.5,0,0,1-.854,4.242,23.648,23.648,0,0,1-7.521,1.334ZM55.035,41.55a18.843,18.843,0,0,0-7.683,11.291,8.322,8.322,0,0,0,.091,3.827,9.833,9.833,0,0,0,1.935,3.73,16.406,16.406,0,0,0,6.809,4.679,32.736,32.736,0,0,0,11.923,1.987h.037a15.5,15.5,0,0,0,1.984-.133q-.158-.2-.316-.409c-2.442-3.236-3.282-6.135-2.5-8.615a6.506,6.506,0,0,1,3.223-3.729A15.989,15.989,0,0,1,76.579,52.5,28.322,28.322,0,0,1,79.7,52.3c1.77,0,4.3.2,5.852,1.937,1.486,1.666,1.252,3.706,1.081,5.2a6.9,6.9,0,0,0-.075,1.488,3.857,3.857,0,0,0,1.608.371c.883.077,1.79.116,2.694.116a26.385,26.385,0,0,0,10.855-2.133c3.41-1.617,4.218-3.46,4.3-4.721a14.04,14.04,0,0,0-.879-5.937,14.725,14.725,0,0,0-3.175-4.923,19.672,19.672,0,0,0-5.194-3.807,26.557,26.557,0,0,0-6.832-2.372,65.645,65.645,0,0,0-10.317-1.007,7.593,7.593,0,0,1-.32,7.569,10.089,10.089,0,0,1-2.919,3.009,16.269,16.269,0,0,1-17.4,0,10.089,10.089,0,0,1-2.919-3.009A7.931,7.931,0,0,1,55.035,41.55Z" transform="translate(-33.15 -25.204)" fill="#52b459"/>
      </g>
    </g>
    <g id="グループ_736" data-name="グループ 736" transform="translate(692.217 565.936)">
      <g id="グループ_735" data-name="グループ 735" transform="translate(0 0)" clip-path="url(#clip-path-3)">
        <path id="パス_734" data-name="パス 734" d="M8.771,38.563a2.5,2.5,0,0,1-2.34-1.619,7.385,7.385,0,0,1,3.365-8.7,12.7,12.7,0,0,1,1.549-6.2,11.3,11.3,0,0,1,5.813-4.784,10.829,10.829,0,0,1,1.846-3.291,11.655,11.655,0,0,1,3.758-3.013,12.308,12.308,0,0,1,4.753-1.322,10.793,10.793,0,0,1,2.724.16,11.911,11.911,0,0,1,2.64-2.372A12.342,12.342,0,0,1,37.888,5.5a9.824,9.824,0,0,1,6.335,1.1,12.028,12.028,0,0,1,2.62-1.186,11.347,11.347,0,0,1,4.705-.45,13.528,13.528,0,0,1,7.8,3.853,11.446,11.446,0,0,1,8.734,3.435,14.576,14.576,0,0,1,2.334,3.024,12.432,12.432,0,0,1,3.229,1.528,13.441,13.441,0,0,1,5.715,9.236,2.5,2.5,0,1,1-4.923.877,8.639,8.639,0,0,0-3.39-5.833,7.066,7.066,0,0,0-2.654-1.166,2.36,2.36,0,0,1-1.978-1.511,9.375,9.375,0,0,0-1.954-2.7,6.5,6.5,0,0,0-5.718-1.817,2.5,2.5,0,0,1-2.2-.793,9.051,9.051,0,0,0-5.556-3.164,6.8,6.8,0,0,0-5.2,1.68,2.5,2.5,0,0,1-3.37-.152A4.427,4.427,0,0,0,38.6,10.447,7.141,7.141,0,0,0,33.466,13.9a2.5,2.5,0,0,1-3.214,1.086,6.346,6.346,0,0,0-5.212.412,6.259,6.259,0,0,0-3.374,4.273,2.5,2.5,0,0,1-1.678,1.868,7.227,7.227,0,0,0-4.314,3,9.3,9.3,0,0,0-.847,5.229,2.5,2.5,0,0,1-1.938,2.591,2.218,2.218,0,0,0-1.525,1.149,2.333,2.333,0,0,0-.253,1.671,2.5,2.5,0,0,1-2.339,3.383Z" transform="translate(-6.667 -5.765)"/>
        <path id="パス_735" data-name="パス 735" d="M44.365,169.341q-.208,0-.413-.016c-1.79-.138-3.8-1.071-6.135-2.852a46.48,46.48,0,0,1-5.434-5.019c-2.329-2.466-4.285-4.88-5.262-6.124a22.743,22.743,0,0,1-6.419-2.067,25.819,25.819,0,0,1-6.625-4.662,30.749,30.749,0,0,1-6.183-8.647c-2.122-4.332-3.059-6.992-3-11.3a2.5,2.5,0,1,1,5,.068c-.045,3.262.614,5.2,2.491,9.035a25.856,25.856,0,0,0,5.051,7.138,20.9,20.9,0,0,0,5.244,3.771,16.8,16.8,0,0,0,5.889,1.805,2.44,2.44,0,0,1,1.884,1c.024.032,2.5,3.315,5.595,6.588a41.386,41.386,0,0,0,4.814,4.454c2.068,1.572,3.119,1.806,3.475,1.833.038,0,.974.05,3.439-1.907a48.865,48.865,0,0,0,5.647-5.5c3.69-4.106,6.746-8.309,6.776-8.351a2.41,2.41,0,0,1,1.768-1.02,11.688,11.688,0,0,0,3.391-1.144,17.178,17.178,0,0,0,6.605-5.987l.033-.048a34.991,34.991,0,0,0,6.076-13.124,15.905,15.905,0,0,0-.456-8.579,2.5,2.5,0,1,1,4.68-1.761,20.865,20.865,0,0,1,.685,11.294A39.859,39.859,0,0,1,76.1,143.23a20.936,20.936,0,0,1-12.456,9.092c-1.1,1.467-3.589,4.7-6.506,7.949a53.708,53.708,0,0,1-6.257,6.078C48.323,168.381,46.238,169.341,44.365,169.341Z" transform="translate(-5.765 -91.882)"/>
        <path id="パス_736" data-name="パス 736" d="M199.891,301.114a2.5,2.5,0,0,1,0-5c3.655,0,9.991-.187,12.307-.679a7.107,7.107,0,0,0-.164-2.3,17.583,17.583,0,0,0-.6-2.233,2.5,2.5,0,0,1,4.706-1.69,22.446,22.446,0,0,1,.8,2.941c.491,2.486.377,4.381-.346,5.793a4.257,4.257,0,0,1-2.669,2.215c-.538.154-2.176.621-8.4.848C202.553,301.112,200,301.114,199.891,301.114Z" transform="translate(-155.917 -226.246)"/>
        <path id="パス_737" data-name="パス 737" d="M95.795,304.8c-5.289,0-8.339-.954-9.905-3.01a5.628,5.628,0,0,1-.993-4.348,17.461,17.461,0,0,1,.952-3.388l.115-.325a2.5,2.5,0,0,1,4.715,1.664l-.119.336a14.062,14.062,0,0,0-.712,2.408,1.142,1.142,0,0,0,.019.624c.014.019.373.467,2.078.768a34.536,34.536,0,0,0,7.907.107,2.5,2.5,0,1,1,.363,4.987C98.593,304.739,97.123,304.8,95.795,304.8Z" transform="translate(-68.112 -229.76)"/>
        <path id="パス_738" data-name="パス 738" d="M170.662,70.912h-.07a2.5,2.5,0,0,1-2.431-2.567c.014-.517.007-.763,0-1.048-.01-.334-.021-.712,0-1.442a2.5,2.5,0,0,1,5,.162c-.019.574-.011.832,0,1.13.009.316.02.674,0,1.335A2.5,2.5,0,0,1,170.662,70.912Z" transform="translate(-133.108 -51.429)" fill="#52b459"/>
        <path id="パス_739" data-name="パス 739" d="M169.248,113.373h-.031a2.5,2.5,0,0,1-2.469-2.531c.023-1.837.053-3.7.091-5.539a2.5,2.5,0,1,1,5,.1c-.038,1.825-.068,3.674-.09,5.5A2.5,2.5,0,0,1,169.248,113.373Z" transform="translate(-132.015 -82.177)" fill="#52b459"/>
        <path id="パス_740" data-name="パス 740" d="M167.181,194.834c-.03-.184-.738-4.707-.64-22.306a2.5,2.5,0,0,1,2.5-2.486h.014a2.5,2.5,0,0,1,2.486,2.514c-.095,16.928.569,21.437.576,21.481l0-.012Z" transform="translate(-131.847 -134.585)" fill="#52b459"/>
        <path id="パス_741" data-name="パス 741" d="M115.8,123.348a2.5,2.5,0,0,1-2.384-1.751A192.49,192.49,0,0,1,107.8,97.824c-1.279-7.43-1.923-13.695-1.681-16.35a2.5,2.5,0,0,1,4.979.453c-.378,4.153,2.353,23.128,7.08,38.17a2.5,2.5,0,0,1-2.386,3.25Z" transform="translate(-84.686 -63.728)" fill="#52b459"/>
        <path id="パス_742" data-name="パス 742" d="M54.574,152.768a2.5,2.5,0,0,1-2.131-1.189,54.567,54.567,0,0,1-7.65-19.93,2.5,2.5,0,1,1,4.962-.618,36.98,36.98,0,0,0,1.279,5.411A54.58,54.58,0,0,0,56.7,148.957a2.5,2.5,0,0,1-2.126,3.812Z" transform="translate(-36.874 -102.447)" fill="#52b459"/>
        <path id="パス_743" data-name="パス 743" d="M97.615,243.608a2.5,2.5,0,0,1-1.916-.892,9.042,9.042,0,0,1-.932-1.26c-.09-.146-.175-.284-.41-.606a2.5,2.5,0,1,1,4.035-2.953c.355.485.517.748.635.941a4.475,4.475,0,0,0,.5.662,2.5,2.5,0,0,1-1.913,4.108Z" transform="translate(-75.174 -186.714)" fill="#52b459"/>
        <path id="パス_744" data-name="パス 744" d="M202.7,123.348a2.5,2.5,0,0,1-2.386-3.25c4.728-15.044,7.458-34.018,7.08-38.17a2.5,2.5,0,0,1,4.979-.453c.242,2.655-.4,8.92-1.681,16.35A192.513,192.513,0,0,1,205.08,121.6,2.5,2.5,0,0,1,202.7,123.348Z" transform="translate(-158.104 -63.728)" fill="#52b459"/>
        <path id="パス_745" data-name="パス 745" d="M263.67,152.768a2.5,2.5,0,0,1-2.126-3.812,50.068,50.068,0,0,0,6.945-17.926,2.5,2.5,0,1,1,4.962.618,54.568,54.568,0,0,1-7.65,19.93A2.5,2.5,0,0,1,263.67,152.768Z" transform="translate(-205.667 -102.447)" fill="#52b459"/>
        <path id="パス_746" data-name="パス 746" d="M242.112,243.608A2.5,2.5,0,0,1,240.2,239.5a4.476,4.476,0,0,0,.5-.663c.118-.192.28-.456.635-.941a2.5,2.5,0,0,1,4.035,2.953c-.235.322-.32.46-.41.606a9.041,9.041,0,0,1-.932,1.26A2.5,2.5,0,0,1,242.112,243.608Z" transform="translate(-188.851 -186.714)" fill="#52b459"/>
      </g>
    </g>
  </g>
</svg>
