<svg xmlns="http://www.w3.org/2000/svg" width="168.341" height="110.03" viewBox="0 0 168.341 110.03">
  <g id="グループ_738" data-name="グループ 738" transform="translate(0)">
    <g id="グループ_742" data-name="グループ 742" transform="translate(0 0)">
      <path id="パス_747" data-name="パス 747" d="M152.864,81.012H38.68a5.855,5.855,0,0,1-5.855-5.855v-64.8A5.855,5.855,0,0,1,38.68,4.5H152.864a5.855,5.855,0,0,1,5.855,5.855v64.8a5.855,5.855,0,0,1-5.855,5.855" transform="translate(-11.725 -1.607)" fill="#fff"/>
      <path id="パス_748" data-name="パス 748" d="M151.256,82.3H37.073a8.758,8.758,0,0,1-8.748-8.748V8.748A8.758,8.758,0,0,1,37.073,0H151.256A8.758,8.758,0,0,1,160,8.748v64.8a8.758,8.758,0,0,1-8.748,8.748M37.073,5.785A2.966,2.966,0,0,0,34.11,8.748v64.8a2.966,2.966,0,0,0,2.963,2.963H151.256a2.966,2.966,0,0,0,2.963-2.963V8.748a2.966,2.966,0,0,0-2.963-2.963Z" transform="translate(-10.117 0)"/>
      <path id="パス_749" data-name="パス 749" d="M152.593,78.259H47.038a2.893,2.893,0,0,1-2.893-2.893V17.032a2.893,2.893,0,0,1,2.893-2.893H152.593a2.892,2.892,0,0,1,2.893,2.893V75.366a2.892,2.892,0,0,1-2.893,2.893M49.93,72.474H149.7V19.925H49.93Z" transform="translate(-15.768 -5.05)"/>
      <path id="パス_751" data-name="パス 751" d="M162.381,148.429H5.959a5.958,5.958,0,0,1-4.243-10.14l14.336-14.543A5.993,5.993,0,0,1,20.3,121.97h127.75a6,6,0,0,1,4.243,1.775l14.335,14.543a5.958,5.958,0,0,1-4.243,10.14M20.3,127.755a.171.171,0,0,0-.122.051L5.836,142.35a.139.139,0,0,0-.036.187c.045.106.1.106.159.106H162.381c.064,0,.114,0,.159-.106a.139.139,0,0,0-.037-.187l-14.336-14.543a.172.172,0,0,0-.123-.051Z" transform="translate(0.001 -38.398)"/>
      <path id="パス_752" data-name="パス 752" d="M141.878,152.887H92.656l4.076-10.337H137.8Z" transform="translate(-33.096 -50.918)" fill="#fff"/>
      <path id="パス_753" data-name="パス 753" d="M140.27,154.173H91.048a2.893,2.893,0,0,1-2.691-3.954l4.075-10.336a2.894,2.894,0,0,1,2.691-1.831h41.07a2.894,2.894,0,0,1,2.691,1.831l4.075,10.336a2.893,2.893,0,0,1-2.691,3.954M95.3,148.387H136.02l-1.795-4.551H97.093Z" transform="translate(-31.488 -44.142)"/>
      <path id="線_22" data-name="線 22" d="M66.447,3.005H0A3,3,0,0,1-3,0,3,3,0,0,1,0-3.005H66.447A3,3,0,0,1,69.452,0,3,3,0,0,1,66.447,3.005Z" transform="translate(50.155 27.665)" fill="#52b459"/>
      <path id="線_23" data-name="線 23" d="M66.447,3.005H0A3,3,0,0,1-3,0,3,3,0,0,1,0-3.005H66.447A3,3,0,0,1,69.452,0,3,3,0,0,1,66.447,3.005Z" transform="translate(50.155 41.387)" fill="#52b459"/>
      <path id="線_24" data-name="線 24" d="M66.447,3.005H0A3,3,0,0,1-3,0,3,3,0,0,1,0-3.005H66.447A3,3,0,0,1,69.452,0,3,3,0,0,1,66.447,3.005Z" transform="translate(50.155 55.109)" fill="#52b459"/>
    </g>
  </g>
</svg>
