<svg xmlns="http://www.w3.org/2000/svg" width="114.251" height="145.876" viewBox="0 0 114.251 145.876">
  <g id="グループ_741" data-name="グループ 741" transform="translate(-1 -1.136)">
    <rect id="長方形_1276" data-name="長方形 1276" width="83.95" height="111.245" transform="translate(3.417 3.417)" fill="#fff"/>
    <g id="グループ_740" data-name="グループ 740" transform="translate(3.909 4.023)">
      <g id="グループ_743" data-name="グループ 743" transform="translate(0 0)">
        <rect id="長方形_1278" data-name="長方形 1278" width="83" height="111" rx="5" transform="translate(0.091 0.112)" fill="#fff"/>
        <path id="長方形_1278_-_アウトライン" data-name="長方形 1278 - アウトライン" d="M5-3H78a8.009,8.009,0,0,1,8,8V106a8.009,8.009,0,0,1-8,8H5a8.009,8.009,0,0,1-8-8V5A8.009,8.009,0,0,1,5-3ZM78,108a2,2,0,0,0,2-2V5a2,2,0,0,0-2-2H5A2,2,0,0,0,3,5V106a2,2,0,0,0,2,2Z" transform="translate(0.091 0.112)"/>
        <path id="パス_755" data-name="パス 755" d="M82.279,54.037H19.093a2.882,2.882,0,0,1,0-5.764H82.279a2.882,2.882,0,1,1,0,5.764" transform="translate(-9.203 -20.845)" fill="#3e3a39"/>
        <path id="パス_756" data-name="パス 756" d="M82.279,79.607H19.093a2.882,2.882,0,0,1,0-5.764H82.279a2.882,2.882,0,0,1,0,5.764" transform="translate(-9.203 -30.038)" fill="#3e3a39"/>
        <path id="パス_757" data-name="パス 757" d="M82.279,105.176H19.093a2.882,2.882,0,0,1,0-5.764H82.279a2.882,2.882,0,0,1,0,5.764" transform="translate(-9.203 -39.231)" fill="#3e3a39"/>
        <path id="パス_758" data-name="パス 758" d="M82.279,130.745H19.093a2.882,2.882,0,1,1,0-5.764H82.279a2.882,2.882,0,1,1,0,5.764" transform="translate(-9.203 -48.425)" fill="#3e3a39"/>
        <path id="パス_759" data-name="パス 759" d="M96.1,123.455,79.281,115.59l5.051,17.445Z" transform="translate(-31.879 -45.048)" fill="#fff"/>
        <path id="パス_760" data-name="パス 760" d="M83.262,133.871a1.9,1.9,0,0,1-1.829-1.374l-5.051-17.445a1.9,1.9,0,0,1,2.636-2.255l16.816,7.865a1.9,1.9,0,0,1,.4,3.2l-11.765,9.58a1.9,1.9,0,0,1-1.2.428m-2.053-15.846,3.083,10.647,7.18-5.847Z" transform="translate(-30.81 -43.979)" fill="#3e3a39"/>
        <path id="パス_761" data-name="パス 761" d="M87.64,137.754,99.1,127.87l45.22,52.491-11.159,10.186Z" transform="translate(-34.885 -49.463)" fill="#00b84c"/>
        <path id="パス_762" data-name="パス 762" d="M132.095,191.383c-.038,0-.076,0-.113,0a1.906,1.906,0,0,1-1.329-.657L85.129,137.929a1.9,1.9,0,0,1,.2-2.686l11.462-9.884a1.9,1.9,0,0,1,2.686.2l45.22,52.49a1.9,1.9,0,0,1-.159,2.65l-11.158,10.186a1.9,1.9,0,0,1-1.284.5m-42.838-54.5,43,49.867,8.345-7.618L97.834,129.488Z" transform="translate(-33.815 -48.394)" fill="#3e3a39"/>
        <path id="パス_763" data-name="パス 763" d="M86.951,119.37a5.657,5.657,0,0,1-5.3,3.979l-2.568-7.562Z" transform="translate(-31.808 -45.119)" fill="#3e3a39"/>
        <path id="パス_764" data-name="パス 764" d="M144.585,187.253a1.371,1.371,0,0,1-1.042-.478l-44.584-51.7a1.375,1.375,0,0,1,2.083-1.8l44.584,51.7a1.376,1.376,0,0,1-1.041,2.274" transform="translate(-38.834 -51.235)" fill="#3e3a39"/>
        <path id="パス_765" data-name="パス 765" d="M139.394,191.729a1.373,1.373,0,0,1-1.043-.478l-44.583-51.7a1.375,1.375,0,1,1,2.083-1.8l44.583,51.7a1.375,1.375,0,0,1-1.041,2.274" transform="translate(-36.968 -52.844)" fill="#3e3a39"/>
      </g>
    </g>
  </g>
</svg>
